{
copyright = "Copyright (c) 2015, Cadson Demak (info@cadsondemak.com)";
customParameters = (
{
name = vendorID;
value = CDK;
},
{
name = description;
value = "Copyright (c) 2015, Cadson Demak (info@cadsondemak.com)";
},
{
name = license;

glyphs = (
{
glyphname = A;
lastChange = "2015-11-30 01:13:22 +0000";
layers = (
{
layerId = "6C2100B3-2BA9-4AA0-8DCB-13254C7332A5";
name = SemiBold;
paths = (
{
closed = 1;
nodes = (
"188 0 LINE",
"248 152 LINE",
"525 152 LINE",
"585 0 LINE",
"740 0 LINE",
"461 699 LINE",
"312 699 LINE",
"32 0 LINE"
);
},
{
closed = 1;
nodes = (
"386 539 LINE",
"485 273 LINE",
"287 273 LINE"
);
}
);
width = 772;
}
);
leftKerningGroup = A;
note = A;
rightKerningGroup = A;
unicode = 0041;
},
{
glyphname = Aacute;
lastChange = "2015-11-30 01:13:22 +0000";
layers = (
{
layerId = "6C2100B3-2BA9-4AA0-8DCB-13254C7332A5";
name = SemiBold;
paths = (
{
closed = 1;
nodes = (
"188 0 LINE",
"248 152 LINE",
"525 152 LINE",
"585 0 LINE",
"740 0 LINE",
"461 699 LINE",
"312 699 LINE",
"32 0 LINE"
);
},
{
closed = 1;
nodes = (
"386 539 LINE",
"485 273 LINE",
"287 273 LINE"
);
},
{
closed = 1;
nodes = (
"460 742 LINE",
"549 918 LINE",
"390 918 LINE",
"321 742 LINE"
);
}
);
width = 772;
}
);
leftKerningGroup = A;
note = Aacute;
rightKerningGroup = A;
unicode = 00C1;
},
{
glyphname = Abreve;
lastChange = "2015-11-30 01:13:21 +0000";
layers = (
{
layerId = "6C2100B3-2BA9-4AA0-8DCB-13254C7332A5";
name = SemiBold;
paths = (
{
closed = 1;
nodes = (
"188 0 LINE",
"248 152 LINE",
"525 152 LINE",
"585 0 LINE",
"740 0 LINE",
"461 699 LINE",
"312 699 LINE",
"32 0 LINE"
);
},
{
closed = 1;
nodes = (
"386 539 LINE",
"485 273 LINE",
"287 273 LINE"
);
},
{
closed = 1;
nodes = (
"495 742 OFFCURVE",
"558 807 OFFCURVE",
"558 904 CURVE",
"445 904 LINE",
"445 862 OFFCURVE",
"423 840 OFFCURVE",
"386 840 CURVE SMOOTH",
"348 840 OFFCURVE",
"327 862 OFFCURVE",
"327 904 CURVE",
"214 904 LINE",
"214 807 OFFCURVE",
"277 742 OFFCURVE",
"386 742 CURVE SMOOTH"
);
}
);
width = 772;
}
);
leftKerningGroup = A;
note = Abreve;
rightKerningGroup = A;
unicode = 0102;
},
{
glyphname = Abreveacute;
lastChange = "2015-11-30 01:13:21 +0000";
layers = (
{
layerId = "6C2100B3-2BA9-4AA0-8DCB-13254C7332A5";
name = SemiBold;
paths = (
{
closed = 1;
nodes = (
"188 0 LINE",
"248 152 LINE",
"525 152 LINE",
"585 0 LINE",
"740 0 LINE",
"461 699 LINE",
"312 699 LINE",
"32 0 LINE"
);
},
{
closed = 1;
nodes = (
"386 539 LINE",
"485 273 LINE",
"287 273 LINE"
);
},
{
closed = 1;
nodes = (
"487 742 OFFCURVE",
"550 799 OFFCURVE",
"550 890 CURVE",
"446 890 LINE",
"446 850 OFFCURVE",
"425 831 OFFCURVE",
"386 831 CURVE SMOOTH",
"346 831 OFFCURVE",
"325 850 OFFCURVE",
"325 890 CURVE",
"221 890 LINE",
"221 799 OFFCURVE",
"285 742 OFFCURVE",
"386 742 CURVE SMOOTH"
);
},
{
closed = 1;
nodes = (
"438 903 LINE",
"507 1030 LINE",
"384 1030 LINE",
"333 903 LINE"
);
}
);
width = 772;
}
);
leftKerningGroup = A;
note = Abreveacute;
rightKerningGroup = A;
unicode = 1EAE;
},
{
glyphname = Abrevedotbelow;
lastChange = "2015-11-30 01:13:22 +0000";
layers = (
{
layerId = "6C2100B3-2BA9-4AA0-8DCB-13254C7332A5";
name = SemiBold;
paths = (
{
closed = 1;
nodes = (
"188 0 LINE",
"248 152 LINE",
"525 152 LINE",
"585 0 LINE",
"740 0 LINE",
"461 699 LINE",
"312 699 LINE",
"32 0 LINE"
);
},
{
closed = 1;
nodes = (
"426 -190 OFFCURVE",
"458 -158 OFFCURVE",
"458 -118 CURVE SMOOTH",
"458 -78 OFFCURVE",
"426 -46 OFFCURVE",
"387 -46 CURVE SMOOTH",
"348 -46 OFFCURVE",
"314 -78 OFFCURVE",
"314 -118 CURVE SMOOTH",
"314 -158 OFFCURVE",
"348 -190 OFFCURVE",
"387 -190 CURVE SMOOTH"
);
},
{
closed = 1;
nodes = (
"386 539 LINE",
"485 273 LINE",
"287 273 LINE"
);
},
{
closed = 1;
nodes = (
"495 742 OFFCURVE",
"558 807 OFFCURVE",
"558 904 CURVE",
"445 904 LINE",
"445 862 OFFCURVE",
"423 840 OFFCURVE",
"386 840 CURVE SMOOTH",
"348 840 OFFCURVE",
"327 862 OFFCURVE",
"327 904 CURVE",
"214 904 LINE",
"214 807 OFFCURVE",
"277 742 OFFCURVE",
"386 742 CURVE SMOOTH"
);
}
);
width = 772;
}
);
leftKerningGroup = A;
note = Abrevedotbelow;
rightKerningGroup = A;
unicode = 1EB6;
},
{
glyphname = Abrevegrave;
lastChange = "2015-11-30 01:13:21 +0000";
layers = (
{
layerId = "6C2100B3-2BA9-4AA0-8DCB-13254C7332A5";
name = SemiBold;
paths = (
{
closed = 1;
nodes = (
"188 0 LINE",
"248 152 LINE",
"525 152 LINE",
"585 0 LINE",
"740 0 LINE",
"461 699 LINE",
"312 699 LINE",
"32 0 LINE"
);
},
{
closed = 1;
nodes = (
"386 539 LINE",
"485 273 LINE",
"287 273 LINE"
);
},
{
closed = 1;
nodes = (
"487 742 OFFCURVE",
"550 799 OFFCURVE",
"550 890 CURVE",
"447 890 LINE",
"447 850 OFFCURVE",
"425 831 OFFCURVE",
"386 831 CURVE SMOOTH",
"346 831 OFFCURVE",
"325 850 OFFCURVE",
"325 890 CURVE",
"221 890 LINE",
"221 799 OFFCURVE",
"285 742 OFFCURVE",
"386 742 CURVE SMOOTH"
);
},
{
closed = 1;
nodes = (
"438 903 LINE",
"387 1030 LINE",
"265 1030 LINE",
"333 903 LINE"
);
}
);
width = 772;
}
);
leftKerningGroup = A;
note = Abrevegrave;
rightKerningGroup = A;
unicode = 1EB0;
},
{
glyphname = Abrevehookabove;
lastChange = "2015-11-30 01:13:22 +0000";
layers = (
{
layerId = "6C2100B3-2BA9-4AA0-8DCB-13254C7332A5";
name = SemiBold;
paths = (
{
closed = 1;
nodes = (
"188 0 LINE",
"248 152 LINE",
"525 152 LINE",
"585 0 LINE",
"740 0 LINE",
"461 699 LINE",
"312 699 LINE",
"32 0 LINE"
);
},
{
closed = 1;
nodes = (
"386 539 LINE",
"485 273 LINE",
"287 273 LINE"
);
},
{
closed = 1;
nodes = (
"487 742 OFFCURVE",
"551 799 OFFCURVE",
"551 890 CURVE",
"448 890 LINE",
"448 850 OFFCURVE",
"426 830 OFFCURVE",
"386 830 CURVE SMOOTH",
"347 830 OFFCURVE",
"325 850 OFFCURVE",
"325 890 CURVE",
"222 890 LINE",
"222 799 OFFCURVE",
"285 742 OFFCURVE",
"386 742 CURVE SMOOTH"
);
},
{
closed = 1;
nodes = (
"436 892 LINE",
"436 913 LINE",
"476 921 OFFCURVE",
"498 945 OFFCURVE",
"498 980 CURVE SMOOTH",
"498 1023 OFFCURVE",
"462 1052 OFFCURVE",
"395 1052 CURVE SMOOTH",
"370 1052 OFFCURVE",
"336 1047 OFFCURVE",
"317 1040 CURVE",
"317 986 LINE",
"325 991 OFFCURVE",
"342 994 OFFCURVE",
"355 994 CURVE SMOOTH",
"383 994 OFFCURVE",
"396 988 OFFCURVE",
"396 969 CURVE SMOOTH",
"396 947 OFFCURVE",
"377 941 OFFCURVE",
"342 941 CURVE",
"342 892 LINE"
);
}
);
width = 772;
}
);
leftKerningGroup = A;
note = Abrevehookabove;
rightKerningGroup = A;
unicode = 1EB2;
},
{
glyphname = Abrevetilde;
lastChange = "2015-11-30 01:13:22 +0000";
layers = (
{
layerId = "6C2100B3-2BA9-4AA0-8DCB-13254C7332A5";
name = SemiBold;
paths = (
{
closed = 1;
nodes = (
"188 0 LINE",
"248 152 LINE",
"525 152 LINE",
"585 0 LINE",
"740 0 LINE",
"461 699 LINE",
"312 699 LINE",
"32 0 LINE"
);
},
{
closed = 1;
nodes = (
"386 539 LINE",
"485 273 LINE",
"287 273 LINE"
);
},
{
closed = 1;
nodes = (
"487 742 OFFCURVE",
"550 799 OFFCURVE",
"550 890 CURVE",
"447 890 LINE",
"447 850 OFFCURVE",
"425 831 OFFCURVE",
"386 831 CURVE SMOOTH",
"346 831 OFFCURVE",
"325 850 OFFCURVE",
"325 890 CURVE",
"221 890 LINE",
"221 799 OFFCURVE",
"285 742 OFFCURVE",
"386 742 CURVE SMOOTH"
);
},
{
closed = 1;
nodes = (
"500 923 OFFCURVE",
"527 933 OFFCURVE",
"545 957 CURVE",
"545 1053 LINE",
"522 1023 OFFCURVE",
"496 1011 OFFCURVE",
"465 1011 CURVE SMOOTH",
"415 1011 OFFCURVE",
"359 1054 OFFCURVE",
"308 1054 CURVE SMOOTH",
"272 1054 OFFCURVE",
"245 1044 OFFCURVE",
"227 1019 CURVE",
"227 924 LINE",
"251 954 OFFCURVE",
"276 966 OFFCURVE",
"308 966 CURVE SMOOTH",
"356 966 OFFCURVE",
"409 923 OFFCURVE",
"465 923 CURVE SMOOTH"
);
}
);
width = 772;
}
);
leftKerningGroup = A;
note = Abrevetilde;
rightKerningGroup = A;
unicode = 1EB4;
},
{
glyphname = Acaron;
lastChange = "2015-11-30 01:13:22 +0000";
layers = (
{
layerId = "6C2100B3-2BA9-4AA0-8DCB-13254C7332A5";
name = SemiBold;
paths = (
{
closed = 1;
nodes = (
"188 0 LINE",
"248 152 LINE",
"525 152 LINE",
"585 0 LINE",
"740 0 LINE",
"461 699 LINE",
"312 699 LINE",
"32 0 LINE"
);
},
{
closed = 1;
nodes = (
"386 539 LINE",
"485 273 LINE",
"287 273 LINE"
);
},
{
closed = 1;
nodes = (
"454 742 LINE",
"605 918 LINE",
"455 918 LINE",
"387 826 LINE",
"319 918 LINE",
"168 918 LINE",
"319 742 LINE"
);
}
);
width = 772;
}
);
leftKerningGroup = A;
note = Acaron;
rightKerningGroup = A;
unicode = 01CD;
},
{
glyphname = Acircumflex;
lastChange = "2015-11-30 01:13:21 +0000";
layers = (
{
layerId = "6C2100B3-2BA9-4AA0-8DCB-13254C7332A5";
name = SemiBold;
paths = (
{
closed = 1;
nodes = (
"188 0 LINE",
"248 152 LINE",
"525 152 LINE",
"585 0 LINE",
"740 0 LINE",
"461 699 LINE",
"312 699 LINE",
"32 0 LINE"
);
},
{
closed = 1;
nodes = (
"386 539 LINE",
"485 273 LINE",
"287 273 LINE"
);
},
{
closed = 1;
nodes = (
"319 742 LINE",
"387 834 LINE",
"455 742 LINE",
"605 742 LINE",
"454 918 LINE",
"319 918 LINE",
"168 742 LINE"
);
}
);
width = 772;
}
);
leftKerningGroup = A;
note = Acircumflex;
rightKerningGroup = A;
unicode = 00C2;
},
{
glyphname = Acircumflexacute;
lastChange = "2015-11-30 01:13:22 +0000";
layers = (
{
layerId = "6C2100B3-2BA9-4AA0-8DCB-13254C7332A5";
name = SemiBold;
paths = (
{
closed = 1;
nodes = (
"188 0 LINE",
"248 152 LINE",
"525 152 LINE",
"585 0 LINE",
"740 0 LINE",
"461 699 LINE",
"312 699 LINE",
"32 0 LINE"
);
},
{
closed = 1;
nodes = (
"386 539 LINE",
"485 273 LINE",
"287 273 LINE"
);
},
{
closed = 1;
nodes = (
"324 742 LINE",
"389 818 LINE",
"454 742 LINE",
"592 742 LINE",
"447 897 LINE",
"332 897 LINE",
"186 742 LINE"
);
},
{
closed = 1;
nodes = (
"642 850 LINE",
"721 983 LINE",
"582 983 LINE",
"522 850 LINE"
);
}
);
width = 771;
}
);
leftKerningGroup = A;
note = Acircumflexacute;
rightKerningGroup = A;
unicode = 1EA4;
},
{
glyphname = Acircumflexdotbelow;
lastChange = "2015-11-30 01:13:22 +0000";
layers = (
{
layerId = "6C2100B3-2BA9-4AA0-8DCB-13254C7332A5";
name = SemiBold;
paths = (
{
closed = 1;
nodes = (
"188 0 LINE",
"248 152 LINE",
"525 152 LINE",
"585 0 LINE",
"740 0 LINE",
"461 699 LINE",
"312 699 LINE",
"32 0 LINE"
);
},
{
closed = 1;
nodes = (
"426 -190 OFFCURVE",
"458 -158 OFFCURVE",
"458 -118 CURVE SMOOTH",
"458 -78 OFFCURVE",
"426 -46 OFFCURVE",
"387 -46 CURVE SMOOTH",
"348 -46 OFFCURVE",
"314 -78 OFFCURVE",
"314 -118 CURVE SMOOTH",
"314 -158 OFFCURVE",
"348 -190 OFFCURVE",
"387 -190 CURVE SMOOTH"
);
},
{
closed = 1;
nodes = (
"386 539 LINE",
"485 273 LINE",
"287 273 LINE"
);
},
{
closed = 1;
nodes = (
"319 742 LINE",
"387 834 LINE",
"455 742 LINE",
"605 742 LINE",
"454 918 LINE",
"319 918 LINE",
"168 742 LINE"
);
}
);
width = 772;
}
);
leftKerningGroup = A;
note = Acircumflexdotbelow;
rightKerningGroup = A;
unicode = 1EAC;
},
{
glyphname = Acircumflexgrave;
lastChange = "2015-11-30 01:13:22 +0000";
layers = (
{
layerId = "6C2100B3-2BA9-4AA0-8DCB-13254C7332A5";
name = SemiBold;
paths = (
{
closed = 1;
nodes = (
"184 0 LINE",
"244 152 LINE",
"521 152 LINE",
"581 0 LINE",
"736 0 LINE",
"457 699 LINE",
"308 699 LINE",
"28 0 LINE"
);
},
{
closed = 1;
nodes = (
"382 539 LINE",
"481 273 LINE",
"283 273 LINE"
);
},
{
closed = 1;
nodes = (
"253 850 LINE",
"193 983 LINE",
"53 983 LINE",
"132 850 LINE"
);
},
{
closed = 1;
nodes = (
"320 742 LINE",
"385 818 LINE",
"450 742 LINE",
"588 742 LINE",
"443 897 LINE",
"328 897 LINE",
"183 742 LINE"
);
}
);
width = 769;
}
);
leftKerningGroup = A;
note = Acircumflexgrave;
rightKerningGroup = A;
unicode = 1EA6;
},
{
glyphname = Acircumflexhookabove;
lastChange = "2015-11-30 01:13:22 +0000";
layers = (
{
layerId = "6C2100B3-2BA9-4AA0-8DCB-13254C7332A5";
name = SemiBold;
paths = (
{
closed = 1;
nodes = (
"188 0 LINE",
"248 152 LINE",
"525 152 LINE",
"585 0 LINE",
"740 0 LINE",
"461 699 LINE",
"312 699 LINE",
"32 0 LINE"
);
},
{
closed = 1;
nodes = (
"386 539 LINE",
"485 273 LINE",
"287 273 LINE"
);
},
{
closed = 1;
nodes = (
"320 742 LINE",
"385 818 LINE",
"450 742 LINE",
"588 742 LINE",
"443 897 LINE",
"328 897 LINE",
"182 742 LINE"
);
},
{
closed = 1;
nodes = (
"613 839 LINE",
"613 863 LINE",
"652 871 OFFCURVE",
"675 895 OFFCURVE",
"675 928 CURVE SMOOTH",
"675 971 OFFCURVE",
"638 1000 OFFCURVE",
"573 1000 CURVE SMOOTH",
"547 1000 OFFCURVE",
"513 995 OFFCURVE",
"494 989 CURVE",
"494 935 LINE",
"503 939 OFFCURVE",
"520 942 OFFCURVE",
"533 942 CURVE SMOOTH",
"560 942 OFFCURVE",
"574 936 OFFCURVE",
"574 918 CURVE SMOOTH",
"574 896 OFFCURVE",
"555 889 OFFCURVE",
"519 889 CURVE",
"519 839 LINE"
);
}
);
width = 772;
}
);
leftKerningGroup = A;
note = Acircumflexhookabove;
rightKerningGroup = A;
unicode = 1EA8;
},
{
glyphname = Acircumflextilde;
lastChange = "2015-11-30 01:13:21 +0000";
layers = (
{
layerId = "6C2100B3-2BA9-4AA0-8DCB-13254C7332A5";
name = SemiBold;
paths = (
{
closed = 1;
nodes = (
"188 0 LINE",
"248 152 LINE",
"525 152 LINE",
"585 0 LINE",
"740 0 LINE",
"461 699 LINE",
"312 699 LINE",
"32 0 LINE"
);
},
{
closed = 1;
nodes = (
"386 539 LINE",
"485 273 LINE",
"287 273 LINE"
);
},
{
closed = 1;
nodes = (
"321 742 LINE",
"386 818 LINE",
"451 742 LINE",
"589 742 LINE",
"444 897 LINE",
"329 897 LINE",
"183 742 LINE"
);
},
{
closed = 1;
nodes = (
"505 908 OFFCURVE",
"532 918 OFFCURVE",
"550 942 CURVE",
"550 1038 LINE",
"528 1008 OFFCURVE",
"501 996 OFFCURVE",
"470 996 CURVE SMOOTH",
"421 996 OFFCURVE",
"364 1039 OFFCURVE",
"313 1039 CURVE SMOOTH",
"278 1039 OFFCURVE",
"251 1029 OFFCURVE",
"233 1004 CURVE",
"233 909 LINE",
"256 939 OFFCURVE",
"282 951 OFFCURVE",
"313 951 CURVE SMOOTH",
"361 951 OFFCURVE",
"415 908 OFFCURVE",
"470 908 CURVE SMOOTH"
);
}
);
width = 772;
}
);
leftKerningGroup = A;
note = Acircumflextilde;
rightKerningGroup = A;
unicode = 1EAA;
},
{
glyphname = Adieresis;
lastChange = "2015-11-30 01:13:21 +0000";
layers = (
{
layerId = "6C2100B3-2BA9-4AA0-8DCB-13254C7332A5";
name = SemiBold;
paths = (
{
closed = 1;
nodes = (
"188 0 LINE",
"248 152 LINE",
"525 152 LINE",
"585 0 LINE",
"740 0 LINE",
"461 699 LINE",
"312 699 LINE",
"32 0 LINE"
);
},
{
closed = 1;
nodes = (
"386 539 LINE",
"485 273 LINE",
"287 273 LINE"
);
},
{
closed = 1;
nodes = (
"307 752 OFFCURVE",
"339 783 OFFCURVE",
"339 823 CURVE SMOOTH",
"339 863 OFFCURVE",
"307 895 OFFCURVE",
"268 895 CURVE SMOOTH",
"229 895 OFFCURVE",
"196 863 OFFCURVE",
"196 823 CURVE SMOOTH",
"196 783 OFFCURVE",
"229 752 OFFCURVE",
"268 752 CURVE SMOOTH"
);
},
{
closed = 1;
nodes = (
"543 752 OFFCURVE",
"576 783 OFFCURVE",
"576 823 CURVE SMOOTH",
"576 863 OFFCURVE",
"543 895 OFFCURVE",
"505 895 CURVE SMOOTH",
"466 895 OFFCURVE",
"432 863 OFFCURVE",
"432 823 CURVE SMOOTH",
"432 783 OFFCURVE",
"466 752 OFFCURVE",
"505 752 CURVE SMOOTH"
);
}
);
width = 772;
}
);
leftKerningGroup = A;
note = Adieresis;
rightKerningGroup = A;
unicode = 00C4;
},
{
glyphname = Adotbelow;
lastChange = "2015-11-30 01:13:21 +0000";
layers = (
{
layerId = "6C2100B3-2BA9-4AA0-8DCB-13254C7332A5";
name = SemiBold;
paths = (
{
closed = 1;
nodes = (
"188 0 LINE",
"248 152 LINE",
"525 152 LINE",
"585 0 LINE",
"740 0 LINE",
"461 699 LINE",
"312 699 LINE",
"32 0 LINE"
);
},
{
closed = 1;
nodes = (
"426 -190 OFFCURVE",
"458 -158 OFFCURVE",
"458 -118 CURVE SMOOTH",
"458 -78 OFFCURVE",
"426 -46 OFFCURVE",
"387 -46 CURVE SMOOTH",
"348 -46 OFFCURVE",
"314 -78 OFFCURVE",
"314 -118 CURVE SMOOTH",
"314 -158 OFFCURVE",
"348 -190 OFFCURVE",
"387 -190 CURVE SMOOTH"
);
},
{
closed = 1;
nodes = (
"386 539 LINE",
"485 273 LINE",
"287 273 LINE"
);
}
);
width = 772;
}
);
leftKerningGroup = A;
note = Adotbelow;
rightKerningGroup = A;
unicode = 1EA0;
},
{
glyphname = Agrave;
lastChange = "2015-11-30 01:13:21 +0000";
layers = (
{
layerId = "6C2100B3-2BA9-4AA0-8DCB-13254C7332A5";
name = SemiBold;
paths = (
{
closed = 1;
nodes = (
"188 0 LINE",
"248 152 LINE",
"525 152 LINE",
"585 0 LINE",
"740 0 LINE",
"461 699 LINE",
"312 699 LINE",
"32 0 LINE"
);
},
{
closed = 1;
nodes = (
"386 539 LINE",
"485 273 LINE",
"287 273 LINE"
);
},
{
closed = 1;
nodes = (
"456 742 LINE",
"387 918 LINE",
"228 918 LINE",
"316 742 LINE"
);
}
);
width = 772;
}
);
leftKerningGroup = A;
note = Agrave;
rightKerningGroup = A;
unicode = 00C0;
},
{
glyphname = Ahookabove;
lastChange = "2015-11-30 01:13:21 +0000";
layers = (
{
layerId = "6C2100B3-2BA9-4AA0-8DCB-13254C7332A5";
name = SemiBold;
paths = (
{
closed = 1;
nodes = (
"188 0 LINE",
"248 152 LINE",
"525 152 LINE",
"585 0 LINE",
"740 0 LINE",
"461 699 LINE",
"312 699 LINE",
"32 0 LINE"
);
},
{
closed = 1;
nodes = (
"386 539 LINE",
"485 273 LINE",
"287 273 LINE"
);
},
{
closed = 1;
nodes = (
"453 742 LINE",
"453 771 LINE",
"510 783 OFFCURVE",
"542 821 OFFCURVE",
"542 869 CURVE SMOOTH",
"542 930 OFFCURVE",
"493 972 OFFCURVE",
"393 972 CURVE SMOOTH",
"355 972 OFFCURVE",
"310 965 OFFCURVE",
"284 957 CURVE",
"284 882 LINE",
"297 888 OFFCURVE",
"330 893 OFFCURVE",
"346 893 CURVE SMOOTH",
"389 893 OFFCURVE",
"406 882 OFFCURVE",
"406 858 CURVE SMOOTH",
"406 824 OFFCURVE",
"373 814 OFFCURVE",
"321 814 CURVE",
"321 742 LINE"
);
}
);
width = 772;
}
);
leftKerningGroup = A;
note = Ahookabove;
rightKerningGroup = A;
unicode = 1EA2;
},
{
glyphname = Amacron;
lastChange = "2015-11-30 01:13:22 +0000";
layers = (
{
layerId = "6C2100B3-2BA9-4AA0-8DCB-13254C7332A5";
name = SemiBold;
paths = (
{
closed = 1;
nodes = (
"188 0 LINE",
"248 152 LINE",
"525 152 LINE",
"585 0 LINE",
"740 0 LINE",
"461 699 LINE",
"312 699 LINE",
"32 0 LINE"
);
},
{
closed = 1;
nodes = (
"386 539 LINE",
"485 273 LINE",
"287 273 LINE"
);
},
{
closed = 1;
nodes = (
"553 752 LINE",
"553 850 LINE",
"219 850 LINE",
"219 752 LINE"
);
}
);
width = 772;
}
);
leftKerningGroup = A;
note = Amacron;
rightKerningGroup = A;
unicode = 0100;
},
{
glyphname = Aogonek;
lastChange = "2015-11-30 01:13:22 +0000";
layers = (
{
layerId = "6C2100B3-2BA9-4AA0-8DCB-13254C7332A5";
name = SemiBold;
paths = (
{
closed = 1;
nodes = (
"188 0 LINE",
"248 152 LINE",
"525 152 LINE",
"585 0 LINE",
"740 0 LINE",
"461 699 LINE",
"312 699 LINE",
"32 0 LINE"
);
},
{
closed = 1;
nodes = (
"669 -215 OFFCURVE",
"705 -209 OFFCURVE",
"728 -201 CURVE",
"728 -117 LINE",
"714 -124 OFFCURVE",
"697 -128 OFFCURVE",
"680 -128 CURVE SMOOTH",
"658 -128 OFFCURVE",
"643 -115 OFFCURVE",
"643 -92 CURVE SMOOTH",
"643 -58 OFFCURVE",
"669 -30 OFFCURVE",
"722 0 CURVE",
"584 0 LINE",
"542 -26 OFFCURVE",
"512 -67 OFFCURVE",
"512 -120 CURVE SMOOTH",
"512 -186 OFFCURVE",
"565 -215 OFFCURVE",
"633 -215 CURVE SMOOTH"
);
},
{
closed = 1;
nodes = (
"386 539 LINE",
"485 273 LINE",
"287 273 LINE"
);
}
);
width = 772;
}
);
leftKerningGroup = A;
note = Aogonek;
rightKerningGroup = A;
unicode = 0104;
},
{
glyphname = Aring;
lastChange = "2015-11-30 01:13:22 +0000";
layers = (
{
layerId = "6C2100B3-2BA9-4AA0-8DCB-13254C7332A5";
name = SemiBold;
paths = (
{
closed = 1;
nodes = (
"188 0 LINE",
"248 152 LINE",
"525 152 LINE",
"585 0 LINE",
"740 0 LINE",
"461 699 LINE",
"312 699 LINE",
"32 0 LINE"
);
},
{
closed = 1;
nodes = (
"386 539 LINE",
"485 273 LINE",
"287 273 LINE"
);
},
{
closed = 1;
nodes = (
"459 644 OFFCURVE",
"519 702 OFFCURVE",
"519 776 CURVE SMOOTH",
"519 849 OFFCURVE",
"459 908 OFFCURVE",
"386 908 CURVE SMOOTH",
"312 908 OFFCURVE",
"253 849 OFFCURVE",
"253 776 CURVE SMOOTH",
"253 702 OFFCURVE",
"312 644 OFFCURVE",
"386 644 CURVE SMOOTH"
);
},
{
closed = 1;
nodes = (
"359 727 OFFCURVE",
"337 749 OFFCURVE",
"337 776 CURVE SMOOTH",
"337 803 OFFCURVE",
"359 824 OFFCURVE",
"386 824 CURVE SMOOTH",
"413 824 OFFCURVE",
"434 803 OFFCURVE",
"434 776 CURVE SMOOTH",
"434 749 OFFCURVE",
"413 727 OFFCURVE",
"386 727 CURVE SMOOTH"
);
}
);
width = 772;
}
);
leftKerningGroup = A;
note = Aring;
rightKerningGroup = A;
unicode = 00C5;
},
{
glyphname = Aringacute;
lastChange = "2015-11-30 01:13:21 +0000";
layers = (
{
layerId = "6C2100B3-2BA9-4AA0-8DCB-13254C7332A5";
name = SemiBold;
paths = (
{
closed = 1;
nodes = (
"188 0 LINE",
"248 152 LINE",
"525 152 LINE",
"585 0 LINE",
"740 0 LINE",
"461 699 LINE",
"312 699 LINE",
"32 0 LINE"
);
},
{
closed = 1;
nodes = (
"386 539 LINE",
"485 273 LINE",
"287 273 LINE"
);
},
{
closed = 1;
nodes = (
"459 644 OFFCURVE",
"519 702 OFFCURVE",
"519 776 CURVE SMOOTH",
"519 849 OFFCURVE",
"459 908 OFFCURVE",
"386 908 CURVE SMOOTH",
"312 908 OFFCURVE",
"253 849 OFFCURVE",
"253 776 CURVE SMOOTH",
"253 702 OFFCURVE",
"312 644 OFFCURVE",
"386 644 CURVE SMOOTH"
);
},
{
closed = 1;
nodes = (
"359 727 OFFCURVE",
"337 749 OFFCURVE",
"337 776 CURVE SMOOTH",
"337 803 OFFCURVE",
"359 824 OFFCURVE",
"386 824 CURVE SMOOTH",
"413 824 OFFCURVE",
"434 803 OFFCURVE",
"434 776 CURVE SMOOTH",
"434 749 OFFCURVE",
"413 727 OFFCURVE",
"386 727 CURVE SMOOTH"
);
},
{
closed = 1;
nodes = (
"450 923 LINE",
"539 1064 LINE",
"380 1064 LINE",
"311 923 LINE"
);
}
);
width = 772;
}
);
leftKerningGroup = A;
note = Aringacute;
rightKerningGroup = A;
unicode = 01FA;
},
{
glyphname = Atilde;
lastChange = "2015-11-30 01:13:22 +0000";
layers = (
{
layerId = "6C2100B3-2BA9-4AA0-8DCB-13254C7332A5";
name = SemiBold;
paths = (
{
closed = 1;
nodes = (
"188 0 LINE",
"248 152 LINE",
"525 152 LINE",
"585 0 LINE",
"740 0 LINE",
"461 699 LINE",
"312 699 LINE",
"32 0 LINE"
);
},
{
closed = 1;
nodes = (
"386 539 LINE",
"485 273 LINE",
"287 273 LINE"
);
},
{
closed = 1;
nodes = (
"218 780 OFFCURVE",
"252 793 OFFCURVE",
"290 793 CURVE SMOOTH",
"354 793 OFFCURVE",
"410 743 OFFCURVE",
"483 743 CURVE SMOOTH",
"526 743 OFFCURVE",
"561 754 OFFCURVE",
"585 785 CURVE",
"585 900 LINE",
"556 863 OFFCURVE",
"522 850 OFFCURVE",
"483 850 CURVE SMOOTH",
"418 850 OFFCURVE",
"358 900 OFFCURVE",
"290 900 CURVE SMOOTH",
"248 900 OFFCURVE",
"211 888 OFFCURVE",
"187 857 CURVE",
"187 742 LINE"
);
}
);
width = 772;
}
);
leftKerningGroup = A;
note = Atilde;
rightKerningGroup = A;
unicode = 00C3;
},
{
glyphname = AE;
lastChange = "2015-11-30 01:13:21 +0000";
layers = (
{
layerId = "6C2100B3-2BA9-4AA0-8DCB-13254C7332A5";
name = SemiBold;
paths = (
{
closed = 1;
nodes = (
"195 0 LINE",
"267 158 LINE",
"435 158 LINE",
"435 0 LINE",
"888 0 LINE",
"888 127 LINE",
"587 127 LINE",
"587 288 LINE",
"801 288 LINE",
"801 410 LINE",
"587 410 LINE",
"587 572 LINE",
"888 572 LINE",
"888 699 LINE",
"351 699 LINE",
"32 0 LINE"
);
},
{
closed = 1;
nodes = (
"433 551 LINE",
"435 551 LINE",
"435 275 LINE",
"316 275 LINE"
);
}
);
width = 915;
}
);
leftKerningGroup = A;
note = AE;
rightKerningGroup = E;
unicode = 00C6;
},
{
glyphname = AEacute;
lastChange = "2015-11-30 01:13:21 +0000";
layers = (
{
layerId = "6C2100B3-2BA9-4AA0-8DCB-13254C7332A5";
name = SemiBold;
paths = (
{
closed = 1;
nodes = (
"195 0 LINE",
"267 158 LINE",
"435 158 LINE",
"435 0 LINE",
"888 0 LINE",
"888 127 LINE",
"587 127 LINE",
"587 288 LINE",
"801 288 LINE",
"801 410 LINE",
"587 410 LINE",
"587 572 LINE",
"888 572 LINE",
"888 699 LINE",
"351 699 LINE",
"32 0 LINE"
);
},
{
closed = 1;
nodes = (
"433 551 LINE",
"435 551 LINE",
"435 275 LINE",
"316 275 LINE"
);
},
{
closed = 1;
nodes = (
"614 742 LINE",
"703 918 LINE",
"544 918 LINE",
"475 742 LINE"
);
}
);
width = 920;
}
);
leftKerningGroup = A;
note = AEacute;
rightKerningGroup = E;
unicode = 01FC;
},
{
glyphname = B;
lastChange = "2015-11-30 01:13:22 +0000";
layers = (
{
layerId = "6C2100B3-2BA9-4AA0-8DCB-13254C7332A5";
name = SemiBold;
paths = (
{
closed = 1;
nodes = (
"412 0 LINE SMOOTH",
"531 0 OFFCURVE",
"628 75 OFFCURVE",
"628 205 CURVE SMOOTH",
"628 289 OFFCURVE",
"593 338 OFFCURVE",
"524 363 CURVE",
"574 391 OFFCURVE",
"606 445 OFFCURVE",
"606 508 CURVE SMOOTH",
"606 634 OFFCURVE",
"524 699 OFFCURVE",
"395 699 CURVE SMOOTH",
"52 699 LINE",
"52 0 LINE"
);
},
{
closed = 1;
nodes = (
"204 298 LINE",
"370 298 LINE SMOOTH",
"437 298 OFFCURVE",
"475 272 OFFCURVE",
"475 204 CURVE SMOOTH",
"475 135 OFFCURVE",
"436 116 OFFCURVE",
"375 116 CURVE SMOOTH",
"204 116 LINE"
);
},
{
closed = 1;
nodes = (
"204 583 LINE",
"361 583 LINE SMOOTH",
"417 583 OFFCURVE",
"452 567 OFFCURVE",
"452 499 CURVE SMOOTH",
"452 438 OFFCURVE",
"416 415 OFFCURVE",
"366 415 CURVE SMOOTH",
"204 415 LINE"
);
}
);
width = 661;
}
);
note = B;
unicode = 0042;
},
{
glyphname = C;
lastChange = "2015-11-30 01:13:19 +0000";
layers = (
{
layerId = "6C2100B3-2BA9-4AA0-8DCB-13254C7332A5";
name = SemiBold;
paths = (
{
closed = 1;
nodes = (
"510 -15 OFFCURVE",
"595 5 OFFCURVE",
"660 53 CURVE",
"660 197 LINE",
"594 144 OFFCURVE",
"519 123 OFFCURVE",
"423 123 CURVE SMOOTH",
"279 123 OFFCURVE",
"187 209 OFFCURVE",
"187 349 CURVE SMOOTH",
"187 488 OFFCURVE",
"277 574 OFFCURVE",
"423 574 CURVE SMOOTH",
"516 574 OFFCURVE",
"592 554 OFFCURVE",
"652 504 CURVE",
"652 648 LINE",
"586 693 OFFCURVE",
"508 714 OFFCURVE",
"410 714 CURVE SMOOTH",
"184 714 OFFCURVE",
"32 573 OFFCURVE",
"32 349 CURVE SMOOTH",
"32 125 OFFCURVE",
"184 -15 OFFCURVE",
"410 -15 CURVE SMOOTH"
);
}
);
width = 693;
}
);
leftKerningGroup = C;
note = C;
rightKerningGroup = C;
unicode = 0043;
},
{
glyphname = Cacute;
lastChange = "2015-11-30 01:13:22 +0000";
layers = (
{
layerId = "6C2100B3-2BA9-4AA0-8DCB-13254C7332A5";
name = SemiBold;
paths = (
{
closed = 1;
nodes = (
"510 -15 OFFCURVE",
"595 5 OFFCURVE",
"660 53 CURVE",
"660 197 LINE",
"594 144 OFFCURVE",
"519 123 OFFCURVE",
"423 123 CURVE SMOOTH",
"279 123 OFFCURVE",
"187 209 OFFCURVE",
"187 349 CURVE SMOOTH",
"187 488 OFFCURVE",
"277 574 OFFCURVE",
"423 574 CURVE SMOOTH",
"516 574 OFFCURVE",
"592 554 OFFCURVE",
"652 504 CURVE",
"652 648 LINE",
"586 693 OFFCURVE",
"508 714 OFFCURVE",
"410 714 CURVE SMOOTH",
"184 714 OFFCURVE",
"32 573 OFFCURVE",
"32 349 CURVE SMOOTH",
"32 125 OFFCURVE",
"184 -15 OFFCURVE",
"410 -15 CURVE SMOOTH"
);
},
{
closed = 1;
nodes = (
"473 742 LINE",
"562 918 LINE",
"403 918 LINE",
"334 742 LINE"
);
}
);
width = 693;
}
);
leftKerningGroup = C;
note = Cacute;
rightKerningGroup = C;
unicode = 0106;
},
{
glyphname = Ccaron;
lastChange = "2015-11-30 01:13:22 +0000";
layers = (
{
layerId = "6C2100B3-2BA9-4AA0-8DCB-13254C7332A5";
name = SemiBold;
paths = (
{
closed = 1;
nodes = (
"510 -15 OFFCURVE",
"595 5 OFFCURVE",
"660 53 CURVE",
"660 197 LINE",
"594 144 OFFCURVE",
"519 123 OFFCURVE",
"423 123 CURVE SMOOTH",
"279 123 OFFCURVE",
"187 209 OFFCURVE",
"187 349 CURVE SMOOTH",
"187 488 OFFCURVE",
"277 574 OFFCURVE",
"423 574 CURVE SMOOTH",
"516 574 OFFCURVE",
"592 554 OFFCURVE",
"652 504 CURVE",
"652 648 LINE",
"586 693 OFFCURVE",
"508 714 OFFCURVE",
"410 714 CURVE SMOOTH",
"184 714 OFFCURVE",
"32 573 OFFCURVE",
"32 349 CURVE SMOOTH",
"32 125 OFFCURVE",
"184 -15 OFFCURVE",
"410 -15 CURVE SMOOTH"
);
},
{
closed = 1;
nodes = (
"472 742 LINE",
"623 918 LINE",
"473 918 LINE",
"405 826 LINE",
"337 918 LINE",
"186 918 LINE",
"337 742 LINE"
);
}
);
width = 686;
}
);
leftKerningGroup = C;
note = Ccaron;
rightKerningGroup = C;
unicode = 010C;
},
{
glyphname = Ccedilla;
lastChange = "2015-11-30 01:13:21 +0000";
layers = (
{
layerId = "6C2100B3-2BA9-4AA0-8DCB-13254C7332A5";
name = SemiBold;
paths = (
{
closed = 1;
nodes = (
"510 -15 OFFCURVE",
"595 5 OFFCURVE",
"660 53 CURVE",
"660 197 LINE",
"594 144 OFFCURVE",
"519 123 OFFCURVE",
"423 123 CURVE SMOOTH",
"279 123 OFFCURVE",
"187 209 OFFCURVE",
"187 349 CURVE SMOOTH",
"187 488 OFFCURVE",
"277 574 OFFCURVE",
"423 574 CURVE SMOOTH",
"516 574 OFFCURVE",
"592 554 OFFCURVE",
"652 504 CURVE",
"652 648 LINE",
"586 693 OFFCURVE",
"508 714 OFFCURVE",
"410 714 CURVE SMOOTH",
"184 714 OFFCURVE",
"32 573 OFFCURVE",
"32 349 CURVE SMOOTH",
"32 125 OFFCURVE",
"184 -15 OFFCURVE",
"410 -15 CURVE SMOOTH"
);
},
{
closed = 1;
nodes = (
"502 -248 OFFCURVE",
"562 -214 OFFCURVE",
"562 -146 CURVE SMOOTH",
"562 -89 OFFCURVE",
"529 -57 OFFCURVE",
"473 -49 CURVE",
"492 0 LINE",
"358 0 LINE",
"324 -87 LINE",
"398 -87 OFFCURVE",
"423 -107 OFFCURVE",
"423 -134 CURVE SMOOTH",
"423 -158 OFFCURVE",
"404 -171 OFFCURVE",
"368 -171 CURVE SMOOTH",
"347 -171 OFFCURVE",
"323 -166 OFFCURVE",
"309 -158 CURVE",
"308 -235 LINE",
"328 -243 OFFCURVE",
"369 -248 OFFCURVE",
"410 -248 CURVE SMOOTH"
);
}
);
width = 693;
}
);
leftKerningGroup = C;
note = Ccedilla;
rightKerningGroup = C;
unicode = 00C7;
},
{
glyphname = Ccircumflex;
lastChange = "2015-11-30 01:13:21 +0000";
layers = (
{
layerId = "6C2100B3-2BA9-4AA0-8DCB-13254C7332A5";
name = SemiBold;
paths = (
{
closed = 1;
nodes = (
"510 -15 OFFCURVE",
"595 5 OFFCURVE",
"660 53 CURVE",
"660 197 LINE",
"594 144 OFFCURVE",
"519 123 OFFCURVE",
"423 123 CURVE SMOOTH",
"279 123 OFFCURVE",
"187 209 OFFCURVE",
"187 349 CURVE SMOOTH",
"187 488 OFFCURVE",
"277 574 OFFCURVE",
"423 574 CURVE SMOOTH",
"516 574 OFFCURVE",
"592 554 OFFCURVE",
"652 504 CURVE",
"652 648 LINE",
"586 693 OFFCURVE",
"508 714 OFFCURVE",
"410 714 CURVE SMOOTH",
"184 714 OFFCURVE",
"32 573 OFFCURVE",
"32 349 CURVE SMOOTH",
"32 125 OFFCURVE",
"184 -15 OFFCURVE",
"410 -15 CURVE SMOOTH"
);
},
{
closed = 1;
nodes = (
"331 742 LINE",
"399 834 LINE",
"467 742 LINE",
"617 742 LINE",
"466 918 LINE",
"331 918 LINE",
"180 742 LINE"
);
}
);
width = 693;
}
);
leftKerningGroup = C;
note = Ccircumflex;
rightKerningGroup = C;
unicode = 0108;
},
{
glyphname = Cdotaccent;
lastChange = "2015-11-30 01:13:22 +0000";
layers = (
{
layerId = "6C2100B3-2BA9-4AA0-8DCB-13254C7332A5";
name = SemiBold;
paths = (
{
closed = 1;
nodes = (
"510 -15 OFFCURVE",
"595 5 OFFCURVE",
"660 53 CURVE",
"660 197 LINE",
"594 144 OFFCURVE",
"519 123 OFFCURVE",
"423 123 CURVE SMOOTH",
"279 123 OFFCURVE",
"187 209 OFFCURVE",
"187 349 CURVE SMOOTH",
"187 488 OFFCURVE",
"277 574 OFFCURVE",
"423 574 CURVE SMOOTH",
"516 574 OFFCURVE",
"592 554 OFFCURVE",
"652 504 CURVE",
"652 648 LINE",
"586 693 OFFCURVE",
"508 714 OFFCURVE",
"410 714 CURVE SMOOTH",
"184 714 OFFCURVE",
"32 573 OFFCURVE",
"32 349 CURVE SMOOTH",
"32 125 OFFCURVE",
"184 -15 OFFCURVE",
"410 -15 CURVE SMOOTH"
);
},
{
closed = 1;
nodes = (
"445 752 OFFCURVE",
"477 783 OFFCURVE",
"477 823 CURVE SMOOTH",
"477 863 OFFCURVE",
"445 895 OFFCURVE",
"406 895 CURVE SMOOTH",
"367 895 OFFCURVE",
"333 863 OFFCURVE",
"333 823 CURVE SMOOTH",
"333 783 OFFCURVE",
"367 752 OFFCURVE",
"406 752 CURVE SMOOTH"
);
}
);
width = 693;
}
);
leftKerningGroup = C;
note = Cdotaccent;
rightKerningGroup = C;
unicode = 010A;
},
{
glyphname = D;
lastChange = "2015-11-30 01:13:22 +0000";
layers = (
{
layerId = "6C2100B3-2BA9-4AA0-8DCB-13254C7332A5";
name = SemiBold;
paths = (
{
closed = 1;
nodes = (
"287 0 LINE SMOOTH",
"522 0 OFFCURVE",
"671 116 OFFCURVE",
"671 353 CURVE SMOOTH",
"671 566 OFFCURVE",
"525 699 OFFCURVE",
"295 699 CURVE SMOOTH",
"52 699 LINE",
"52 0 LINE"
);
},
{
closed = 1;
nodes = (
"204 572 LINE",
"305 572 LINE SMOOTH",
"438 572 OFFCURVE",
"516 479 OFFCURVE",
"516 353 CURVE SMOOTH",
"516 214 OFFCURVE",
"440 127 OFFCURVE",
"295 127 CURVE SMOOTH",
"204 127 LINE"
);
}
);
width = 703;
}
);
note = D;
rightKerningGroup = D;
unicode = 0044;
},
{
glyphname = Eth;
lastChange = "2015-11-30 01:13:22 +0000";
layers = (
{
layerId = "6C2100B3-2BA9-4AA0-8DCB-13254C7332A5";
name = SemiBold;
paths = (
{
closed = 1;
nodes = (
"317 0 LINE SMOOTH",
"552 0 OFFCURVE",
"701 116 OFFCURVE",
"701 353 CURVE SMOOTH",
"701 566 OFFCURVE",
"555 699 OFFCURVE",
"325 699 CURVE SMOOTH",
"82 699 LINE",
"82 406 LINE",
"27 406 LINE",
"27 292 LINE",
"82 292 LINE",
"82 0 LINE"
);
},
{
closed = 1;
nodes = (
"234 292 LINE",
"392 292 LINE",
"392 406 LINE",
"234 406 LINE",
"234 572 LINE",
"335 572 LINE SMOOTH",
"468 572 OFFCURVE",
"546 479 OFFCURVE",
"546 353 CURVE SMOOTH",
"546 214 OFFCURVE",
"470 127 OFFCURVE",
"325 127 CURVE SMOOTH",
"234 127 LINE"
);
}
);
width = 733;
}
);
note = Eth;
rightKerningGroup = D;
unicode = 00D0;
},
{
glyphname = Dcaron;
lastChange = "2015-11-30 01:13:22 +0000";
layers = (
{
layerId = "6C2100B3-2BA9-4AA0-8DCB-13254C7332A5";
name = SemiBold;
paths = (
{
closed = 1;
nodes = (
"287 0 LINE SMOOTH",
"522 0 OFFCURVE",
"671 116 OFFCURVE",
"671 353 CURVE SMOOTH",
"671 566 OFFCURVE",
"525 699 OFFCURVE",
"295 699 CURVE SMOOTH",
"52 699 LINE",
"52 0 LINE"
);
},
{
closed = 1;
nodes = (
"204 572 LINE",
"305 572 LINE SMOOTH",
"438 572 OFFCURVE",
"516 479 OFFCURVE",
"516 353 CURVE SMOOTH",
"516 214 OFFCURVE",
"440 127 OFFCURVE",
"295 127 CURVE SMOOTH",
"204 127 LINE"
);
},
{
closed = 1;
nodes = (
"395 742 LINE",
"546 918 LINE",
"396 918 LINE",
"328 826 LINE",
"260 918 LINE",
"109 918 LINE",
"260 742 LINE"
);
}
);
width = 703;
}
);
note = Dcaron;
rightKerningGroup = D;
unicode = 010E;
},
{
glyphname = Dcroat;
lastChange = "2015-11-30 01:13:22 +0000";
layers = (
{
layerId = "6C2100B3-2BA9-4AA0-8DCB-13254C7332A5";
name = SemiBold;
paths = (
{
closed = 1;
nodes = (
"317 0 LINE SMOOTH",
"552 0 OFFCURVE",
"701 116 OFFCURVE",
"701 353 CURVE SMOOTH",
"701 566 OFFCURVE",
"555 699 OFFCURVE",
"325 699 CURVE SMOOTH",
"82 699 LINE",
"82 406 LINE",
"27 406 LINE",
"27 292 LINE",
"82 292 LINE",
"82 0 LINE"
);
},
{
closed = 1;
nodes = (
"234 292 LINE",
"392 292 LINE",
"392 406 LINE",
"234 406 LINE",
"234 572 LINE",
"335 572 LINE SMOOTH",
"468 572 OFFCURVE",
"546 479 OFFCURVE",
"546 353 CURVE SMOOTH",
"546 214 OFFCURVE",
"470 127 OFFCURVE",
"325 127 CURVE SMOOTH",
"234 127 LINE"
);
}
);
width = 733;
}
);
note = Dcroat;
rightKerningGroup = D;
unicode = 0110;
},
{
glyphname = Ddotbelow;
lastChange = "2015-11-30 01:13:22 +0000";
layers = (
{
layerId = "6C2100B3-2BA9-4AA0-8DCB-13254C7332A5";
name = SemiBold;
paths = (
{
closed = 1;
nodes = (
"287 0 LINE SMOOTH",
"522 0 OFFCURVE",
"671 116 OFFCURVE",
"671 353 CURVE SMOOTH",
"671 566 OFFCURVE",
"525 699 OFFCURVE",
"295 699 CURVE SMOOTH",
"52 699 LINE",
"52 0 LINE"
);
},
{
closed = 1;
nodes = (
"331 -190 OFFCURVE",
"363 -158 OFFCURVE",
"363 -118 CURVE SMOOTH",
"363 -78 OFFCURVE",
"331 -46 OFFCURVE",
"292 -46 CURVE SMOOTH",
"253 -46 OFFCURVE",
"219 -78 OFFCURVE",
"219 -118 CURVE SMOOTH",
"219 -158 OFFCURVE",
"253 -190 OFFCURVE",
"292 -190 CURVE SMOOTH"
);
},
{
closed = 1;
nodes = (
"204 572 LINE",
"305 572 LINE SMOOTH",
"438 572 OFFCURVE",
"516 479 OFFCURVE",
"516 353 CURVE SMOOTH",
"516 214 OFFCURVE",
"440 127 OFFCURVE",
"295 127 CURVE SMOOTH",
"204 127 LINE"
);
}
);
width = 703;
}
);
note = Ddotbelow;
rightKerningGroup = D;
unicode = 1E0C;
},
{
glyphname = Dlinebelow;
lastChange = "2015-11-30 01:13:22 +0000";
layers = (
{
layerId = "6C2100B3-2BA9-4AA0-8DCB-13254C7332A5";
name = SemiBold;
paths = (
{
closed = 1;
nodes = (
"287 0 LINE SMOOTH",
"522 0 OFFCURVE",
"671 116 OFFCURVE",
"671 353 CURVE SMOOTH",
"671 566 OFFCURVE",
"525 699 OFFCURVE",
"295 699 CURVE SMOOTH",
"52 699 LINE",
"52 0 LINE"
);
},
{
closed = 1;
nodes = (
"470 -162 LINE",
"470 -64 LINE",
"136 -64 LINE",
"136 -162 LINE"
);
},
{
closed = 1;
nodes = (
"204 572 LINE",
"305 572 LINE SMOOTH",
"438 572 OFFCURVE",
"516 479 OFFCURVE",
"516 353 CURVE SMOOTH",
"516 214 OFFCURVE",
"440 127 OFFCURVE",
"295 127 CURVE SMOOTH",
"204 127 LINE"
);
}
);
width = 703;
}
);
note = Dlinebelow;
rightKerningGroup = D;
unicode = 1E0E;
},
{
glyphname = E;
lastChange = "2015-11-30 01:13:19 +0000";
layers = (
{
layerId = "6C2100B3-2BA9-4AA0-8DCB-13254C7332A5";
name = SemiBold;
paths = (
{
closed = 1;
nodes = (
"537 0 LINE",
"537 127 LINE",
"204 127 LINE",
"204 288 LINE",
"449 288 LINE",
"449 410 LINE",
"204 410 LINE",
"204 572 LINE",
"537 572 LINE",
"537 699 LINE",
"52 699 LINE",
"52 0 LINE"
);
}
);
width = 559;
}
);
leftKerningGroup = E;
note = E;
rightKerningGroup = E;
unicode = 0045;
},
{
glyphname = Eacute;
lastChange = "2015-11-30 01:13:22 +0000";
layers = (
{
layerId = "6C2100B3-2BA9-4AA0-8DCB-13254C7332A5";
name = SemiBold;
paths = (
{
closed = 1;
nodes = (
"537 0 LINE",
"537 127 LINE",
"204 127 LINE",
"204 288 LINE",
"449 288 LINE",
"449 410 LINE",
"204 410 LINE",
"204 572 LINE",
"537 572 LINE",
"537 699 LINE",
"52 699 LINE",
"52 0 LINE"
);
},
{
closed = 1;
nodes = (
"350 742 LINE",
"439 918 LINE",
"280 918 LINE",
"211 742 LINE"
);
}
);
width = 559;
}
);
leftKerningGroup = E;
note = Eacute;
rightKerningGroup = E;
unicode = 00C9;
},
{
glyphname = Ebreve;
lastChange = "2015-11-30 01:13:21 +0000";
layers = (
{
layerId = "6C2100B3-2BA9-4AA0-8DCB-13254C7332A5";
name = SemiBold;
paths = (
{
closed = 1;
nodes = (
"537 0 LINE",
"537 127 LINE",
"204 127 LINE",
"204 288 LINE",
"449 288 LINE",
"449 410 LINE",
"204 410 LINE",
"204 572 LINE",
"537 572 LINE",
"537 699 LINE",
"52 699 LINE",
"52 0 LINE"
);
},
{
closed = 1;
nodes = (
"418 742 OFFCURVE",
"481 807 OFFCURVE",
"481 904 CURVE",
"368 904 LINE",
"368 862 OFFCURVE",
"346 840 OFFCURVE",
"309 840 CURVE SMOOTH",
"271 840 OFFCURVE",
"250 862 OFFCURVE",
"250 904 CURVE",
"137 904 LINE",
"137 807 OFFCURVE",
"200 742 OFFCURVE",
"309 742 CURVE SMOOTH"
);
}
);
width = 569;
}
);
leftKerningGroup = E;
note = Ebreve;
rightKerningGroup = E;
unicode = 0114;
},
{
glyphname = Ecaron;
lastChange = "2015-11-30 01:13:21 +0000";
layers = (
{
layerId = "6C2100B3-2BA9-4AA0-8DCB-13254C7332A5";
name = SemiBold;
paths = (
{
closed = 1;
nodes = (
"537 0 LINE",
"537 127 LINE",
"204 127 LINE",
"204 288 LINE",
"449 288 LINE",
"449 410 LINE",
"204 410 LINE",
"204 572 LINE",
"537 572 LINE",
"537 699 LINE",
"52 699 LINE",
"52 0 LINE"
);
},
{
closed = 1;
nodes = (
"377 742 LINE",
"528 918 LINE",
"378 918 LINE",
"310 826 LINE",
"242 918 LINE",
"91 918 LINE",
"242 742 LINE"
);
}
);
width = 569;
}
);
leftKerningGroup = E;
note = Ecaron;
rightKerningGroup = E;
unicode = 011A;
},
{
glyphname = Ecircumflex;
lastChange = "2015-11-30 01:13:21 +0000";
layers = (
{
layerId = "6C2100B3-2BA9-4AA0-8DCB-13254C7332A5";
name = SemiBold;
paths = (
{
closed = 1;
nodes = (
"537 0 LINE",
"537 127 LINE",
"204 127 LINE",
"204 288 LINE",
"449 288 LINE",
"449 410 LINE",
"204 410 LINE",
"204 572 LINE",
"537 572 LINE",
"537 699 LINE",
"52 699 LINE",
"52 0 LINE"
);
},
{
closed = 1;
nodes = (
"219 742 LINE",
"287 834 LINE",
"355 742 LINE",
"505 742 LINE",
"354 918 LINE",
"219 918 LINE",
"68 742 LINE"
);
}
);
width = 562;
}
);
leftKerningGroup = E;
note = Ecircumflex;
rightKerningGroup = E;
unicode = 00CA;
},
{
glyphname = Ecircumflexacute;
lastChange = "2015-11-30 01:13:22 +0000";
layers = (
{
layerId = "6C2100B3-2BA9-4AA0-8DCB-13254C7332A5";
name = SemiBold;
paths = (
{
closed = 1;
nodes = (
"537 0 LINE",
"537 127 LINE",
"204 127 LINE",
"204 288 LINE",
"449 288 LINE",
"449 410 LINE",
"204 410 LINE",
"204 572 LINE",
"537 572 LINE",
"537 699 LINE",
"52 699 LINE",
"52 0 LINE"
);
},
{
closed = 1;
nodes = (
"222 742 LINE",
"287 818 LINE",
"352 742 LINE",
"490 742 LINE",
"345 897 LINE",
"230 897 LINE",
"84 742 LINE"
);
},
{
closed = 1;
nodes = (
"540 850 LINE",
"619 983 LINE",
"480 983 LINE",
"420 850 LINE"
);
}
);
width = 538;
}
);
leftKerningGroup = E;
note = Ecircumflexacute;
rightKerningGroup = E;
unicode = 1EBE;
},
{
glyphname = Ecircumflexdotbelow;
lastChange = "2015-11-30 01:13:21 +0000";
layers = (
{
layerId = "6C2100B3-2BA9-4AA0-8DCB-13254C7332A5";
name = SemiBold;
paths = (
{
closed = 1;
nodes = (
"538 0 LINE",
"538 127 LINE",
"205 127 LINE",
"205 288 LINE",
"450 288 LINE",
"450 410 LINE",
"205 410 LINE",
"205 572 LINE",
"538 572 LINE",
"538 699 LINE",
"53 699 LINE",
"53 0 LINE"
);
},
{
closed = 1;
nodes = (
"339 -190 OFFCURVE",
"371 -158 OFFCURVE",
"371 -118 CURVE SMOOTH",
"371 -78 OFFCURVE",
"339 -46 OFFCURVE",
"300 -46 CURVE SMOOTH",
"261 -46 OFFCURVE",
"227 -78 OFFCURVE",
"227 -118 CURVE SMOOTH",
"227 -158 OFFCURVE",
"261 -190 OFFCURVE",
"300 -190 CURVE SMOOTH"
);
},
{
closed = 1;
nodes = (
"231 742 LINE",
"299 834 LINE",
"367 742 LINE",
"517 742 LINE",
"366 918 LINE",
"231 918 LINE",
"80 742 LINE"
);
}
);
width = 566;
}
);
leftKerningGroup = E;
note = Ecircumflexdotbelow;
rightKerningGroup = E;
unicode = 1EC6;
},
{
glyphname = Ecircumflexgrave;
lastChange = "2015-11-30 01:13:22 +0000";
layers = (
{
layerId = "6C2100B3-2BA9-4AA0-8DCB-13254C7332A5";
name = SemiBold;
paths = (
{
closed = 1;
nodes = (
"509 0 LINE",
"509 127 LINE",
"176 127 LINE",
"176 288 LINE",
"421 288 LINE",
"421 410 LINE",
"176 410 LINE",
"176 572 LINE",
"509 572 LINE",
"509 699 LINE",
"24 699 LINE",
"24 0 LINE"
);
},
{
closed = 1;
nodes = (
"143 850 LINE",
"83 983 LINE",
"-57 983 LINE",
"22 850 LINE"
);
},
{
closed = 1;
nodes = (
"210 742 LINE",
"275 818 LINE",
"340 742 LINE",
"478 742 LINE",
"333 897 LINE",
"218 897 LINE",
"73 742 LINE"
);
}
);
width = 531;
}
);
leftKerningGroup = E;
note = Ecircumflexgrave;
rightKerningGroup = E;
unicode = 1EC0;
},
{
glyphname = Ecircumflexhookabove;
lastChange = "2015-11-30 01:13:21 +0000";
layers = (
{
layerId = "6C2100B3-2BA9-4AA0-8DCB-13254C7332A5";
name = SemiBold;
paths = (
{
closed = 1;
nodes = (
"537 0 LINE",
"537 127 LINE",
"204 127 LINE",
"204 288 LINE",
"449 288 LINE",
"449 410 LINE",
"204 410 LINE",
"204 572 LINE",
"537 572 LINE",
"537 699 LINE",
"52 699 LINE",
"52 0 LINE"
);
},
{
closed = 1;
nodes = (
"232 742 LINE",
"297 818 LINE",
"362 742 LINE",
"500 742 LINE",
"355 897 LINE",
"240 897 LINE",
"94 742 LINE"
);
},
{
closed = 1;
nodes = (
"525 839 LINE",
"525 863 LINE",
"564 871 OFFCURVE",
"587 895 OFFCURVE",
"587 928 CURVE SMOOTH",
"587 971 OFFCURVE",
"550 1000 OFFCURVE",
"485 1000 CURVE SMOOTH",
"459 1000 OFFCURVE",
"425 995 OFFCURVE",
"406 989 CURVE",
"406 935 LINE",
"415 939 OFFCURVE",
"432 942 OFFCURVE",
"445 942 CURVE SMOOTH",
"472 942 OFFCURVE",
"486 936 OFFCURVE",
"486 918 CURVE SMOOTH",
"486 896 OFFCURVE",
"467 889 OFFCURVE",
"431 889 CURVE",
"431 839 LINE"
);
}
);
width = 563;
}
);
leftKerningGroup = E;
note = Ecircumflexhookabove;
rightKerningGroup = E;
unicode = 1EC2;
},
{
glyphname = Ecircumflextilde;
lastChange = "2015-11-30 01:13:22 +0000";
layers = (
{
layerId = "6C2100B3-2BA9-4AA0-8DCB-13254C7332A5";
name = SemiBold;
paths = (
{
closed = 1;
nodes = (
"537 0 LINE",
"537 127 LINE",
"204 127 LINE",
"204 288 LINE",
"449 288 LINE",
"449 410 LINE",
"204 410 LINE",
"204 572 LINE",
"537 572 LINE",
"537 699 LINE",
"52 699 LINE",
"52 0 LINE"
);
},
{
closed = 1;
nodes = (
"236 742 LINE",
"301 818 LINE",
"366 742 LINE",
"504 742 LINE",
"359 897 LINE",
"244 897 LINE",
"98 742 LINE"
);
},
{
closed = 1;
nodes = (
"420 908 OFFCURVE",
"447 918 OFFCURVE",
"465 942 CURVE",
"465 1038 LINE",
"443 1008 OFFCURVE",
"416 996 OFFCURVE",
"385 996 CURVE SMOOTH",
"336 996 OFFCURVE",
"279 1039 OFFCURVE",
"228 1039 CURVE SMOOTH",
"193 1039 OFFCURVE",
"166 1029 OFFCURVE",
"148 1004 CURVE",
"148 909 LINE",
"171 939 OFFCURVE",
"197 951 OFFCURVE",
"228 951 CURVE SMOOTH",
"276 951 OFFCURVE",
"330 908 OFFCURVE",
"385 908 CURVE SMOOTH"
);
}
);
width = 564;
}
);
leftKerningGroup = E;
note = Ecircumflextilde;
rightKerningGroup = E;
unicode = 1EC4;
},
{
glyphname = Edieresis;
lastChange = "2015-11-30 01:13:22 +0000";
layers = (
{
layerId = "6C2100B3-2BA9-4AA0-8DCB-13254C7332A5";
name = SemiBold;
paths = (
{
closed = 1;
nodes = (
"537 0 LINE",
"537 127 LINE",
"204 127 LINE",
"204 288 LINE",
"449 288 LINE",
"449 410 LINE",
"204 410 LINE",
"204 572 LINE",
"537 572 LINE",
"537 699 LINE",
"52 699 LINE",
"52 0 LINE"
);
},
{
closed = 1;
nodes = (
"214 752 OFFCURVE",
"246 783 OFFCURVE",
"246 823 CURVE SMOOTH",
"246 863 OFFCURVE",
"214 895 OFFCURVE",
"175 895 CURVE SMOOTH",
"136 895 OFFCURVE",
"103 863 OFFCURVE",
"103 823 CURVE SMOOTH",
"103 783 OFFCURVE",
"136 752 OFFCURVE",
"175 752 CURVE SMOOTH"
);
},
{
closed = 1;
nodes = (
"450 752 OFFCURVE",
"483 783 OFFCURVE",
"483 823 CURVE SMOOTH",
"483 863 OFFCURVE",
"450 895 OFFCURVE",
"412 895 CURVE SMOOTH",
"373 895 OFFCURVE",
"339 863 OFFCURVE",
"339 823 CURVE SMOOTH",
"339 783 OFFCURVE",
"373 752 OFFCURVE",
"412 752 CURVE SMOOTH"
);
}
);
width = 569;
}
);
leftKerningGroup = E;
note = Edieresis;
rightKerningGroup = E;
unicode = 00CB;
},
{
glyphname = Edotaccent;
lastChange = "2015-11-30 01:13:22 +0000";
layers = (
{
layerId = "6C2100B3-2BA9-4AA0-8DCB-13254C7332A5";
name = SemiBold;
paths = (
{
closed = 1;
nodes = (
"537 0 LINE",
"537 127 LINE",
"204 127 LINE",
"204 288 LINE",
"449 288 LINE",
"449 410 LINE",
"204 410 LINE",
"204 572 LINE",
"537 572 LINE",
"537 699 LINE",
"52 699 LINE",
"52 0 LINE"
);
},
{
closed = 1;
nodes = (
"346 752 OFFCURVE",
"378 783 OFFCURVE",
"378 823 CURVE SMOOTH",
"378 863 OFFCURVE",
"346 895 OFFCURVE",
"307 895 CURVE SMOOTH",
"268 895 OFFCURVE",
"234 863 OFFCURVE",
"234 823 CURVE SMOOTH",
"234 783 OFFCURVE",
"268 752 OFFCURVE",
"307 752 CURVE SMOOTH"
);
}
);
width = 569;
}
);
leftKerningGroup = E;
note = Edotaccent;
rightKerningGroup = E;
unicode = 0116;
},
{
glyphname = Edotbelow;
lastChange = "2015-11-30 01:13:21 +0000";
layers = (
{
layerId = "6C2100B3-2BA9-4AA0-8DCB-13254C7332A5";
name = SemiBold;
paths = (
{
closed = 1;
nodes = (
"537 0 LINE",
"537 127 LINE",
"204 127 LINE",
"204 288 LINE",
"449 288 LINE",
"449 410 LINE",
"204 410 LINE",
"204 572 LINE",
"537 572 LINE",
"537 699 LINE",
"52 699 LINE",
"52 0 LINE"
);
},
{
closed = 1;
nodes = (
"333 -190 OFFCURVE",
"365 -158 OFFCURVE",
"365 -118 CURVE SMOOTH",
"365 -78 OFFCURVE",
"333 -46 OFFCURVE",
"294 -46 CURVE SMOOTH",
"255 -46 OFFCURVE",
"221 -78 OFFCURVE",
"221 -118 CURVE SMOOTH",
"221 -158 OFFCURVE",
"255 -190 OFFCURVE",
"294 -190 CURVE SMOOTH"
);
}
);
width = 569;
}
);
leftKerningGroup = E;
note = Edotbelow;
rightKerningGroup = E;
unicode = 1EB8;
},
{
glyphname = Egrave;
lastChange = "2015-11-30 01:13:22 +0000";
layers = (
{
layerId = "6C2100B3-2BA9-4AA0-8DCB-13254C7332A5";
name = SemiBold;
paths = (
{
closed = 1;
nodes = (
"537 0 LINE",
"537 127 LINE",
"204 127 LINE",
"204 288 LINE",
"449 288 LINE",
"449 410 LINE",
"204 410 LINE",
"204 572 LINE",
"537 572 LINE",
"537 699 LINE",
"52 699 LINE",
"52 0 LINE"
);
},
{
closed = 1;
nodes = (
"370 742 LINE",
"301 918 LINE",
"142 918 LINE",
"230 742 LINE"
);
}
);
width = 569;
}
);
leftKerningGroup = E;
note = Egrave;
rightKerningGroup = E;
unicode = 00C8;
},
{
glyphname = Ehookabove;
lastChange = "2015-11-30 01:13:22 +0000";
layers = (
{
layerId = "6C2100B3-2BA9-4AA0-8DCB-13254C7332A5";
name = SemiBold;
paths = (
{
closed = 1;
nodes = (
"537 0 LINE",
"537 127 LINE",
"204 127 LINE",
"204 288 LINE",
"449 288 LINE",
"449 410 LINE",
"204 410 LINE",
"204 572 LINE",
"537 572 LINE",
"537 699 LINE",
"52 699 LINE",
"52 0 LINE"
);
},
{
closed = 1;
nodes = (
"355 742 LINE",
"355 771 LINE",
"412 783 OFFCURVE",
"444 821 OFFCURVE",
"444 869 CURVE SMOOTH",
"444 930 OFFCURVE",
"395 972 OFFCURVE",
"295 972 CURVE SMOOTH",
"257 972 OFFCURVE",
"212 965 OFFCURVE",
"186 957 CURVE",
"186 882 LINE",
"199 888 OFFCURVE",
"232 893 OFFCURVE",
"248 893 CURVE SMOOTH",
"291 893 OFFCURVE",
"308 882 OFFCURVE",
"308 858 CURVE SMOOTH",
"308 824 OFFCURVE",
"275 814 OFFCURVE",
"223 814 CURVE",
"223 742 LINE"
);
}
);
width = 569;
}
);
leftKerningGroup = E;
note = Ehookabove;
rightKerningGroup = E;
unicode = 1EBA;
},
{
glyphname = Emacron;
lastChange = "2015-11-30 01:13:21 +0000";
layers = (
{
layerId = "6C2100B3-2BA9-4AA0-8DCB-13254C7332A5";
name = SemiBold;
paths = (
{
closed = 1;
nodes = (
"537 0 LINE",
"537 127 LINE",
"204 127 LINE",
"204 288 LINE",
"449 288 LINE",
"449 410 LINE",
"204 410 LINE",
"204 572 LINE",
"537 572 LINE",
"537 699 LINE",
"52 699 LINE",
"52 0 LINE"
);
},
{
closed = 1;
nodes = (
"473 752 LINE",
"473 850 LINE",
"139 850 LINE",
"139 752 LINE"
);
}
);
width = 569;
}
);
leftKerningGroup = E;
note = Emacron;
rightKerningGroup = E;
unicode = 0112;
},
{
glyphname = Eogonek;
lastChange = "2015-11-30 01:13:21 +0000";
layers = (
{
layerId = "6C2100B3-2BA9-4AA0-8DCB-13254C7332A5";
name = SemiBold;
paths = (
{
closed = 1;
nodes = (
"537 0 LINE",
"537 127 LINE",
"204 127 LINE",
"204 288 LINE",
"449 288 LINE",
"449 410 LINE",
"204 410 LINE",
"204 572 LINE",
"537 572 LINE",
"537 699 LINE",
"52 699 LINE",
"52 0 LINE"
);
},
{
closed = 1;
nodes = (
"482 -215 OFFCURVE",
"518 -209 OFFCURVE",
"541 -201 CURVE",
"541 -117 LINE",
"527 -124 OFFCURVE",
"510 -128 OFFCURVE",
"493 -128 CURVE SMOOTH",
"471 -128 OFFCURVE",
"456 -115 OFFCURVE",
"456 -92 CURVE SMOOTH",
"456 -58 OFFCURVE",
"482 -30 OFFCURVE",
"535 0 CURVE",
"397 0 LINE",
"355 -26 OFFCURVE",
"325 -67 OFFCURVE",
"325 -120 CURVE SMOOTH",
"325 -186 OFFCURVE",
"378 -215 OFFCURVE",
"446 -215 CURVE SMOOTH"
);
}
);
width = 574;
}
);
leftKerningGroup = E;
note = Eogonek;
rightKerningGroup = E;
unicode = 0118;
},
{
glyphname = Etilde;
lastChange = "2015-11-30 01:13:22 +0000";
layers = (
{
layerId = "6C2100B3-2BA9-4AA0-8DCB-13254C7332A5";
name = SemiBold;
paths = (
{
closed = 1;
nodes = (
"537 0 LINE",
"537 127 LINE",
"204 127 LINE",
"204 288 LINE",
"449 288 LINE",
"449 410 LINE",
"204 410 LINE",
"204 572 LINE",
"537 572 LINE",
"537 699 LINE",
"52 699 LINE",
"52 0 LINE"
);
},
{
closed = 1;
nodes = (
"133 780 OFFCURVE",
"167 793 OFFCURVE",
"205 793 CURVE SMOOTH",
"269 793 OFFCURVE",
"325 743 OFFCURVE",
"398 743 CURVE SMOOTH",
"441 743 OFFCURVE",
"476 754 OFFCURVE",
"500 785 CURVE",
"500 900 LINE",
"471 863 OFFCURVE",
"437 850 OFFCURVE",
"398 850 CURVE SMOOTH",
"333 850 OFFCURVE",
"273 900 OFFCURVE",
"205 900 CURVE SMOOTH",
"163 900 OFFCURVE",
"126 888 OFFCURVE",
"102 857 CURVE",
"102 742 LINE"
);
}
);
width = 569;
}
);
leftKerningGroup = E;
note = Etilde;
rightKerningGroup = E;
unicode = 1EBC;
},
{
glyphname = F;
lastChange = "2015-11-30 01:13:19 +0000";
layers = (
{
layerId = "6C2100B3-2BA9-4AA0-8DCB-13254C7332A5";
name = SemiBold;
paths = (
{
closed = 1;
nodes = (
"204 0 LINE",
"204 291 LINE",
"449 291 LINE",
"449 408 LINE",
"204 408 LINE",
"204 571 LINE",
"537 571 LINE",
"537 699 LINE",
"52 699 LINE",
"52 0 LINE"
);
}
);
width = 549;
}
);
note = F;
unicode = 0046;
},
{
glyphname = G;
lastChange = "2015-11-30 01:13:19 +0000";
layers = (
{
layerId = "6C2100B3-2BA9-4AA0-8DCB-13254C7332A5";
name = SemiBold;
paths = (
{
closed = 1;
nodes = (
"518 -15 OFFCURVE",
"604 7 OFFCURVE",
"671 53 CURVE",
"671 390 LINE",
"411 390 LINE",
"411 278 LINE",
"524 278 LINE",
"524 143 LINE",
"495 129 OFFCURVE",
"459 121 OFFCURVE",
"416 121 CURVE SMOOTH",
"279 121 OFFCURVE",
"187 209 OFFCURVE",
"187 349 CURVE SMOOTH",
"187 488 OFFCURVE",
"290 574 OFFCURVE",
"423 574 CURVE SMOOTH",
"516 574 OFFCURVE",
"591 555 OFFCURVE",
"652 505 CURVE",
"652 650 LINE",
"586 695 OFFCURVE",
"510 714 OFFCURVE",
"410 714 CURVE SMOOTH",
"184 714 OFFCURVE",
"32 573 OFFCURVE",
"32 349 CURVE SMOOTH",
"32 125 OFFCURVE",
"184 -15 OFFCURVE",
"410 -15 CURVE SMOOTH"
);
}
);
width = 704;
}
);
leftKerningGroup = C;
note = G;
unicode = 0047;
},
{
glyphname = Gbreve;
lastChange = "2015-11-30 01:13:22 +0000";
layers = (
{
layerId = "6C2100B3-2BA9-4AA0-8DCB-13254C7332A5";
name = SemiBold;
paths = (
{
closed = 1;
nodes = (
"518 -15 OFFCURVE",
"604 7 OFFCURVE",
"671 53 CURVE",
"671 390 LINE",
"411 390 LINE",
"411 278 LINE",
"524 278 LINE",
"524 143 LINE",
"495 129 OFFCURVE",
"459 121 OFFCURVE",
"416 121 CURVE SMOOTH",
"279 121 OFFCURVE",
"187 209 OFFCURVE",
"187 349 CURVE SMOOTH",
"187 488 OFFCURVE",
"290 574 OFFCURVE",
"423 574 CURVE SMOOTH",
"516 574 OFFCURVE",
"591 555 OFFCURVE",
"652 505 CURVE",
"652 650 LINE",
"586 695 OFFCURVE",
"510 714 OFFCURVE",
"410 714 CURVE SMOOTH",
"184 714 OFFCURVE",
"32 573 OFFCURVE",
"32 349 CURVE SMOOTH",
"32 125 OFFCURVE",
"184 -15 OFFCURVE",
"410 -15 CURVE SMOOTH"
);
},
{
closed = 1;
nodes = (
"525 742 OFFCURVE",
"588 807 OFFCURVE",
"588 904 CURVE",
"475 904 LINE",
"475 862 OFFCURVE",
"453 840 OFFCURVE",
"416 840 CURVE SMOOTH",
"378 840 OFFCURVE",
"357 862 OFFCURVE",
"357 904 CURVE",
"244 904 LINE",
"244 807 OFFCURVE",
"307 742 OFFCURVE",
"416 742 CURVE SMOOTH"
);
}
);
width = 704;
}
);
leftKerningGroup = C;
note = Gbreve;
unicode = 011E;
},
{
glyphname = Gcaron;
lastChange = "2015-11-30 01:13:22 +0000";
layers = (
{
layerId = "6C2100B3-2BA9-4AA0-8DCB-13254C7332A5";
name = SemiBold;
paths = (
{
closed = 1;
nodes = (
"518 -15 OFFCURVE",
"604 7 OFFCURVE",
"671 53 CURVE",
"671 390 LINE",
"411 390 LINE",
"411 278 LINE",
"524 278 LINE",
"524 143 LINE",
"495 129 OFFCURVE",
"459 121 OFFCURVE",
"416 121 CURVE SMOOTH",
"279 121 OFFCURVE",
"187 209 OFFCURVE",
"187 349 CURVE SMOOTH",
"187 488 OFFCURVE",
"290 574 OFFCURVE",
"423 574 CURVE SMOOTH",
"516 574 OFFCURVE",
"591 555 OFFCURVE",
"652 505 CURVE",
"652 650 LINE",
"586 695 OFFCURVE",
"510 714 OFFCURVE",
"410 714 CURVE SMOOTH",
"184 714 OFFCURVE",
"32 573 OFFCURVE",
"32 349 CURVE SMOOTH",
"32 125 OFFCURVE",
"184 -15 OFFCURVE",
"410 -15 CURVE SMOOTH"
);
},
{
closed = 1;
nodes = (
"451 742 LINE",
"602 918 LINE",
"452 918 LINE",
"384 826 LINE",
"316 918 LINE",
"165 918 LINE",
"316 742 LINE"
);
}
);
width = 704;
}
);
leftKerningGroup = C;
note = Gcaron;
unicode = 01E6;
},
{
glyphname = Gcircumflex;
lastChange = "2015-11-30 01:13:22 +0000";
layers = (
{
layerId = "6C2100B3-2BA9-4AA0-8DCB-13254C7332A5";
name = SemiBold;
paths = (
{
closed = 1;
nodes = (
"518 -15 OFFCURVE",
"604 7 OFFCURVE",
"671 53 CURVE",
"671 390 LINE",
"411 390 LINE",
"411 278 LINE",
"524 278 LINE",
"524 143 LINE",
"495 129 OFFCURVE",
"459 121 OFFCURVE",
"416 121 CURVE SMOOTH",
"279 121 OFFCURVE",
"187 209 OFFCURVE",
"187 349 CURVE SMOOTH",
"187 488 OFFCURVE",
"290 574 OFFCURVE",
"423 574 CURVE SMOOTH",
"516 574 OFFCURVE",
"591 555 OFFCURVE",
"652 505 CURVE",
"652 650 LINE",
"586 695 OFFCURVE",
"510 714 OFFCURVE",
"410 714 CURVE SMOOTH",
"184 714 OFFCURVE",
"32 573 OFFCURVE",
"32 349 CURVE SMOOTH",
"32 125 OFFCURVE",
"184 -15 OFFCURVE",
"410 -15 CURVE SMOOTH"
);
},
{
closed = 1;
nodes = (
"335 742 LINE",
"403 834 LINE",
"471 742 LINE",
"621 742 LINE",
"470 918 LINE",
"335 918 LINE",
"184 742 LINE"
);
}
);
width = 704;
}
);
leftKerningGroup = C;
note = Gcircumflex;
unicode = 011C;
},
{
glyphname = Gcommaaccent;
lastChange = "2015-11-30 01:13:21 +0000";
layers = (
{
layerId = "6C2100B3-2BA9-4AA0-8DCB-13254C7332A5";
name = SemiBold;
paths = (
{
closed = 1;
nodes = (
"518 -15 OFFCURVE",
"604 7 OFFCURVE",
"671 53 CURVE",
"671 390 LINE",
"411 390 LINE",
"411 278 LINE",
"524 278 LINE",
"524 143 LINE",
"495 129 OFFCURVE",
"459 121 OFFCURVE",
"416 121 CURVE SMOOTH",
"279 121 OFFCURVE",
"187 209 OFFCURVE",
"187 349 CURVE SMOOTH",
"187 488 OFFCURVE",
"290 574 OFFCURVE",
"423 574 CURVE SMOOTH",
"516 574 OFFCURVE",
"591 555 OFFCURVE",
"652 505 CURVE",
"652 650 LINE",
"586 695 OFFCURVE",
"510 714 OFFCURVE",
"410 714 CURVE SMOOTH",
"184 714 OFFCURVE",
"32 573 OFFCURVE",
"32 349 CURVE SMOOTH",
"32 125 OFFCURVE",
"184 -15 OFFCURVE",
"410 -15 CURVE SMOOTH"
);
},
{
closed = 1;
nodes = (
"405 -260 LINE",
"506 -53 LINE",
"350 -53 LINE",
"267 -260 LINE"
);
}
);
width = 704;
}
);
leftKerningGroup = C;
note = Gcommaaccent;
unicode = 0122;
},
{
glyphname = Gdotaccent;
lastChange = "2015-11-30 01:13:21 +0000";
layers = (
{
layerId = "6C2100B3-2BA9-4AA0-8DCB-13254C7332A5";
name = SemiBold;
paths = (
{
closed = 1;
nodes = (
"518 -15 OFFCURVE",
"604 7 OFFCURVE",
"671 53 CURVE",
"671 390 LINE",
"411 390 LINE",
"411 278 LINE",
"524 278 LINE",
"524 143 LINE",
"495 129 OFFCURVE",
"459 121 OFFCURVE",
"416 121 CURVE SMOOTH",
"279 121 OFFCURVE",
"187 209 OFFCURVE",
"187 349 CURVE SMOOTH",
"187 488 OFFCURVE",
"290 574 OFFCURVE",
"423 574 CURVE SMOOTH",
"516 574 OFFCURVE",
"591 555 OFFCURVE",
"652 505 CURVE",
"652 650 LINE",
"586 695 OFFCURVE",
"510 714 OFFCURVE",
"410 714 CURVE SMOOTH",
"184 714 OFFCURVE",
"32 573 OFFCURVE",
"32 349 CURVE SMOOTH",
"32 125 OFFCURVE",
"184 -15 OFFCURVE",
"410 -15 CURVE SMOOTH"
);
},
{
closed = 1;
nodes = (
"448 752 OFFCURVE",
"480 783 OFFCURVE",
"480 823 CURVE SMOOTH",
"480 863 OFFCURVE",
"448 895 OFFCURVE",
"409 895 CURVE SMOOTH",
"370 895 OFFCURVE",
"336 863 OFFCURVE",
"336 823 CURVE SMOOTH",
"336 783 OFFCURVE",
"370 752 OFFCURVE",
"409 752 CURVE SMOOTH"
);
}
);
width = 704;
}
);
leftKerningGroup = C;
note = Gdotaccent;
unicode = 0120;
},
{
glyphname = Gmacron;
lastChange = "2015-11-30 01:13:22 +0000";
layers = (
{
layerId = "6C2100B3-2BA9-4AA0-8DCB-13254C7332A5";
name = SemiBold;
paths = (
{
closed = 1;
nodes = (
"518 -15 OFFCURVE",
"604 7 OFFCURVE",
"671 53 CURVE",
"671 390 LINE",
"411 390 LINE",
"411 278 LINE",
"524 278 LINE",
"524 143 LINE",
"495 129 OFFCURVE",
"459 121 OFFCURVE",
"416 121 CURVE SMOOTH",
"279 121 OFFCURVE",
"187 209 OFFCURVE",
"187 349 CURVE SMOOTH",
"187 488 OFFCURVE",
"290 574 OFFCURVE",
"423 574 CURVE SMOOTH",
"516 574 OFFCURVE",
"591 555 OFFCURVE",
"652 505 CURVE",
"652 650 LINE",
"586 695 OFFCURVE",
"510 714 OFFCURVE",
"410 714 CURVE SMOOTH",
"184 714 OFFCURVE",
"32 573 OFFCURVE",
"32 349 CURVE SMOOTH",
"32 125 OFFCURVE",
"184 -15 OFFCURVE",
"410 -15 CURVE SMOOTH"
);
},
{
closed = 1;
nodes = (
"579 752 LINE",
"579 850 LINE",
"245 850 LINE",
"245 752 LINE"
);
}
);
width = 704;
}
);
leftKerningGroup = C;
note = Gmacron;
unicode = 1E20;
},
{
glyphname = H;
lastChange = "2015-11-30 01:13:19 +0000";
layers = (
{
layerId = "6C2100B3-2BA9-4AA0-8DCB-13254C7332A5";
name = SemiBold;
paths = (
{
closed = 1;
nodes = (
"204 0 LINE",
"204 293 LINE",
"509 293 LINE",
"509 0 LINE",
"661 0 LINE",
"661 699 LINE",
"509 699 LINE",
"509 419 LINE",
"204 419 LINE",
"204 699 LINE",
"52 699 LINE",
"52 0 LINE"
);
}
);
width = 713;
}
);
note = H;
unicode = 0048;
},
{
glyphname = Hbar;
lastChange = "2015-11-30 01:13:21 +0000";
layers = (
{
layerId = "6C2100B3-2BA9-4AA0-8DCB-13254C7332A5";
name = SemiBold;
paths = (
{
closed = 1;
nodes = (
"227 0 LINE",
"227 287 LINE",
"524 287 LINE",
"524 0 LINE",
"680 0 LINE",
"680 499 LINE",
"729 499 LINE",
"729 619 LINE",
"680 619 LINE",
"680 699 LINE",
"524 699 LINE",
"524 619 LINE",
"227 619 LINE",
"227 699 LINE",
"71 699 LINE",
"71 619 LINE",
"27 619 LINE",
"27 499 LINE",
"71 499 LINE",
"71 0 LINE"
);
},
{
closed = 1;
nodes = (
"227 499 LINE",
"524 499 LINE",
"524 425 LINE",
"227 425 LINE"
);
}
);
width = 756;
}
);
note = Hbar;
unicode = 0126;
},
{
glyphname = Hbrevebelow;
lastChange = "2015-11-30 01:13:21 +0000";
layers = (
{
layerId = "6C2100B3-2BA9-4AA0-8DCB-13254C7332A5";
name = SemiBold;
paths = (
{
closed = 1;
nodes = (
"204 0 LINE",
"204 293 LINE",
"509 293 LINE",
"509 0 LINE",
"661 0 LINE",
"661 699 LINE",
"509 699 LINE",
"509 419 LINE",
"204 419 LINE",
"204 699 LINE",
"52 699 LINE",
"52 0 LINE"
);
},
{
closed = 1;
nodes = (
"465 -219 OFFCURVE",
"528 -154 OFFCURVE",
"528 -57 CURVE",
"415 -57 LINE",
"415 -99 OFFCURVE",
"393 -121 OFFCURVE",
"356 -121 CURVE SMOOTH",
"318 -121 OFFCURVE",
"297 -99 OFFCURVE",
"297 -57 CURVE",
"184 -57 LINE",
"184 -154 OFFCURVE",
"247 -219 OFFCURVE",
"356 -219 CURVE SMOOTH"
);
}
);
width = 713;
}
);
note = Hbrevebelow;
unicode = 1E2A;
},
{
glyphname = Hcircumflex;
lastChange = "2015-11-30 01:13:22 +0000";
layers = (
{
layerId = "6C2100B3-2BA9-4AA0-8DCB-13254C7332A5";
name = SemiBold;
paths = (
{
closed = 1;
nodes = (
"204 0 LINE",
"204 293 LINE",
"509 293 LINE",
"509 0 LINE",
"661 0 LINE",
"661 699 LINE",
"509 699 LINE",
"509 419 LINE",
"204 419 LINE",
"204 699 LINE",
"52 699 LINE",
"52 0 LINE"
);
},
{
closed = 1;
nodes = (
"289 742 LINE",
"357 834 LINE",
"425 742 LINE",
"575 742 LINE",
"424 918 LINE",
"289 918 LINE",
"138 742 LINE"
);
}
);
width = 713;
}
);
note = Hcircumflex;
unicode = 0124;
},
{
glyphname = Hdotbelow;
lastChange = "2015-11-30 01:13:21 +0000";
layers = (
{
layerId = "6C2100B3-2BA9-4AA0-8DCB-13254C7332A5";
name = SemiBold;
paths = (
{
closed = 1;
nodes = (
"204 0 LINE",
"204 293 LINE",
"509 293 LINE",
"509 0 LINE",
"661 0 LINE",
"661 699 LINE",
"509 699 LINE",
"509 419 LINE",
"204 419 LINE",
"204 699 LINE",
"52 699 LINE",
"52 0 LINE"
);
},
{
closed = 1;
nodes = (
"396 -190 OFFCURVE",
"428 -158 OFFCURVE",
"428 -118 CURVE SMOOTH",
"428 -78 OFFCURVE",
"396 -46 OFFCURVE",
"357 -46 CURVE SMOOTH",
"318 -46 OFFCURVE",
"284 -78 OFFCURVE",
"284 -118 CURVE SMOOTH",
"284 -158 OFFCURVE",
"318 -190 OFFCURVE",
"357 -190 CURVE SMOOTH"
);
}
);
width = 713;
}
);
note = Hdotbelow;
unicode = 1E24;
},
{
glyphname = I;
lastChange = "2015-11-30 01:13:19 +0000";
layers = (
{
layerId = "6C2100B3-2BA9-4AA0-8DCB-13254C7332A5";
name = SemiBold;
paths = (
{
closed = 1;
nodes = (
"204 0 LINE",
"204 699 LINE",
"52 699 LINE",
"52 0 LINE"
);
}
);
width = 257;
}
);
note = I;
unicode = 0049;
},
{
glyphname = IJ;
lastChange = "2015-11-30 01:13:22 +0000";
layers = (
{
layerId = "6C2100B3-2BA9-4AA0-8DCB-13254C7332A5";
name = SemiBold;
paths = (
{
closed = 1;
nodes = (
"525 -15 OFFCURVE",
"597 68 OFFCURVE",
"597 195 CURVE SMOOTH",
"597 699 LINE",
"445 699 LINE",
"445 209 LINE SMOOTH",
"445 148 OFFCURVE",
"416 122 OFFCURVE",
"356 122 CURVE SMOOTH",
"327 122 OFFCURVE",
"293 127 OFFCURVE",
"272 137 CURVE",
"272 6 LINE",
"296 -6 OFFCURVE",
"349 -15 OFFCURVE",
"390 -15 CURVE SMOOTH"
);
},
{
closed = 1;
nodes = (
"205 0 LINE",
"205 699 LINE",
"53 699 LINE",
"53 0 LINE"
);
}
);
width = 646;
}
);
note = IJ;
rightKerningGroup = J;
unicode = 0132;
},
{
glyphname = Iacute;
lastChange = "2015-11-30 01:13:22 +0000";
layers = (
{
layerId = "6C2100B3-2BA9-4AA0-8DCB-13254C7332A5";
name = SemiBold;
paths = (
{
closed = 1;
nodes = (
"205 0 LINE",
"205 699 LINE",
"53 699 LINE",
"53 0 LINE"
);
},
{
closed = 1;
nodes = (
"198 742 LINE",
"287 918 LINE",
"128 918 LINE",
"59 742 LINE"
);
}
);
width = 260;
}
);
note = Iacute;
unicode = 00CD;
},
{
glyphname = Ibreve;
lastChange = "2015-11-30 01:13:22 +0000";
layers = (
{
layerId = "6C2100B3-2BA9-4AA0-8DCB-13254C7332A5";
name = SemiBold;
paths = (
{
closed = 1;
nodes = (
"205 0 LINE",
"205 699 LINE",
"53 699 LINE",
"53 0 LINE"
);
},
{
closed = 1;
nodes = (
"238 742 OFFCURVE",
"301 807 OFFCURVE",
"301 904 CURVE",
"188 904 LINE",
"188 862 OFFCURVE",
"166 840 OFFCURVE",
"129 840 CURVE SMOOTH",
"91 840 OFFCURVE",
"70 862 OFFCURVE",
"70 904 CURVE",
"-43 904 LINE",
"-43 807 OFFCURVE",
"20 742 OFFCURVE",
"129 742 CURVE SMOOTH"
);
}
);
width = 260;
}
);
note = Ibreve;
unicode = 012C;
},
{
glyphname = Icaron;
lastChange = "2015-11-30 01:13:21 +0000";
layers = (
{
layerId = "6C2100B3-2BA9-4AA0-8DCB-13254C7332A5";
name = SemiBold;
paths = (
{
closed = 1;
nodes = (
"204 0 LINE",
"204 699 LINE",
"52 699 LINE",
"52 0 LINE"
);
},
{
closed = 1;
nodes = (
"196 742 LINE",
"347 918 LINE",
"197 918 LINE",
"129 826 LINE",
"61 918 LINE",
"-90 918 LINE",
"61 742 LINE"
);
}
);
width = 257;
}
);
note = Icaron;
unicode = 01CF;
},
{
glyphname = Icircumflex;
lastChange = "2015-11-30 01:13:21 +0000";
layers = (
{
layerId = "6C2100B3-2BA9-4AA0-8DCB-13254C7332A5";
name = SemiBold;
paths = (
{
closed = 1;
nodes = (
"205 0 LINE",
"205 699 LINE",
"53 699 LINE",
"53 0 LINE"
);
},
{
closed = 1;
nodes = (
"62 742 LINE",
"130 834 LINE",
"198 742 LINE",
"348 742 LINE",
"197 918 LINE",
"62 918 LINE",
"-89 742 LINE"
);
}
);
width = 260;
}
);
note = Icircumflex;
unicode = 00CE;
},
{
glyphname = Idieresis;
lastChange = "2015-11-30 01:13:21 +0000";
layers = (
{
layerId = "6C2100B3-2BA9-4AA0-8DCB-13254C7332A5";
name = SemiBold;
paths = (
{
closed = 1;
nodes = (
"205 0 LINE",
"205 699 LINE",
"53 699 LINE",
"53 0 LINE"
);
},
{
closed = 1;
nodes = (
"50 752 OFFCURVE",
"82 783 OFFCURVE",
"82 823 CURVE SMOOTH",
"82 863 OFFCURVE",
"50 895 OFFCURVE",
"11 895 CURVE SMOOTH",
"-28 895 OFFCURVE",
"-61 863 OFFCURVE",
"-61 823 CURVE SMOOTH",
"-61 783 OFFCURVE",
"-28 752 OFFCURVE",
"11 752 CURVE SMOOTH"
);
},
{
closed = 1;
nodes = (
"286 752 OFFCURVE",
"319 783 OFFCURVE",
"319 823 CURVE SMOOTH",
"319 863 OFFCURVE",
"286 895 OFFCURVE",
"248 895 CURVE SMOOTH",
"209 895 OFFCURVE",
"175 863 OFFCURVE",
"175 823 CURVE SMOOTH",
"175 783 OFFCURVE",
"209 752 OFFCURVE",
"248 752 CURVE SMOOTH"
);
}
);
width = 260;
}
);
note = Idieresis;
unicode = 00CF;
},
{
glyphname = Idotaccent;
lastChange = "2015-11-30 01:13:22 +0000";
layers = (
{
layerId = "6C2100B3-2BA9-4AA0-8DCB-13254C7332A5";
name = SemiBold;
paths = (
{
closed = 1;
nodes = (
"205 0 LINE",
"205 699 LINE",
"53 699 LINE",
"53 0 LINE"
);
},
{
closed = 1;
nodes = (
"169 752 OFFCURVE",
"201 783 OFFCURVE",
"201 823 CURVE SMOOTH",
"201 863 OFFCURVE",
"169 895 OFFCURVE",
"130 895 CURVE SMOOTH",
"91 895 OFFCURVE",
"57 863 OFFCURVE",
"57 823 CURVE SMOOTH",
"57 783 OFFCURVE",
"91 752 OFFCURVE",
"130 752 CURVE SMOOTH"
);
}
);
width = 260;
}
);
note = Idotaccent;
unicode = 0130;
},
{
glyphname = Idotbelow;
lastChange = "2015-11-30 01:13:22 +0000";
layers = (
{
layerId = "6C2100B3-2BA9-4AA0-8DCB-13254C7332A5";
name = SemiBold;
paths = (
{
closed = 1;
nodes = (
"205 0 LINE",
"205 699 LINE",
"53 699 LINE",
"53 0 LINE"
);
},
{
closed = 1;
nodes = (
"169 -190 OFFCURVE",
"201 -158 OFFCURVE",
"201 -118 CURVE SMOOTH",
"201 -78 OFFCURVE",
"169 -46 OFFCURVE",
"130 -46 CURVE SMOOTH",
"91 -46 OFFCURVE",
"57 -78 OFFCURVE",
"57 -118 CURVE SMOOTH",
"57 -158 OFFCURVE",
"91 -190 OFFCURVE",
"130 -190 CURVE SMOOTH"
);
}
);
width = 260;
}
);
note = Idotbelow;
unicode = 1ECA;
},
{
glyphname = Igrave;
lastChange = "2015-11-30 01:13:22 +0000";
layers = (
{
layerId = "6C2100B3-2BA9-4AA0-8DCB-13254C7332A5";
name = SemiBold;
paths = (
{
closed = 1;
nodes = (
"205 0 LINE",
"205 699 LINE",
"53 699 LINE",
"53 0 LINE"
);
},
{
closed = 1;
nodes = (
"200 742 LINE",
"131 918 LINE",
"-28 918 LINE",
"60 742 LINE"
);
}
);
width = 260;
}
);
note = Igrave;
unicode = 00CC;
},
{
glyphname = Ihookabove;
lastChange = "2015-11-30 01:13:22 +0000";
layers = (
{
layerId = "6C2100B3-2BA9-4AA0-8DCB-13254C7332A5";
name = SemiBold;
paths = (
{
closed = 1;
nodes = (
"205 0 LINE",
"205 699 LINE",
"53 699 LINE",
"53 0 LINE"
);
},
{
closed = 1;
nodes = (
"195 742 LINE",
"195 771 LINE",
"252 783 OFFCURVE",
"284 821 OFFCURVE",
"284 869 CURVE SMOOTH",
"284 930 OFFCURVE",
"235 972 OFFCURVE",
"135 972 CURVE SMOOTH",
"97 972 OFFCURVE",
"52 965 OFFCURVE",
"26 957 CURVE",
"26 882 LINE",
"39 888 OFFCURVE",
"72 893 OFFCURVE",
"88 893 CURVE SMOOTH",
"131 893 OFFCURVE",
"148 882 OFFCURVE",
"148 858 CURVE SMOOTH",
"148 824 OFFCURVE",
"115 814 OFFCURVE",
"63 814 CURVE",
"63 742 LINE"
);
}
);
width = 260;
}
);
note = Ihookabove;
unicode = 1EC8;
},
{
glyphname = Imacron;
lastChange = "2015-11-30 01:13:22 +0000";
layers = (
{
layerId = "6C2100B3-2BA9-4AA0-8DCB-13254C7332A5";
name = SemiBold;
paths = (
{
closed = 1;
nodes = (
"205 0 LINE",
"205 699 LINE",
"53 699 LINE",
"53 0 LINE"
);
},
{
closed = 1;
nodes = (
"302 752 LINE",
"302 850 LINE",
"-44 850 LINE",
"-44 752 LINE"
);
}
);
width = 260;
}
);
note = Imacron;
unicode = 012A;
},
{
glyphname = Iogonek;
lastChange = "2015-11-30 01:13:21 +0000";
layers = (
{
layerId = "6C2100B3-2BA9-4AA0-8DCB-13254C7332A5";
name = SemiBold;
paths = (
{
closed = 1;
nodes = (
"205 0 LINE",
"205 699 LINE",
"53 699 LINE",
"53 0 LINE"
);
},
{
closed = 1;
nodes = (
"148 -215 OFFCURVE",
"184 -209 OFFCURVE",
"207 -201 CURVE",
"207 -117 LINE",
"193 -124 OFFCURVE",
"176 -128 OFFCURVE",
"159 -128 CURVE SMOOTH",
"137 -128 OFFCURVE",
"122 -115 OFFCURVE",
"122 -92 CURVE SMOOTH",
"122 -58 OFFCURVE",
"148 -30 OFFCURVE",
"201 0 CURVE",
"63 0 LINE",
"21 -26 OFFCURVE",
"-9 -67 OFFCURVE",
"-9 -120 CURVE SMOOTH",
"-9 -186 OFFCURVE",
"44 -215 OFFCURVE",
"112 -215 CURVE SMOOTH"
);
}
);
width = 260;
}
);
note = Iogonek;
unicode = 012E;
},
{
glyphname = Itilde;
lastChange = "2015-11-30 01:13:21 +0000";
layers = (
{
layerId = "6C2100B3-2BA9-4AA0-8DCB-13254C7332A5";
name = SemiBold;
paths = (
{
closed = 1;
nodes = (
"205 0 LINE",
"205 699 LINE",
"53 699 LINE",
"53 0 LINE"
);
},
{
closed = 1;
nodes = (
"-38 780 OFFCURVE",
"-4 793 OFFCURVE",
"34 793 CURVE SMOOTH",
"98 793 OFFCURVE",
"154 743 OFFCURVE",
"227 743 CURVE SMOOTH",
"270 743 OFFCURVE",
"305 754 OFFCURVE",
"329 785 CURVE",
"329 900 LINE",
"300 863 OFFCURVE",
"266 850 OFFCURVE",
"227 850 CURVE SMOOTH",
"162 850 OFFCURVE",
"102 900 OFFCURVE",
"34 900 CURVE SMOOTH",
"-8 900 OFFCURVE",
"-45 888 OFFCURVE",
"-69 857 CURVE",
"-69 742 LINE"
);
}
);
width = 260;
}
);
note = Itilde;
unicode = 0128;
},
{
glyphname = J;
lastChange = "2015-11-30 01:13:19 +0000";
layers = (
{
layerId = "6C2100B3-2BA9-4AA0-8DCB-13254C7332A5";
name = SemiBold;
paths = (
{
closed = 1;
nodes = (
"265 -15 OFFCURVE",
"337 68 OFFCURVE",
"337 195 CURVE SMOOTH",
"337 699 LINE",
"185 699 LINE",
"185 209 LINE SMOOTH",
"185 148 OFFCURVE",
"156 122 OFFCURVE",
"96 122 CURVE SMOOTH",
"67 122 OFFCURVE",
"33 127 OFFCURVE",
"12 137 CURVE",
"12 6 LINE",
"36 -6 OFFCURVE",
"89 -15 OFFCURVE",
"130 -15 CURVE SMOOTH"
);
}
);
width = 387;
}
);
note = J;
rightKerningGroup = J;
unicode = 004A;
},
{
glyphname = Jcircumflex;
lastChange = "2015-11-30 01:13:21 +0000";
layers = (
{
layerId = "6C2100B3-2BA9-4AA0-8DCB-13254C7332A5";
name = SemiBold;
paths = (
{
closed = 1;
nodes = (
"265 -15 OFFCURVE",
"337 68 OFFCURVE",
"337 195 CURVE SMOOTH",
"337 699 LINE",
"185 699 LINE",
"185 209 LINE SMOOTH",
"185 148 OFFCURVE",
"156 122 OFFCURVE",
"96 122 CURVE SMOOTH",
"67 122 OFFCURVE",
"33 127 OFFCURVE",
"12 137 CURVE",
"12 6 LINE",
"36 -6 OFFCURVE",
"89 -15 OFFCURVE",
"130 -15 CURVE SMOOTH"
);
},
{
closed = 1;
nodes = (
"192 742 LINE",
"260 834 LINE",
"328 742 LINE",
"478 742 LINE",
"327 918 LINE",
"192 918 LINE",
"41 742 LINE"
);
}
);
width = 386;
}
);
note = Jcircumflex;
rightKerningGroup = J;
unicode = 0134;
},
{
glyphname = K;
lastChange = "2015-11-30 01:13:19 +0000";
layers = (
{
layerId = "6C2100B3-2BA9-4AA0-8DCB-13254C7332A5";
name = SemiBold;
paths = (
{
closed = 1;
nodes = (
"204 0 LINE",
"204 321 LINE",
"488 0 LINE",
"669 0 LINE",
"353 358 LINE",
"649 699 LINE",
"468 699 LINE",
"204 395 LINE",
"204 699 LINE",
"52 699 LINE",
"52 0 LINE"
);
}
);
width = 701;
}
);
leftKerningGroup = K;
note = K;
rightKerningGroup = K;
unicode = 004B;
},
{
glyphname = Kcommaaccent;
lastChange = "2015-11-30 01:13:21 +0000";
layers = (
{
layerId = "6C2100B3-2BA9-4AA0-8DCB-13254C7332A5";
name = SemiBold;
paths = (
{
closed = 1;
nodes = (
"204 0 LINE",
"204 321 LINE",
"488 0 LINE",
"669 0 LINE",
"353 358 LINE",
"649 699 LINE",
"468 699 LINE",
"204 395 LINE",
"204 699 LINE",
"52 699 LINE",
"52 0 LINE"
);
},
{
closed = 1;
nodes = (
"317 -260 LINE",
"418 -53 LINE",
"262 -53 LINE",
"179 -260 LINE"
);
}
);
width = 701;
}
);
leftKerningGroup = K;
note = Kcommaaccent;
rightKerningGroup = K;
unicode = 0136;
},
{
glyphname = L;
lastChange = "2015-11-30 01:13:19 +0000";
layers = (
{
layerId = "6C2100B3-2BA9-4AA0-8DCB-13254C7332A5";
name = SemiBold;
paths = (
{
closed = 1;
nodes = (
"524 0 LINE",
"524 127 LINE",
"204 127 LINE",
"204 699 LINE",
"52 699 LINE",
"52 0 LINE"
);
}
);
width = 537;
}
);
note = L;
rightKerningGroup = L;
unicode = 004C;
},
{
glyphname = Lacute;
lastChange = "2015-11-30 01:13:22 +0000";
layers = (
{
layerId = "6C2100B3-2BA9-4AA0-8DCB-13254C7332A5";
name = SemiBold;
paths = (
{
closed = 1;
nodes = (
"524 0 LINE",
"524 127 LINE",
"204 127 LINE",
"204 699 LINE",
"52 699 LINE",
"52 0 LINE"
);
},
{
closed = 1;
nodes = (
"200 742 LINE",
"289 918 LINE",
"130 918 LINE",
"61 742 LINE"
);
}
);
width = 537;
}
);
note = Lacute;
rightKerningGroup = L;
unicode = 0139;
},
{
glyphname = Lcaron;
lastChange = "2015-11-30 01:13:22 +0000";
layers = (
{
layerId = "6C2100B3-2BA9-4AA0-8DCB-13254C7332A5";
name = SemiBold;
paths = (
{
closed = 1;
nodes = (
"524 0 LINE",
"524 127 LINE",
"204 127 LINE",
"204 699 LINE",
"52 699 LINE",
"52 0 LINE"
);
},
{
closed = 1;
nodes = (
"432 503 LINE",
"533 710 LINE",
"377 710 LINE",
"294 503 LINE"
);
}
);
width = 533;
}
);
note = Lcaron;
rightKerningGroup = L;
unicode = 013D;
},
{
glyphname = Lcommaaccent;
lastChange = "2015-11-30 01:13:21 +0000";
layers = (
{
layerId = "6C2100B3-2BA9-4AA0-8DCB-13254C7332A5";
name = SemiBold;
paths = (
{
closed = 1;
nodes = (
"524 0 LINE",
"524 127 LINE",
"204 127 LINE",
"204 699 LINE",
"52 699 LINE",
"52 0 LINE"
);
},
{
closed = 1;
nodes = (
"280 -260 LINE",
"381 -53 LINE",
"225 -53 LINE",
"142 -260 LINE"
);
}
);
width = 537;
}
);
note = Lcommaaccent;
rightKerningGroup = L;
unicode = 013B;
},
{
glyphname = Ldot;
lastChange = "2015-11-30 01:13:22 +0000";
layers = (
{
layerId = "6C2100B3-2BA9-4AA0-8DCB-13254C7332A5";
name = SemiBold;
paths = (
{
closed = 1;
nodes = (
"524 0 LINE",
"524 127 LINE",
"204 127 LINE",
"204 699 LINE",
"52 699 LINE",
"52 0 LINE"
);
},
{
closed = 1;
nodes = (
"426 319 OFFCURVE",
"458 350 OFFCURVE",
"458 390 CURVE SMOOTH",
"458 430 OFFCURVE",
"426 462 OFFCURVE",
"387 462 CURVE SMOOTH",
"348 462 OFFCURVE",
"314 430 OFFCURVE",
"314 390 CURVE SMOOTH",
"314 350 OFFCURVE",
"348 319 OFFCURVE",
"387 319 CURVE SMOOTH"
);
}
);
width = 537;
}
);
note = Ldot;
rightKerningGroup = L;
unicode = 013F;
},
{
glyphname = Ldotbelow;
lastChange = "2015-11-30 01:13:21 +0000";
layers = (
{
layerId = "6C2100B3-2BA9-4AA0-8DCB-13254C7332A5";
name = SemiBold;
paths = (
{
closed = 1;
nodes = (
"524 0 LINE",
"524 127 LINE",
"204 127 LINE",
"204 699 LINE",
"52 699 LINE",
"52 0 LINE"
);
},
{
closed = 1;
nodes = (
"309 -190 OFFCURVE",
"341 -158 OFFCURVE",
"341 -118 CURVE SMOOTH",
"341 -78 OFFCURVE",
"309 -46 OFFCURVE",
"270 -46 CURVE SMOOTH",
"231 -46 OFFCURVE",
"197 -78 OFFCURVE",
"197 -118 CURVE SMOOTH",
"197 -158 OFFCURVE",
"231 -190 OFFCURVE",
"270 -190 CURVE SMOOTH"
);
}
);
width = 537;
}
);
note = Ldotbelow;
rightKerningGroup = L;
unicode = 1E36;
},
{
glyphname = Ldotbelowmacron;
lastChange = "2015-11-30 01:13:21 +0000";
layers = (
{
layerId = "6C2100B3-2BA9-4AA0-8DCB-13254C7332A5";
name = SemiBold;
paths = (
{
closed = 1;
nodes = (
"523 0 LINE",
"523 127 LINE",
"203 127 LINE",
"203 699 LINE",
"51 699 LINE",
"51 0 LINE"
);
},
{
closed = 1;
nodes = (
"326 -190 OFFCURVE",
"358 -158 OFFCURVE",
"358 -118 CURVE SMOOTH",
"358 -78 OFFCURVE",
"326 -46 OFFCURVE",
"287 -46 CURVE SMOOTH",
"248 -46 OFFCURVE",
"214 -78 OFFCURVE",
"214 -118 CURVE SMOOTH",
"214 -158 OFFCURVE",
"248 -190 OFFCURVE",
"287 -190 CURVE SMOOTH"
);
},
{
closed = 1;
nodes = (
"371 752 LINE",
"371 850 LINE",
"37 850 LINE",
"37 752 LINE"
);
}
);
width = 536;
}
);
note = Ldotbelowmacron;
rightKerningGroup = L;
unicode = 1E38;
},
{
glyphname = Llinebelow;
lastChange = "2015-11-30 01:13:22 +0000";
layers = (
{
layerId = "6C2100B3-2BA9-4AA0-8DCB-13254C7332A5";
name = SemiBold;
paths = (
{
closed = 1;
nodes = (
"524 0 LINE",
"524 127 LINE",
"204 127 LINE",
"204 699 LINE",
"52 699 LINE",
"52 0 LINE"
);
},
{
closed = 1;
nodes = (
"452 -162 LINE",
"452 -64 LINE",
"118 -64 LINE",
"118 -162 LINE"
);
}
);
width = 537;
}
);
note = Llinebelow;
rightKerningGroup = L;
unicode = 1E3A;
},
{
glyphname = Lslash;
lastChange = "2015-11-30 01:13:19 +0000";
layers = (
{
layerId = "6C2100B3-2BA9-4AA0-8DCB-13254C7332A5";
name = SemiBold;
paths = (
{
closed = 1;
nodes = (
"554 0 LINE",
"554 130 LINE",
"239 130 LINE",
"239 339 LINE",
"383 404 LINE",
"383 549 LINE",
"239 484 LINE",
"239 699 LINE",
"83 699 LINE",
"83 414 LINE",
"-3 376 LINE",
"-3 231 LINE",
"83 269 LINE",
"83 0 LINE"
);
}
);
width = 567;
}
);
note = Lslash;
rightKerningGroup = L;
unicode = 0141;
},
{
glyphname = M;
lastChange = "2015-11-30 01:13:19 +0000";
layers = (
{
layerId = "6C2100B3-2BA9-4AA0-8DCB-13254C7332A5";
name = SemiBold;
paths = (
{
closed = 1;
nodes = (
"198 0 LINE",
"198 397 LINE",
"382 0 LINE",
"452 0 LINE",
"637 397 LINE",
"637 0 LINE",
"782 0 LINE",
"782 699 LINE",
"633 699 LINE",
"417 231 LINE",
"202 699 LINE",
"52 699 LINE",
"52 0 LINE"
);
}
);
width = 835;
}
);
note = M;
unicode = 004D;
},
{
glyphname = Mdotbelow;
lastChange = "2015-11-30 01:13:22 +0000";
layers = (
{
layerId = "6C2100B3-2BA9-4AA0-8DCB-13254C7332A5";
name = SemiBold;
paths = (
{
closed = 1;
nodes = (
"198 0 LINE",
"198 397 LINE",
"382 0 LINE",
"452 0 LINE",
"637 397 LINE",
"637 0 LINE",
"782 0 LINE",
"782 699 LINE",
"633 699 LINE",
"417 231 LINE",
"202 699 LINE",
"52 699 LINE",
"52 0 LINE"
);
},
{
closed = 1;
nodes = (
"457 -190 OFFCURVE",
"489 -158 OFFCURVE",
"489 -118 CURVE SMOOTH",
"489 -78 OFFCURVE",
"457 -46 OFFCURVE",
"418 -46 CURVE SMOOTH",
"379 -46 OFFCURVE",
"345 -78 OFFCURVE",
"345 -118 CURVE SMOOTH",
"345 -158 OFFCURVE",
"379 -190 OFFCURVE",
"418 -190 CURVE SMOOTH"
);
}
);
width = 835;
}
);
note = Mdotbelow;
unicode = 1E42;
},
{
glyphname = N;
lastChange = "2015-11-30 01:13:19 +0000";
layers = (
{
layerId = "6C2100B3-2BA9-4AA0-8DCB-13254C7332A5";
name = SemiBold;
paths = (
{
closed = 1;
nodes = (
"204 0 LINE",
"204 452 LINE",
"497 0 LINE",
"644 0 LINE",
"644 699 LINE",
"492 699 LINE",
"492 247 LINE",
"200 699 LINE",
"52 699 LINE",
"52 0 LINE"
);
}
);
width = 696;
}
);
note = N;
unicode = 004E;
},
{
glyphname = Nacute;
lastChange = "2015-11-30 01:13:22 +0000";
layers = (
{
layerId = "6C2100B3-2BA9-4AA0-8DCB-13254C7332A5";
name = SemiBold;
paths = (
{
closed = 1;
nodes = (
"204 0 LINE",
"204 452 LINE",
"497 0 LINE",
"644 0 LINE",
"644 699 LINE",
"492 699 LINE",
"492 247 LINE",
"200 699 LINE",
"52 699 LINE",
"52 0 LINE"
);
},
{
closed = 1;
nodes = (
"410 742 LINE",
"499 918 LINE",
"340 918 LINE",
"271 742 LINE"
);
}
);
width = 696;
}
);
note = Nacute;
unicode = 0143;
},
{
glyphname = Ncaron;
lastChange = "2015-11-30 01:13:22 +0000";
layers = (
{
layerId = "6C2100B3-2BA9-4AA0-8DCB-13254C7332A5";
name = SemiBold;
paths = (
{
closed = 1;
nodes = (
"204 0 LINE",
"204 452 LINE",
"497 0 LINE",
"644 0 LINE",
"644 699 LINE",
"492 699 LINE",
"492 247 LINE",
"200 699 LINE",
"52 699 LINE",
"52 0 LINE"
);
},
{
closed = 1;
nodes = (
"417 742 LINE",
"568 918 LINE",
"418 918 LINE",
"350 826 LINE",
"282 918 LINE",
"131 918 LINE",
"282 742 LINE"
);
}
);
width = 696;
}
);
note = Ncaron;
unicode = 0147;
},
{
glyphname = Ncommaaccent;
lastChange = "2015-11-30 01:13:22 +0000";
layers = (
{
layerId = "6C2100B3-2BA9-4AA0-8DCB-13254C7332A5";
name = SemiBold;
paths = (
{
closed = 1;
nodes = (
"204 0 LINE",
"204 452 LINE",
"497 0 LINE",
"644 0 LINE",
"644 699 LINE",
"492 699 LINE",
"492 247 LINE",
"200 699 LINE",
"52 699 LINE",
"52 0 LINE"
);
},
{
closed = 1;
nodes = (
"335 -260 LINE",
"436 -53 LINE",
"280 -53 LINE",
"197 -260 LINE"
);
}
);
width = 696;
}
);
note = Ncommaaccent;
unicode = 0145;
},
{
glyphname = Ndotaccent;
lastChange = "2015-11-30 01:13:22 +0000";
layers = (
{
layerId = "6C2100B3-2BA9-4AA0-8DCB-13254C7332A5";
name = SemiBold;
paths = (
{
closed = 1;
nodes = (
"204 0 LINE",
"204 452 LINE",
"497 0 LINE",
"644 0 LINE",
"644 699 LINE",
"492 699 LINE",
"492 247 LINE",
"200 699 LINE",
"52 699 LINE",
"52 0 LINE"
);
},
{
closed = 1;
nodes = (
"396 752 OFFCURVE",
"428 783 OFFCURVE",
"428 823 CURVE SMOOTH",
"428 863 OFFCURVE",
"396 895 OFFCURVE",
"357 895 CURVE SMOOTH",
"318 895 OFFCURVE",
"284 863 OFFCURVE",
"284 823 CURVE SMOOTH",
"284 783 OFFCURVE",
"318 752 OFFCURVE",
"357 752 CURVE SMOOTH"
);
}
);
width = 696;
}
);
note = Ndotaccent;
unicode = 1E44;
},
{
glyphname = Ndotbelow;
lastChange = "2015-11-30 01:13:22 +0000";
layers = (
{
layerId = "6C2100B3-2BA9-4AA0-8DCB-13254C7332A5";
name = SemiBold;
paths = (
{
closed = 1;
nodes = (
"204 0 LINE",
"204 452 LINE",
"497 0 LINE",
"644 0 LINE",
"644 699 LINE",
"492 699 LINE",
"492 247 LINE",
"200 699 LINE",
"52 699 LINE",
"52 0 LINE"
);
},
{
closed = 1;
nodes = (
"395 -190 OFFCURVE",
"427 -158 OFFCURVE",
"427 -118 CURVE SMOOTH",
"427 -78 OFFCURVE",
"395 -46 OFFCURVE",
"356 -46 CURVE SMOOTH",
"317 -46 OFFCURVE",
"283 -78 OFFCURVE",
"283 -118 CURVE SMOOTH",
"283 -158 OFFCURVE",
"317 -190 OFFCURVE",
"356 -190 CURVE SMOOTH"
);
}
);
width = 696;
}
);
note = Ndotbelow;
unicode = 1E46;
},
{
glyphname = Eng;
lastChange = "2015-11-30 01:13:19 +0000";
layers = (
{
layerId = "6C2100B3-2BA9-4AA0-8DCB-13254C7332A5";
name = SemiBold;
paths = (
{
closed = 1;
nodes = (
"564 -231 OFFCURVE",
"650 -173 OFFCURVE",
"650 -46 CURVE SMOOTH",
"650 364 LINE",
"644 364 LINE",
"644 699 LINE",
"492 699 LINE",
"492 247 LINE",
"200 699 LINE",
"52 699 LINE",
"52 0 LINE",
"204 0 LINE",
"204 452 LINE",
"497 0 LINE",
"499 0 LINE",
"499 -29 LINE SMOOTH",
"499 -84 OFFCURVE",
"473 -108 OFFCURVE",
"423 -108 CURVE SMOOTH",
"397 -108 OFFCURVE",
"376 -103 OFFCURVE",
"358 -95 CURVE",
"358 -216 LINE",
"381 -225 OFFCURVE",
"411 -231 OFFCURVE",
"448 -231 CURVE SMOOTH"
);
}
);
width = 702;
}
);
note = Eng;
unicode = 014A;
},
{
glyphname = Nlinebelow;
lastChange = "2015-11-30 01:13:21 +0000";
layers = (
{
layerId = "6C2100B3-2BA9-4AA0-8DCB-13254C7332A5";
name = SemiBold;
paths = (
{
closed = 1;
nodes = (
"204 0 LINE",
"204 452 LINE",
"497 0 LINE",
"644 0 LINE",
"644 699 LINE",
"492 699 LINE",
"492 247 LINE",
"200 699 LINE",
"52 699 LINE",
"52 0 LINE"
);
},
{
closed = 1;
nodes = (
"526 -162 LINE",
"526 -64 LINE",
"192 -64 LINE",
"192 -162 LINE"
);
}
);
width = 696;
}
);
note = Nlinebelow;
unicode = 1E48;
},
{
glyphname = Ntilde;
lastChange = "2015-11-30 01:13:21 +0000";
layers = (
{
layerId = "6C2100B3-2BA9-4AA0-8DCB-13254C7332A5";
name = SemiBold;
paths = (
{
closed = 1;
nodes = (
"204 0 LINE",
"204 452 LINE",
"497 0 LINE",
"644 0 LINE",
"644 699 LINE",
"492 699 LINE",
"492 247 LINE",
"200 699 LINE",
"52 699 LINE",
"52 0 LINE"
);
},
{
closed = 1;
nodes = (
"188 780 OFFCURVE",
"222 793 OFFCURVE",
"260 793 CURVE SMOOTH",
"324 793 OFFCURVE",
"380 743 OFFCURVE",
"453 743 CURVE SMOOTH",
"496 743 OFFCURVE",
"531 754 OFFCURVE",
"555 785 CURVE",
"555 900 LINE",
"526 863 OFFCURVE",
"492 850 OFFCURVE",
"453 850 CURVE SMOOTH",
"388 850 OFFCURVE",
"328 900 OFFCURVE",
"260 900 CURVE SMOOTH",
"218 900 OFFCURVE",
"181 888 OFFCURVE",
"157 857 CURVE",
"157 742 LINE"
);
}
);
width = 696;
}
);
note = Ntilde;
unicode = 00D1;
},
{
glyphname = O;
lastChange = "2015-11-30 01:13:22 +0000";
layers = (
{
layerId = "6C2100B3-2BA9-4AA0-8DCB-13254C7332A5";
name = SemiBold;
paths = (
{
closed = 1;
nodes = (
"616 -15 OFFCURVE",
"778 131 OFFCURVE",
"778 349 CURVE SMOOTH",
"778 568 OFFCURVE",
"616 714 OFFCURVE",
"406 714 CURVE SMOOTH",
"195 714 OFFCURVE",
"32 568 OFFCURVE",
"32 349 CURVE SMOOTH",
"32 131 OFFCURVE",
"195 -15 OFFCURVE",
"406 -15 CURVE SMOOTH"
);
},
{
closed = 1;
nodes = (
"285 125 OFFCURVE",
"187 210 OFFCURVE",
"187 349 CURVE SMOOTH",
"187 486 OFFCURVE",
"283 572 OFFCURVE",
"406 572 CURVE SMOOTH",
"527 572 OFFCURVE",
"623 486 OFFCURVE",
"623 349 CURVE SMOOTH",
"623 210 OFFCURVE",
"525 125 OFFCURVE",
"406 125 CURVE SMOOTH"
);
}
);
width = 810;
}
);
leftKerningGroup = O;
note = O;
rightKerningGroup = O;
unicode = 004F;
},
{
glyphname = Oacute;
lastChange = "2015-11-30 01:13:21 +0000";
layers = (
{
layerId = "6C2100B3-2BA9-4AA0-8DCB-13254C7332A5";
name = SemiBold;
paths = (
{
closed = 1;
nodes = (
"616 -15 OFFCURVE",
"778 131 OFFCURVE",
"778 349 CURVE SMOOTH",
"778 568 OFFCURVE",
"616 714 OFFCURVE",
"406 714 CURVE SMOOTH",
"195 714 OFFCURVE",
"32 568 OFFCURVE",
"32 349 CURVE SMOOTH",
"32 131 OFFCURVE",
"195 -15 OFFCURVE",
"406 -15 CURVE SMOOTH"
);
},
{
closed = 1;
nodes = (
"285 125 OFFCURVE",
"187 210 OFFCURVE",
"187 349 CURVE SMOOTH",
"187 486 OFFCURVE",
"283 572 OFFCURVE",
"406 572 CURVE SMOOTH",
"527 572 OFFCURVE",
"623 486 OFFCURVE",
"623 349 CURVE SMOOTH",
"623 210 OFFCURVE",
"525 125 OFFCURVE",
"406 125 CURVE SMOOTH"
);
},
{
closed = 1;
nodes = (
"473 742 LINE",
"562 918 LINE",
"403 918 LINE",
"334 742 LINE"
);
}
);
width = 810;
}
);
leftKerningGroup = O;
note = Oacute;
rightKerningGroup = O;
unicode = 00D3;
},
{
glyphname = Obreve;
lastChange = "2015-11-30 01:13:21 +0000";
layers = (
{
layerId = "6C2100B3-2BA9-4AA0-8DCB-13254C7332A5";
name = SemiBold;
paths = (
{
closed = 1;
nodes = (
"616 -15 OFFCURVE",
"778 131 OFFCURVE",
"778 349 CURVE SMOOTH",
"778 568 OFFCURVE",
"616 714 OFFCURVE",
"406 714 CURVE SMOOTH",
"195 714 OFFCURVE",
"32 568 OFFCURVE",
"32 349 CURVE SMOOTH",
"32 131 OFFCURVE",
"195 -15 OFFCURVE",
"406 -15 CURVE SMOOTH"
);
},
{
closed = 1;
nodes = (
"285 125 OFFCURVE",
"187 210 OFFCURVE",
"187 349 CURVE SMOOTH",
"187 486 OFFCURVE",
"283 572 OFFCURVE",
"406 572 CURVE SMOOTH",
"527 572 OFFCURVE",
"623 486 OFFCURVE",
"623 349 CURVE SMOOTH",
"623 210 OFFCURVE",
"525 125 OFFCURVE",
"406 125 CURVE SMOOTH"
);
},
{
closed = 1;
nodes = (
"514 742 OFFCURVE",
"577 807 OFFCURVE",
"577 904 CURVE",
"464 904 LINE",
"464 862 OFFCURVE",
"442 840 OFFCURVE",
"405 840 CURVE SMOOTH",
"367 840 OFFCURVE",
"346 862 OFFCURVE",
"346 904 CURVE",
"233 904 LINE",
"233 807 OFFCURVE",
"296 742 OFFCURVE",
"405 742 CURVE SMOOTH"
);
}
);
width = 810;
}
);
leftKerningGroup = O;
note = Obreve;
rightKerningGroup = O;
unicode = 014E;
},
{
glyphname = Ocaron;
lastChange = "2015-11-30 01:13:21 +0000";
layers = (
{
layerId = "6C2100B3-2BA9-4AA0-8DCB-13254C7332A5";
name = SemiBold;
paths = (
{
closed = 1;
nodes = (
"616 -15 OFFCURVE",
"778 131 OFFCURVE",
"778 349 CURVE SMOOTH",
"778 568 OFFCURVE",
"616 714 OFFCURVE",
"406 714 CURVE SMOOTH",
"195 714 OFFCURVE",
"32 568 OFFCURVE",
"32 349 CURVE SMOOTH",
"32 131 OFFCURVE",
"195 -15 OFFCURVE",
"406 -15 CURVE SMOOTH"
);
},
{
closed = 1;
nodes = (
"285 125 OFFCURVE",
"187 210 OFFCURVE",
"187 349 CURVE SMOOTH",
"187 486 OFFCURVE",
"283 572 OFFCURVE",
"406 572 CURVE SMOOTH",
"527 572 OFFCURVE",
"623 486 OFFCURVE",
"623 349 CURVE SMOOTH",
"623 210 OFFCURVE",
"525 125 OFFCURVE",
"406 125 CURVE SMOOTH"
);
},
{
closed = 1;
nodes = (
"472 742 LINE",
"623 918 LINE",
"473 918 LINE",
"405 826 LINE",
"337 918 LINE",
"186 918 LINE",
"337 742 LINE"
);
}
);
width = 810;
}
);
leftKerningGroup = O;
note = Ocaron;
rightKerningGroup = O;
unicode = 01D1;
},
{
glyphname = Ocircumflex;
lastChange = "2015-11-30 01:13:21 +0000";
layers = (
{
layerId = "6C2100B3-2BA9-4AA0-8DCB-13254C7332A5";
name = SemiBold;
paths = (
{
closed = 1;
nodes = (
"616 -15 OFFCURVE",
"778 131 OFFCURVE",
"778 349 CURVE SMOOTH",
"778 568 OFFCURVE",
"616 714 OFFCURVE",
"406 714 CURVE SMOOTH",
"195 714 OFFCURVE",
"32 568 OFFCURVE",
"32 349 CURVE SMOOTH",
"32 131 OFFCURVE",
"195 -15 OFFCURVE",
"406 -15 CURVE SMOOTH"
);
},
{
closed = 1;
nodes = (
"285 125 OFFCURVE",
"187 210 OFFCURVE",
"187 349 CURVE SMOOTH",
"187 486 OFFCURVE",
"283 572 OFFCURVE",
"406 572 CURVE SMOOTH",
"527 572 OFFCURVE",
"623 486 OFFCURVE",
"623 349 CURVE SMOOTH",
"623 210 OFFCURVE",
"525 125 OFFCURVE",
"406 125 CURVE SMOOTH"
);
},
{
closed = 1;
nodes = (
"338 742 LINE",
"406 834 LINE",
"474 742 LINE",
"624 742 LINE",
"473 918 LINE",
"338 918 LINE",
"187 742 LINE"
);
}
);
width = 810;
}
);
leftKerningGroup = O;
note = Ocircumflex;
rightKerningGroup = O;
unicode = 00D4;
},
{
glyphname = Ocircumflexacute;
lastChange = "2015-11-30 01:13:21 +0000";
layers = (
{
layerId = "6C2100B3-2BA9-4AA0-8DCB-13254C7332A5";
name = SemiBold;
paths = (
{
closed = 1;
nodes = (
"616 -15 OFFCURVE",
"778 131 OFFCURVE",
"778 349 CURVE SMOOTH",
"778 568 OFFCURVE",
"616 714 OFFCURVE",
"406 714 CURVE SMOOTH",
"195 714 OFFCURVE",
"32 568 OFFCURVE",
"32 349 CURVE SMOOTH",
"32 131 OFFCURVE",
"195 -15 OFFCURVE",
"406 -15 CURVE SMOOTH"
);
},
{
closed = 1;
nodes = (
"285 125 OFFCURVE",
"187 210 OFFCURVE",
"187 349 CURVE SMOOTH",
"187 486 OFFCURVE",
"283 572 OFFCURVE",
"406 572 CURVE SMOOTH",
"527 572 OFFCURVE",
"623 486 OFFCURVE",
"623 349 CURVE SMOOTH",
"623 210 OFFCURVE",
"525 125 OFFCURVE",
"406 125 CURVE SMOOTH"
);
},
{
closed = 1;
nodes = (
"349 742 LINE",
"414 818 LINE",
"479 742 LINE",
"617 742 LINE",
"472 897 LINE",
"357 897 LINE",
"211 742 LINE"
);
},
{
closed = 1;
nodes = (
"667 850 LINE",
"746 983 LINE",
"607 983 LINE",
"547 850 LINE"
);
}
);
width = 799;
}
);
leftKerningGroup = O;
note = Ocircumflexacute;
rightKerningGroup = O;
unicode = 1ED0;
},
{
glyphname = Ocircumflexdotbelow;
lastChange = "2015-11-30 01:13:22 +0000";
layers = (
{
layerId = "6C2100B3-2BA9-4AA0-8DCB-13254C7332A5";
name = SemiBold;
paths = (
{
closed = 1;
nodes = (
"616 -15 OFFCURVE",
"778 131 OFFCURVE",
"778 349 CURVE SMOOTH",
"778 568 OFFCURVE",
"616 714 OFFCURVE",
"406 714 CURVE SMOOTH",
"195 714 OFFCURVE",
"32 568 OFFCURVE",
"32 349 CURVE SMOOTH",
"32 131 OFFCURVE",
"195 -15 OFFCURVE",
"406 -15 CURVE SMOOTH"
);
},
{
closed = 1;
nodes = (
"446 -190 OFFCURVE",
"478 -158 OFFCURVE",
"478 -118 CURVE SMOOTH",
"478 -78 OFFCURVE",
"446 -46 OFFCURVE",
"407 -46 CURVE SMOOTH",
"368 -46 OFFCURVE",
"334 -78 OFFCURVE",
"334 -118 CURVE SMOOTH",
"334 -158 OFFCURVE",
"368 -190 OFFCURVE",
"407 -190 CURVE SMOOTH"
);
},
{
closed = 1;
nodes = (
"285 125 OFFCURVE",
"187 210 OFFCURVE",
"187 349 CURVE SMOOTH",
"187 486 OFFCURVE",
"283 572 OFFCURVE",
"406 572 CURVE SMOOTH",
"527 572 OFFCURVE",
"623 486 OFFCURVE",
"623 349 CURVE SMOOTH",
"623 210 OFFCURVE",
"525 125 OFFCURVE",
"406 125 CURVE SMOOTH"
);
},
{
closed = 1;
nodes = (
"338 742 LINE",
"406 834 LINE",
"474 742 LINE",
"624 742 LINE",
"473 918 LINE",
"338 918 LINE",
"187 742 LINE"
);
}
);
width = 810;
}
);
leftKerningGroup = O;
note = Ocircumflexdotbelow;
rightKerningGroup = O;
unicode = 1ED8;
},
{
glyphname = Ocircumflexgrave;
lastChange = "2015-11-30 01:13:21 +0000";
layers = (
{
layerId = "6C2100B3-2BA9-4AA0-8DCB-13254C7332A5";
name = SemiBold;
paths = (
{
closed = 1;
nodes = (
"605 -15 OFFCURVE",
"767 131 OFFCURVE",
"767 349 CURVE SMOOTH",
"767 568 OFFCURVE",
"605 714 OFFCURVE",
"395 714 CURVE SMOOTH",
"184 714 OFFCURVE",
"21 568 OFFCURVE",
"21 349 CURVE SMOOTH",
"21 131 OFFCURVE",
"184 -15 OFFCURVE",
"395 -15 CURVE SMOOTH"
);
},
{
closed = 1;
nodes = (
"274 125 OFFCURVE",
"176 210 OFFCURVE",
"176 349 CURVE SMOOTH",
"176 486 OFFCURVE",
"272 572 OFFCURVE",
"395 572 CURVE SMOOTH",
"516 572 OFFCURVE",
"612 486 OFFCURVE",
"612 349 CURVE SMOOTH",
"612 210 OFFCURVE",
"514 125 OFFCURVE",
"395 125 CURVE SMOOTH"
);
},
{
closed = 1;
nodes = (
"266 850 LINE",
"206 983 LINE",
"66 983 LINE",
"145 850 LINE"
);
},
{
closed = 1;
nodes = (
"333 742 LINE",
"398 818 LINE",
"463 742 LINE",
"601 742 LINE",
"456 897 LINE",
"341 897 LINE",
"196 742 LINE"
);
}
);
width = 799;
}
);
leftKerningGroup = O;
note = Ocircumflexgrave;
rightKerningGroup = O;
unicode = 1ED2;
},
{
glyphname = Ocircumflexhookabove;
lastChange = "2015-11-30 01:13:22 +0000";
layers = (
{
layerId = "6C2100B3-2BA9-4AA0-8DCB-13254C7332A5";
name = SemiBold;
paths = (
{
closed = 1;
nodes = (
"616 -15 OFFCURVE",
"778 131 OFFCURVE",
"778 349 CURVE SMOOTH",
"778 568 OFFCURVE",
"616 714 OFFCURVE",
"406 714 CURVE SMOOTH",
"195 714 OFFCURVE",
"32 568 OFFCURVE",
"32 349 CURVE SMOOTH",
"32 131 OFFCURVE",
"195 -15 OFFCURVE",
"406 -15 CURVE SMOOTH"
);
},
{
closed = 1;
nodes = (
"285 125 OFFCURVE",
"187 210 OFFCURVE",
"187 349 CURVE SMOOTH",
"187 486 OFFCURVE",
"283 572 OFFCURVE",
"406 572 CURVE SMOOTH",
"527 572 OFFCURVE",
"623 486 OFFCURVE",
"623 349 CURVE SMOOTH",
"623 210 OFFCURVE",
"525 125 OFFCURVE",
"406 125 CURVE SMOOTH"
);
},
{
closed = 1;
nodes = (
"347 742 LINE",
"412 818 LINE",
"477 742 LINE",
"615 742 LINE",
"470 897 LINE",
"355 897 LINE",
"209 742 LINE"
);
},
{
closed = 1;
nodes = (
"640 839 LINE",
"640 863 LINE",
"679 871 OFFCURVE",
"702 895 OFFCURVE",
"702 928 CURVE SMOOTH",
"702 971 OFFCURVE",
"665 1000 OFFCURVE",
"600 1000 CURVE SMOOTH",
"574 1000 OFFCURVE",
"540 995 OFFCURVE",
"521 989 CURVE",
"521 935 LINE",
"530 939 OFFCURVE",
"547 942 OFFCURVE",
"560 942 CURVE SMOOTH",
"587 942 OFFCURVE",
"601 936 OFFCURVE",
"601 918 CURVE SMOOTH",
"601 896 OFFCURVE",
"582 889 OFFCURVE",
"546 889 CURVE",
"546 839 LINE"
);
}
);
width = 810;
}
);
leftKerningGroup = O;
note = Ocircumflexhookabove;
rightKerningGroup = O;
unicode = 1ED4;
},
{
glyphname = Ocircumflextilde;
lastChange = "2015-11-30 01:13:22 +0000";
layers = (
{
layerId = "6C2100B3-2BA9-4AA0-8DCB-13254C7332A5";
name = SemiBold;
paths = (
{
closed = 1;
nodes = (
"616 -15 OFFCURVE",
"778 131 OFFCURVE",
"778 349 CURVE SMOOTH",
"778 568 OFFCURVE",
"616 714 OFFCURVE",
"406 714 CURVE SMOOTH",
"195 714 OFFCURVE",
"32 568 OFFCURVE",
"32 349 CURVE SMOOTH",
"32 131 OFFCURVE",
"195 -15 OFFCURVE",
"406 -15 CURVE SMOOTH"
);
},
{
closed = 1;
nodes = (
"285 125 OFFCURVE",
"187 210 OFFCURVE",
"187 349 CURVE SMOOTH",
"187 486 OFFCURVE",
"283 572 OFFCURVE",
"406 572 CURVE SMOOTH",
"527 572 OFFCURVE",
"623 486 OFFCURVE",
"623 349 CURVE SMOOTH",
"623 210 OFFCURVE",
"525 125 OFFCURVE",
"406 125 CURVE SMOOTH"
);
},
{
closed = 1;
nodes = (
"506 742 OFFCURVE",
"569 799 OFFCURVE",
"569 890 CURVE",
"466 890 LINE",
"466 850 OFFCURVE",
"444 831 OFFCURVE",
"405 831 CURVE SMOOTH",
"365 831 OFFCURVE",
"344 850 OFFCURVE",
"344 890 CURVE",
"240 890 LINE",
"240 799 OFFCURVE",
"304 742 OFFCURVE",
"405 742 CURVE SMOOTH"
);
},
{
closed = 1;
nodes = (
"519 923 OFFCURVE",
"546 933 OFFCURVE",
"564 957 CURVE",
"564 1053 LINE",
"541 1023 OFFCURVE",
"515 1011 OFFCURVE",
"484 1011 CURVE SMOOTH",
"434 1011 OFFCURVE",
"378 1054 OFFCURVE",
"327 1054 CURVE SMOOTH",
"291 1054 OFFCURVE",
"264 1044 OFFCURVE",
"246 1019 CURVE",
"246 924 LINE",
"270 954 OFFCURVE",
"295 966 OFFCURVE",
"327 966 CURVE SMOOTH",
"375 966 OFFCURVE",
"428 923 OFFCURVE",
"484 923 CURVE SMOOTH"
);
}
);
width = 810;
}
);
leftKerningGroup = O;
note = Ocircumflextilde;
rightKerningGroup = O;
unicode = 1ED6;
},
{
glyphname = Odieresis;
lastChange = "2015-11-30 01:13:21 +0000";
layers = (
{
layerId = "6C2100B3-2BA9-4AA0-8DCB-13254C7332A5";
name = SemiBold;
paths = (
{
closed = 1;
nodes = (
"616 -15 OFFCURVE",
"778 131 OFFCURVE",
"778 349 CURVE SMOOTH",
"778 568 OFFCURVE",
"616 714 OFFCURVE",
"406 714 CURVE SMOOTH",
"195 714 OFFCURVE",
"32 568 OFFCURVE",
"32 349 CURVE SMOOTH",
"32 131 OFFCURVE",
"195 -15 OFFCURVE",
"406 -15 CURVE SMOOTH"
);
},
{
closed = 1;
nodes = (
"285 125 OFFCURVE",
"187 210 OFFCURVE",
"187 349 CURVE SMOOTH",
"187 486 OFFCURVE",
"283 572 OFFCURVE",
"406 572 CURVE SMOOTH",
"527 572 OFFCURVE",
"623 486 OFFCURVE",
"623 349 CURVE SMOOTH",
"623 210 OFFCURVE",
"525 125 OFFCURVE",
"406 125 CURVE SMOOTH"
);
},
{
closed = 1;
nodes = (
"326 752 OFFCURVE",
"358 783 OFFCURVE",
"358 823 CURVE SMOOTH",
"358 863 OFFCURVE",
"326 895 OFFCURVE",
"287 895 CURVE SMOOTH",
"248 895 OFFCURVE",
"215 863 OFFCURVE",
"215 823 CURVE SMOOTH",
"215 783 OFFCURVE",
"248 752 OFFCURVE",
"287 752 CURVE SMOOTH"
);
},
{
closed = 1;
nodes = (
"562 752 OFFCURVE",
"595 783 OFFCURVE",
"595 823 CURVE SMOOTH",
"595 863 OFFCURVE",
"562 895 OFFCURVE",
"524 895 CURVE SMOOTH",
"485 895 OFFCURVE",
"451 863 OFFCURVE",
"451 823 CURVE SMOOTH",
"451 783 OFFCURVE",
"485 752 OFFCURVE",
"524 752 CURVE SMOOTH"
);
}
);
width = 810;
}
);
leftKerningGroup = O;
note = Odieresis;
rightKerningGroup = O;
unicode = 00D6;
},
{
glyphname = Odotbelow;
lastChange = "2015-11-30 01:13:21 +0000";
layers = (
{
layerId = "6C2100B3-2BA9-4AA0-8DCB-13254C7332A5";
name = SemiBold;
paths = (
{
closed = 1;
nodes = (
"616 -15 OFFCURVE",
"778 131 OFFCURVE",
"778 349 CURVE SMOOTH",
"778 568 OFFCURVE",
"616 714 OFFCURVE",
"406 714 CURVE SMOOTH",
"195 714 OFFCURVE",
"32 568 OFFCURVE",
"32 349 CURVE SMOOTH",
"32 131 OFFCURVE",
"195 -15 OFFCURVE",
"406 -15 CURVE SMOOTH"
);
},
{
closed = 1;
nodes = (
"445 -190 OFFCURVE",
"477 -158 OFFCURVE",
"477 -118 CURVE SMOOTH",
"477 -78 OFFCURVE",
"445 -46 OFFCURVE",
"406 -46 CURVE SMOOTH",
"367 -46 OFFCURVE",
"333 -78 OFFCURVE",
"333 -118 CURVE SMOOTH",
"333 -158 OFFCURVE",
"367 -190 OFFCURVE",
"406 -190 CURVE SMOOTH"
);
},
{
closed = 1;
nodes = (
"285 125 OFFCURVE",
"187 210 OFFCURVE",
"187 349 CURVE SMOOTH",
"187 486 OFFCURVE",
"283 572 OFFCURVE",
"406 572 CURVE SMOOTH",
"527 572 OFFCURVE",
"623 486 OFFCURVE",
"623 349 CURVE SMOOTH",
"623 210 OFFCURVE",
"525 125 OFFCURVE",
"406 125 CURVE SMOOTH"
);
}
);
width = 810;
}
);
leftKerningGroup = O;
note = Odotbelow;
rightKerningGroup = O;
unicode = 1ECC;
},
{
glyphname = Ograve;
lastChange = "2015-11-30 01:13:22 +0000";
layers = (
{
layerId = "6C2100B3-2BA9-4AA0-8DCB-13254C7332A5";
name = SemiBold;
paths = (
{
closed = 1;
nodes = (
"616 -15 OFFCURVE",
"778 131 OFFCURVE",
"778 349 CURVE SMOOTH",
"778 568 OFFCURVE",
"616 714 OFFCURVE",
"406 714 CURVE SMOOTH",
"195 714 OFFCURVE",
"32 568 OFFCURVE",
"32 349 CURVE SMOOTH",
"32 131 OFFCURVE",
"195 -15 OFFCURVE",
"406 -15 CURVE SMOOTH"
);
},
{
closed = 1;
nodes = (
"285 125 OFFCURVE",
"187 210 OFFCURVE",
"187 349 CURVE SMOOTH",
"187 486 OFFCURVE",
"283 572 OFFCURVE",
"406 572 CURVE SMOOTH",
"527 572 OFFCURVE",
"623 486 OFFCURVE",
"623 349 CURVE SMOOTH",
"623 210 OFFCURVE",
"525 125 OFFCURVE",
"406 125 CURVE SMOOTH"
);
},
{
closed = 1;
nodes = (
"490 742 LINE",
"421 918 LINE",
"262 918 LINE",
"350 742 LINE"
);
}
);
width = 810;
}
);
leftKerningGroup = O;
note = Ograve;
rightKerningGroup = O;
unicode = 00D2;
},
{
glyphname = Ohookabove;
lastChange = "2015-11-30 01:13:21 +0000";
layers = (
{
layerId = "6C2100B3-2BA9-4AA0-8DCB-13254C7332A5";
name = SemiBold;
paths = (
{
closed = 1;
nodes = (
"616 -15 OFFCURVE",
"778 131 OFFCURVE",
"778 349 CURVE SMOOTH",
"778 568 OFFCURVE",
"616 714 OFFCURVE",
"406 714 CURVE SMOOTH",
"195 714 OFFCURVE",
"32 568 OFFCURVE",
"32 349 CURVE SMOOTH",
"32 131 OFFCURVE",
"195 -15 OFFCURVE",
"406 -15 CURVE SMOOTH"
);
},
{
closed = 1;
nodes = (
"285 125 OFFCURVE",
"187 210 OFFCURVE",
"187 349 CURVE SMOOTH",
"187 486 OFFCURVE",
"283 572 OFFCURVE",
"406 572 CURVE SMOOTH",
"527 572 OFFCURVE",
"623 486 OFFCURVE",
"623 349 CURVE SMOOTH",
"623 210 OFFCURVE",
"525 125 OFFCURVE",
"406 125 CURVE SMOOTH"
);
},
{
closed = 1;
nodes = (
"468 742 LINE",
"468 771 LINE",
"525 783 OFFCURVE",
"557 821 OFFCURVE",
"557 869 CURVE SMOOTH",
"557 930 OFFCURVE",
"508 972 OFFCURVE",
"408 972 CURVE SMOOTH",
"370 972 OFFCURVE",
"325 965 OFFCURVE",
"299 957 CURVE",
"299 882 LINE",
"312 888 OFFCURVE",
"345 893 OFFCURVE",
"361 893 CURVE SMOOTH",
"404 893 OFFCURVE",
"421 882 OFFCURVE",
"421 858 CURVE SMOOTH",
"421 824 OFFCURVE",
"388 814 OFFCURVE",
"336 814 CURVE",
"336 742 LINE"
);
}
);
width = 810;
}
);
leftKerningGroup = O;
note = Ohookabove;
rightKerningGroup = O;
unicode = 1ECE;
},
{
glyphname = Ohorn;
lastChange = "2015-11-30 01:13:21 +0000";
layers = (
{
layerId = "6C2100B3-2BA9-4AA0-8DCB-13254C7332A5";
name = SemiBold;
paths = (
{
closed = 1;
nodes = (
"616 -15 OFFCURVE",
"778 131 OFFCURVE",
"778 349 CURVE SMOOTH",
"778 413 OFFCURVE",
"764 471 OFFCURVE",
"739 521 CURVE",
"827 542 OFFCURVE",
"876 614 OFFCURVE",
"876 703 CURVE SMOOTH",
"876 747 LINE",
"744 747 LINE",
"744 712 LINE SMOOTH",
"744 652 OFFCURVE",
"724 628 OFFCURVE",
"656 627 CURVE",
"590 682 OFFCURVE",
"503 714 OFFCURVE",
"406 714 CURVE SMOOTH",
"195 714 OFFCURVE",
"32 568 OFFCURVE",
"32 349 CURVE SMOOTH",
"32 131 OFFCURVE",
"195 -15 OFFCURVE",
"406 -15 CURVE SMOOTH"
);
},
{
closed = 1;
nodes = (
"288 131 OFFCURVE",
"193 214 OFFCURVE",
"193 349 CURVE SMOOTH",
"193 482 OFFCURVE",
"286 566 OFFCURVE",
"406 566 CURVE SMOOTH",
"524 566 OFFCURVE",
"617 482 OFFCURVE",
"617 349 CURVE SMOOTH",
"617 214 OFFCURVE",
"522 131 OFFCURVE",
"406 131 CURVE SMOOTH"
);
}
);
width = 884;
}
);
leftKerningGroup = O;
note = Ohorn;
rightKerningGroup = O;
unicode = 01A0;
},
{
glyphname = Ohornacute;
lastChange = "2015-11-30 01:13:22 +0000";
layers = (
{
layerId = "6C2100B3-2BA9-4AA0-8DCB-13254C7332A5";
name = SemiBold;
paths = (
{
closed = 1;
nodes = (
"616 -15 OFFCURVE",
"778 131 OFFCURVE",
"778 349 CURVE SMOOTH",
"778 413 OFFCURVE",
"764 471 OFFCURVE",
"739 521 CURVE",
"827 542 OFFCURVE",
"876 614 OFFCURVE",
"876 703 CURVE SMOOTH",
"876 747 LINE",
"744 747 LINE",
"744 712 LINE SMOOTH",
"744 652 OFFCURVE",
"724 628 OFFCURVE",
"656 627 CURVE",
"590 682 OFFCURVE",
"503 714 OFFCURVE",
"406 714 CURVE SMOOTH",
"195 714 OFFCURVE",
"32 568 OFFCURVE",
"32 349 CURVE SMOOTH",
"32 131 OFFCURVE",
"195 -15 OFFCURVE",
"406 -15 CURVE SMOOTH"
);
},
{
closed = 1;
nodes = (
"288 131 OFFCURVE",
"193 214 OFFCURVE",
"193 349 CURVE SMOOTH",
"193 482 OFFCURVE",
"286 566 OFFCURVE",
"406 566 CURVE SMOOTH",
"524 566 OFFCURVE",
"617 482 OFFCURVE",
"617 349 CURVE SMOOTH",
"617 214 OFFCURVE",
"522 131 OFFCURVE",
"406 131 CURVE SMOOTH"
);
},
{
closed = 1;
nodes = (
"482 742 LINE",
"571 918 LINE",
"412 918 LINE",
"343 742 LINE"
);
}
);
width = 884;
}
);
leftKerningGroup = O;
note = Ohornacute;
rightKerningGroup = O;
unicode = 1EDA;
},
{
glyphname = Ohorndotbelow;
lastChange = "2015-11-30 01:13:21 +0000";
layers = (
{
layerId = "6C2100B3-2BA9-4AA0-8DCB-13254C7332A5";
name = SemiBold;
paths = (
{
closed = 1;
nodes = (
"616 -15 OFFCURVE",
"778 131 OFFCURVE",
"778 349 CURVE SMOOTH",
"778 413 OFFCURVE",
"764 471 OFFCURVE",
"739 521 CURVE",
"827 542 OFFCURVE",
"876 614 OFFCURVE",
"876 703 CURVE SMOOTH",
"876 747 LINE",
"744 747 LINE",
"744 712 LINE SMOOTH",
"744 652 OFFCURVE",
"724 628 OFFCURVE",
"656 627 CURVE",
"590 682 OFFCURVE",
"503 714 OFFCURVE",
"406 714 CURVE SMOOTH",
"195 714 OFFCURVE",
"32 568 OFFCURVE",
"32 349 CURVE SMOOTH",
"32 131 OFFCURVE",
"195 -15 OFFCURVE",
"406 -15 CURVE SMOOTH"
);
},
{
closed = 1;
nodes = (
"448 -190 OFFCURVE",
"480 -158 OFFCURVE",
"480 -118 CURVE SMOOTH",
"480 -78 OFFCURVE",
"448 -46 OFFCURVE",
"409 -46 CURVE SMOOTH",
"370 -46 OFFCURVE",
"336 -78 OFFCURVE",
"336 -118 CURVE SMOOTH",
"336 -158 OFFCURVE",
"370 -190 OFFCURVE",
"409 -190 CURVE SMOOTH"
);
},
{
closed = 1;
nodes = (
"288 131 OFFCURVE",
"193 214 OFFCURVE",
"193 349 CURVE SMOOTH",
"193 482 OFFCURVE",
"286 566 OFFCURVE",
"406 566 CURVE SMOOTH",
"524 566 OFFCURVE",
"617 482 OFFCURVE",
"617 349 CURVE SMOOTH",
"617 214 OFFCURVE",
"522 131 OFFCURVE",
"406 131 CURVE SMOOTH"
);
}
);
width = 884;
}
);
leftKerningGroup = O;
note = Ohorndotbelow;
rightKerningGroup = O;
unicode = 1EE2;
},
{
glyphname = Ohorngrave;
lastChange = "2015-11-30 01:13:22 +0000";
layers = (
{
layerId = "6C2100B3-2BA9-4AA0-8DCB-13254C7332A5";
name = SemiBold;
paths = (
{
closed = 1;
nodes = (
"616 -15 OFFCURVE",
"778 131 OFFCURVE",
"778 349 CURVE SMOOTH",
"778 413 OFFCURVE",
"764 471 OFFCURVE",
"739 521 CURVE",
"827 542 OFFCURVE",
"876 614 OFFCURVE",
"876 703 CURVE SMOOTH",
"876 747 LINE",
"744 747 LINE",
"744 712 LINE SMOOTH",
"744 652 OFFCURVE",
"724 628 OFFCURVE",
"656 627 CURVE",
"590 682 OFFCURVE",
"503 714 OFFCURVE",
"406 714 CURVE SMOOTH",
"195 714 OFFCURVE",
"32 568 OFFCURVE",
"32 349 CURVE SMOOTH",
"32 131 OFFCURVE",
"195 -15 OFFCURVE",
"406 -15 CURVE SMOOTH"
);
},
{
closed = 1;
nodes = (
"288 131 OFFCURVE",
"193 214 OFFCURVE",
"193 349 CURVE SMOOTH",
"193 482 OFFCURVE",
"286 566 OFFCURVE",
"406 566 CURVE SMOOTH",
"524 566 OFFCURVE",
"617 482 OFFCURVE",
"617 349 CURVE SMOOTH",
"617 214 OFFCURVE",
"522 131 OFFCURVE",
"406 131 CURVE SMOOTH"
);
},
{
closed = 1;
nodes = (
"473 742 LINE",
"404 918 LINE",
"245 918 LINE",
"333 742 LINE"
);
}
);
width = 884;
}
);
leftKerningGroup = O;
note = Ohorngrave;
rightKerningGroup = O;
unicode = 1EDC;
},
{
glyphname = Ohornhookabove;
lastChange = "2015-11-30 01:13:21 +0000";
layers = (
{
layerId = "6C2100B3-2BA9-4AA0-8DCB-13254C7332A5";
name = SemiBold;
paths = (
{
closed = 1;
nodes = (
"616 -15 OFFCURVE",
"778 131 OFFCURVE",
"778 349 CURVE SMOOTH",
"778 413 OFFCURVE",
"764 471 OFFCURVE",
"739 521 CURVE",
"827 542 OFFCURVE",
"876 614 OFFCURVE",
"876 703 CURVE SMOOTH",
"876 747 LINE",
"744 747 LINE",
"744 712 LINE SMOOTH",
"744 652 OFFCURVE",
"724 628 OFFCURVE",
"656 627 CURVE",
"590 682 OFFCURVE",
"503 714 OFFCURVE",
"406 714 CURVE SMOOTH",
"195 714 OFFCURVE",
"32 568 OFFCURVE",
"32 349 CURVE SMOOTH",
"32 131 OFFCURVE",
"195 -15 OFFCURVE",
"406 -15 CURVE SMOOTH"
);
},
{
closed = 1;
nodes = (
"288 131 OFFCURVE",
"193 214 OFFCURVE",
"193 349 CURVE SMOOTH",
"193 482 OFFCURVE",
"286 566 OFFCURVE",
"406 566 CURVE SMOOTH",
"524 566 OFFCURVE",
"617 482 OFFCURVE",
"617 349 CURVE SMOOTH",
"617 214 OFFCURVE",
"522 131 OFFCURVE",
"406 131 CURVE SMOOTH"
);
},
{
closed = 1;
nodes = (
"475 742 LINE",
"475 771 LINE",
"532 783 OFFCURVE",
"564 821 OFFCURVE",
"564 869 CURVE SMOOTH",
"564 930 OFFCURVE",
"515 972 OFFCURVE",
"415 972 CURVE SMOOTH",
"377 972 OFFCURVE",
"332 965 OFFCURVE",
"306 957 CURVE",
"306 882 LINE",
"319 888 OFFCURVE",
"352 893 OFFCURVE",
"368 893 CURVE SMOOTH",
"411 893 OFFCURVE",
"428 882 OFFCURVE",
"428 858 CURVE SMOOTH",
"428 824 OFFCURVE",
"395 814 OFFCURVE",
"343 814 CURVE",
"343 742 LINE"
);
}
);
width = 884;
}
);
leftKerningGroup = O;
note = Ohornhookabove;
rightKerningGroup = O;
unicode = 1EDE;
},
{
glyphname = Ohorntilde;
lastChange = "2015-11-30 01:13:22 +0000";
layers = (
{
layerId = "6C2100B3-2BA9-4AA0-8DCB-13254C7332A5";
name = SemiBold;
paths = (
{
closed = 1;
nodes = (
"616 -15 OFFCURVE",
"778 131 OFFCURVE",
"778 349 CURVE SMOOTH",
"778 413 OFFCURVE",
"764 471 OFFCURVE",
"739 521 CURVE",
"827 542 OFFCURVE",
"876 614 OFFCURVE",
"876 703 CURVE SMOOTH",
"876 747 LINE",
"744 747 LINE",
"744 712 LINE SMOOTH",
"744 652 OFFCURVE",
"724 628 OFFCURVE",
"656 627 CURVE",
"590 682 OFFCURVE",
"503 714 OFFCURVE",
"406 714 CURVE SMOOTH",
"195 714 OFFCURVE",
"32 568 OFFCURVE",
"32 349 CURVE SMOOTH",
"32 131 OFFCURVE",
"195 -15 OFFCURVE",
"406 -15 CURVE SMOOTH"
);
},
{
closed = 1;
nodes = (
"288 131 OFFCURVE",
"193 214 OFFCURVE",
"193 349 CURVE SMOOTH",
"193 482 OFFCURVE",
"286 566 OFFCURVE",
"406 566 CURVE SMOOTH",
"524 566 OFFCURVE",
"617 482 OFFCURVE",
"617 349 CURVE SMOOTH",
"617 214 OFFCURVE",
"522 131 OFFCURVE",
"406 131 CURVE SMOOTH"
);
},
{
closed = 1;
nodes = (
"250 780 OFFCURVE",
"284 793 OFFCURVE",
"322 793 CURVE SMOOTH",
"386 793 OFFCURVE",
"442 743 OFFCURVE",
"515 743 CURVE SMOOTH",
"558 743 OFFCURVE",
"593 754 OFFCURVE",
"617 785 CURVE",
"617 900 LINE",
"588 863 OFFCURVE",
"554 850 OFFCURVE",
"515 850 CURVE SMOOTH",
"450 850 OFFCURVE",
"390 900 OFFCURVE",
"322 900 CURVE SMOOTH",
"280 900 OFFCURVE",
"243 888 OFFCURVE",
"219 857 CURVE",
"219 742 LINE"
);
}
);
width = 884;
}
);
leftKerningGroup = O;
note = Ohorntilde;
rightKerningGroup = O;
unicode = 1EE0;
},
{
glyphname = Ohungarumlaut;
lastChange = "2015-11-30 01:13:21 +0000";
layers = (
{
layerId = "6C2100B3-2BA9-4AA0-8DCB-13254C7332A5";
name = SemiBold;
paths = (
{
closed = 1;
nodes = (
"616 -15 OFFCURVE",
"778 131 OFFCURVE",
"778 349 CURVE SMOOTH",
"778 568 OFFCURVE",
"616 714 OFFCURVE",
"406 714 CURVE SMOOTH",
"195 714 OFFCURVE",
"32 568 OFFCURVE",
"32 349 CURVE SMOOTH",
"32 131 OFFCURVE",
"195 -15 OFFCURVE",
"406 -15 CURVE SMOOTH"
);
},
{
closed = 1;
nodes = (
"285 125 OFFCURVE",
"187 210 OFFCURVE",
"187 349 CURVE SMOOTH",
"187 486 OFFCURVE",
"283 572 OFFCURVE",
"406 572 CURVE SMOOTH",
"527 572 OFFCURVE",
"623 486 OFFCURVE",
"623 349 CURVE SMOOTH",
"623 210 OFFCURVE",
"525 125 OFFCURVE",
"406 125 CURVE SMOOTH"
);
},
{
closed = 1;
nodes = (
"339 742 LINE",
"428 918 LINE",
"281 918 LINE",
"212 742 LINE"
);
},
{
closed = 1;
nodes = (
"577 742 LINE",
"665 918 LINE",
"519 918 LINE",
"450 742 LINE"
);
}
);
width = 810;
}
);
leftKerningGroup = O;
note = Ohungarumlaut;
rightKerningGroup = O;
unicode = 0150;
},
{
glyphname = Omacron;
lastChange = "2015-11-30 01:13:22 +0000";
layers = (
{
layerId = "6C2100B3-2BA9-4AA0-8DCB-13254C7332A5";
name = SemiBold;
paths = (
{
closed = 1;
nodes = (
"616 -15 OFFCURVE",
"778 131 OFFCURVE",
"778 349 CURVE SMOOTH",
"778 568 OFFCURVE",
"616 714 OFFCURVE",
"406 714 CURVE SMOOTH",
"195 714 OFFCURVE",
"32 568 OFFCURVE",
"32 349 CURVE SMOOTH",
"32 131 OFFCURVE",
"195 -15 OFFCURVE",
"406 -15 CURVE SMOOTH"
);
},
{
closed = 1;
nodes = (
"285 125 OFFCURVE",
"187 210 OFFCURVE",
"187 349 CURVE SMOOTH",
"187 486 OFFCURVE",
"283 572 OFFCURVE",
"406 572 CURVE SMOOTH",
"527 572 OFFCURVE",
"623 486 OFFCURVE",
"623 349 CURVE SMOOTH",
"623 210 OFFCURVE",
"525 125 OFFCURVE",
"406 125 CURVE SMOOTH"
);
},
{
closed = 1;
nodes = (
"572 752 LINE",
"572 850 LINE",
"238 850 LINE",
"238 752 LINE"
);
}
);
width = 810;
}
);
leftKerningGroup = O;
note = Omacron;
rightKerningGroup = O;
unicode = 014C;
},
{
glyphname = Oslash;
lastChange = "2015-11-30 01:13:21 +0000";
layers = (
{
layerId = "6C2100B3-2BA9-4AA0-8DCB-13254C7332A5";
name = SemiBold;
paths = (
{
closed = 1;
nodes = (
"292 -86 LINE",
"323 -7 LINE",
"350 -12 OFFCURVE",
"377 -15 OFFCURVE",
"406 -15 CURVE SMOOTH",
"616 -15 OFFCURVE",
"778 131 OFFCURVE",
"778 349 CURVE SMOOTH",
"778 495 OFFCURVE",
"706 608 OFFCURVE",
"595 668 CURVE",
"642 784 LINE",
"519 784 LINE",
"487 706 LINE",
"461 711 OFFCURVE",
"434 714 OFFCURVE",
"406 714 CURVE SMOOTH",
"195 714 OFFCURVE",
"32 568 OFFCURVE",
"32 349 CURVE SMOOTH",
"32 203 OFFCURVE",
"105 90 OFFCURVE",
"216 30 CURVE",
"169 -86 LINE"
);
},
{
closed = 1;
nodes = (
"220 206 OFFCURVE",
"187 268 OFFCURVE",
"187 349 CURVE SMOOTH",
"187 486 OFFCURVE",
"283 572 OFFCURVE",
"406 572 CURVE SMOOTH",
"415 572 OFFCURVE",
"424 571 OFFCURVE",
"433 570 CURVE",
"271 167 LINE"
);
},
{
closed = 1;
nodes = (
"396 125 OFFCURVE",
"387 125 OFFCURVE",
"377 126 CURVE",
"539 529 LINE",
"590 491 OFFCURVE",
"623 429 OFFCURVE",
"623 349 CURVE SMOOTH",
"623 210 OFFCURVE",
"525 125 OFFCURVE",
"406 125 CURVE SMOOTH"
);
}
);
width = 810;
}
);
leftKerningGroup = O;
note = Oslash;
rightKerningGroup = O;
unicode = 00D8;
},
{
glyphname = Oslashacute;
lastChange = "2015-11-30 01:13:21 +0000";
layers = (
{
layerId = "6C2100B3-2BA9-4AA0-8DCB-13254C7332A5";
name = SemiBold;
paths = (
{
closed = 1;
nodes = (
"292 -86 LINE",
"323 -7 LINE",
"350 -12 OFFCURVE",
"377 -15 OFFCURVE",
"406 -15 CURVE SMOOTH",
"616 -15 OFFCURVE",
"778 131 OFFCURVE",
"778 349 CURVE SMOOTH",
"778 495 OFFCURVE",
"706 608 OFFCURVE",
"595 668 CURVE",
"642 784 LINE",
"519 784 LINE",
"487 706 LINE",
"461 711 OFFCURVE",
"434 714 OFFCURVE",
"406 714 CURVE SMOOTH",
"195 714 OFFCURVE",
"32 568 OFFCURVE",
"32 349 CURVE SMOOTH",
"32 203 OFFCURVE",
"105 90 OFFCURVE",
"216 30 CURVE",
"169 -86 LINE"
);
},
{
closed = 1;
nodes = (
"220 206 OFFCURVE",
"187 268 OFFCURVE",
"187 349 CURVE SMOOTH",
"187 486 OFFCURVE",
"283 572 OFFCURVE",
"406 572 CURVE SMOOTH",
"415 572 OFFCURVE",
"424 571 OFFCURVE",
"433 570 CURVE",
"271 167 LINE"
);
},
{
closed = 1;
nodes = (
"396 125 OFFCURVE",
"387 125 OFFCURVE",
"377 126 CURVE",
"539 529 LINE",
"590 491 OFFCURVE",
"623 429 OFFCURVE",
"623 349 CURVE SMOOTH",
"623 210 OFFCURVE",
"525 125 OFFCURVE",
"406 125 CURVE SMOOTH"
);
},
{
closed = 1;
nodes = (
"466 742 LINE",
"555 918 LINE",
"396 918 LINE",
"327 742 LINE"
);
}
);
width = 810;
}
);
leftKerningGroup = O;
note = Oslashacute;
rightKerningGroup = O;
unicode = 01FE;
},
{
glyphname = Otilde;
lastChange = "2015-11-30 01:13:22 +0000";
layers = (
{
layerId = "6C2100B3-2BA9-4AA0-8DCB-13254C7332A5";
name = SemiBold;
paths = (
{
closed = 1;
nodes = (
"616 -15 OFFCURVE",
"778 131 OFFCURVE",
"778 349 CURVE SMOOTH",
"778 568 OFFCURVE",
"616 714 OFFCURVE",
"406 714 CURVE SMOOTH",
"195 714 OFFCURVE",
"32 568 OFFCURVE",
"32 349 CURVE SMOOTH",
"32 131 OFFCURVE",
"195 -15 OFFCURVE",
"406 -15 CURVE SMOOTH"
);
},
{
closed = 1;
nodes = (
"285 125 OFFCURVE",
"187 210 OFFCURVE",
"187 349 CURVE SMOOTH",
"187 486 OFFCURVE",
"283 572 OFFCURVE",
"406 572 CURVE SMOOTH",
"527 572 OFFCURVE",
"623 486 OFFCURVE",
"623 349 CURVE SMOOTH",
"623 210 OFFCURVE",
"525 125 OFFCURVE",
"406 125 CURVE SMOOTH"
);
},
{
closed = 1;
nodes = (
"237 780 OFFCURVE",
"271 793 OFFCURVE",
"309 793 CURVE SMOOTH",
"373 793 OFFCURVE",
"429 743 OFFCURVE",
"502 743 CURVE SMOOTH",
"545 743 OFFCURVE",
"580 754 OFFCURVE",
"604 785 CURVE",
"604 900 LINE",
"575 863 OFFCURVE",
"541 850 OFFCURVE",
"502 850 CURVE SMOOTH",
"437 850 OFFCURVE",
"377 900 OFFCURVE",
"309 900 CURVE SMOOTH",
"267 900 OFFCURVE",
"230 888 OFFCURVE",
"206 857 CURVE",
"206 742 LINE"
);
}
);
width = 810;
}
);
leftKerningGroup = O;
note = Otilde;
rightKerningGroup = O;
unicode = 00D5;
},
{
glyphname = OE;
lastChange = "2015-11-30 01:13:22 +0000";
layers = (
{
layerId = "6C2100B3-2BA9-4AA0-8DCB-13254C7332A5";
name = SemiBold;
paths = (
{
closed = 1;
nodes = (
"859 0 LINE",
"859 127 LINE",
"568 127 LINE",
"568 288 LINE",
"771 288 LINE",
"771 410 LINE",
"568 410 LINE",
"568 572 LINE",
"859 572 LINE",
"859 699 LINE",
"423 699 LINE SMOOTH",
"198 699 OFFCURVE",
"32 568 OFFCURVE",
"32 349 CURVE SMOOTH",
"32 131 OFFCURVE",
"198 0 OFFCURVE",
"423 0 CURVE SMOOTH"
);
},
{
closed = 1;
nodes = (
"280 127 OFFCURVE",
"187 206 OFFCURVE",
"187 349 CURVE SMOOTH",
"187 491 OFFCURVE",
"280 572 OFFCURVE",
"416 572 CURVE",
"416 127 LINE"
);
}
);
width = 891;
}
);
leftKerningGroup = O;
note = OE;
rightKerningGroup = E;
unicode = 0152;
},
{
glyphname = P;
lastChange = "2015-11-30 01:13:21 +0000";
layers = (
{
layerId = "6C2100B3-2BA9-4AA0-8DCB-13254C7332A5";
name = SemiBold;
paths = (
{
closed = 1;
nodes = (
"204 0 LINE",
"204 227 LINE",
"346 227 LINE SMOOTH",
"502 227 OFFCURVE",
"607 308 OFFCURVE",
"607 463 CURVE SMOOTH",
"607 613 OFFCURVE",
"502 699 OFFCURVE",
"346 699 CURVE SMOOTH",
"52 699 LINE",
"52 0 LINE"
);
},
{
closed = 1;
nodes = (
"204 572 LINE",
"324 572 LINE SMOOTH",
"395 572 OFFCURVE",
"453 550 OFFCURVE",
"453 463 CURVE SMOOTH",
"453 378 OFFCURVE",
"395 354 OFFCURVE",
"324 354 CURVE SMOOTH",
"204 354 LINE"
);
}
);
width = 625;
}
);
note = P;
unicode = 0050;
},
{
glyphname = Thorn;
lastChange = "2015-11-30 01:13:21 +0000";
layers = (
{
layerId = "6C2100B3-2BA9-4AA0-8DCB-13254C7332A5";
name = SemiBold;
paths = (
{
closed = 1;
nodes = (
"204 0 LINE",
"204 124 LINE",
"352 124 LINE SMOOTH",
"508 124 OFFCURVE",
"607 196 OFFCURVE",
"607 351 CURVE SMOOTH",
"607 506 OFFCURVE",
"508 579 OFFCURVE",
"352 579 CURVE SMOOTH",
"204 579 LINE",
"204 699 LINE",
"52 699 LINE",
"52 0 LINE"
);
},
{
closed = 1;
nodes = (
"204 452 LINE",
"324 452 LINE SMOOTH",
"395 452 OFFCURVE",
"453 435 OFFCURVE",
"453 351 CURVE SMOOTH",
"453 268 OFFCURVE",
"395 251 OFFCURVE",
"324 251 CURVE SMOOTH",
"204 251 LINE"
);
}
);
width = 625;
}
);
note = Thorn;
unicode = 00DE;
},
{
glyphname = Q;
lastChange = "2015-11-30 01:13:21 +0000";
layers = (
{
layerId = "6C2100B3-2BA9-4AA0-8DCB-13254C7332A5";
name = SemiBold;
paths = (
{
closed = 1;
nodes = (
"793 0 LINE",
"793 124 LINE",
"671 124 LINE",
"731 172 OFFCURVE",
"778 261 OFFCURVE",
"778 351 CURVE SMOOTH",
"778 570 OFFCURVE",
"616 714 OFFCURVE",
"406 714 CURVE SMOOTH",
"195 714 OFFCURVE",
"32 570 OFFCURVE",
"32 351 CURVE SMOOTH",
"32 135 OFFCURVE",
"187 0 OFFCURVE",
"425 0 CURVE SMOOTH"
);
},
{
closed = 1;
nodes = (
"278 133 OFFCURVE",
"187 211 OFFCURVE",
"187 350 CURVE SMOOTH",
"187 487 OFFCURVE",
"283 572 OFFCURVE",
"406 572 CURVE SMOOTH",
"527 572 OFFCURVE",
"623 487 OFFCURVE",
"623 350 CURVE SMOOTH",
"623 212 OFFCURVE",
"531 133 OFFCURVE",
"406 133 CURVE SMOOTH"
);
}
);
width = 808;
}
);
leftKerningGroup = O;
note = Q;
rightKerningGroup = O;
unicode = 0051;
},
{
glyphname = R;
lastChange = "2015-11-30 01:13:22 +0000";
layers = (
{
layerId = "6C2100B3-2BA9-4AA0-8DCB-13254C7332A5";
name = SemiBold;
paths = (
{
closed = 1;
nodes = (
"204 0 LINE",
"204 237 LINE",
"323 237 LINE",
"446 0 LINE",
"602 0 LINE",
"469 256 LINE",
"557 289 OFFCURVE",
"607 364 OFFCURVE",
"607 468 CURVE SMOOTH",
"607 619 OFFCURVE",
"512 699 OFFCURVE",
"355 699 CURVE SMOOTH",
"52 699 LINE",
"52 0 LINE"
);
},
{
closed = 1;
nodes = (
"204 572 LINE",
"328 572 LINE SMOOTH",
"399 572 OFFCURVE",
"453 550 OFFCURVE",
"453 468 CURVE SMOOTH",
"453 393 OFFCURVE",
"400 364 OFFCURVE",
"328 364 CURVE SMOOTH",
"204 364 LINE"
);
}
);
width = 640;
}
);
note = R;
rightKerningGroup = R;
unicode = 0052;
},
{
glyphname = Racute;
lastChange = "2015-11-30 01:13:21 +0000";
layers = (
{
layerId = "6C2100B3-2BA9-4AA0-8DCB-13254C7332A5";
name = SemiBold;
paths = (
{
closed = 1;
nodes = (
"204 0 LINE",
"204 237 LINE",
"323 237 LINE",
"446 0 LINE",
"602 0 LINE",
"469 256 LINE",
"557 289 OFFCURVE",
"607 364 OFFCURVE",
"607 468 CURVE SMOOTH",
"607 619 OFFCURVE",
"512 699 OFFCURVE",
"355 699 CURVE SMOOTH",
"52 699 LINE",
"52 0 LINE"
);
},
{
closed = 1;
nodes = (
"204 572 LINE",
"328 572 LINE SMOOTH",
"399 572 OFFCURVE",
"453 550 OFFCURVE",
"453 468 CURVE SMOOTH",
"453 393 OFFCURVE",
"400 364 OFFCURVE",
"328 364 CURVE SMOOTH",
"204 364 LINE"
);
},
{
closed = 1;
nodes = (
"348 742 LINE",
"437 918 LINE",
"278 918 LINE",
"209 742 LINE"
);
}
);
width = 640;
}
);
note = Racute;
rightKerningGroup = R;
unicode = 0154;
},
{
glyphname = Rcaron;
lastChange = "2015-11-30 01:13:21 +0000";
layers = (
{
layerId = "6C2100B3-2BA9-4AA0-8DCB-13254C7332A5";
name = SemiBold;
paths = (
{
closed = 1;
nodes = (
"204 0 LINE",
"204 237 LINE",
"323 237 LINE",
"446 0 LINE",
"602 0 LINE",
"469 256 LINE",
"557 289 OFFCURVE",
"607 364 OFFCURVE",
"607 468 CURVE SMOOTH",
"607 619 OFFCURVE",
"512 699 OFFCURVE",
"355 699 CURVE SMOOTH",
"52 699 LINE",
"52 0 LINE"
);
},
{
closed = 1;
nodes = (
"204 572 LINE",
"328 572 LINE SMOOTH",
"399 572 OFFCURVE",
"453 550 OFFCURVE",
"453 468 CURVE SMOOTH",
"453 393 OFFCURVE",
"400 364 OFFCURVE",
"328 364 CURVE SMOOTH",
"204 364 LINE"
);
},
{
closed = 1;
nodes = (
"361 742 LINE",
"512 918 LINE",
"362 918 LINE",
"294 826 LINE",
"226 918 LINE",
"75 918 LINE",
"226 742 LINE"
);
}
);
width = 640;
}
);
note = Rcaron;
rightKerningGroup = R;
unicode = 0158;
},
{
glyphname = Rcommaaccent;
lastChange = "2015-11-30 01:13:22 +0000";
layers = (
{
layerId = "6C2100B3-2BA9-4AA0-8DCB-13254C7332A5";
name = SemiBold;
paths = (
{
closed = 1;
nodes = (
"204 0 LINE",
"204 237 LINE",
"323 237 LINE",
"446 0 LINE",
"602 0 LINE",
"469 256 LINE",
"557 289 OFFCURVE",
"607 364 OFFCURVE",
"607 468 CURVE SMOOTH",
"607 619 OFFCURVE",
"512 699 OFFCURVE",
"355 699 CURVE SMOOTH",
"52 699 LINE",
"52 0 LINE"
);
},
{
closed = 1;
nodes = (
"293 -260 LINE",
"394 -53 LINE",
"238 -53 LINE",
"155 -260 LINE"
);
},
{
closed = 1;
nodes = (
"204 572 LINE",
"328 572 LINE SMOOTH",
"399 572 OFFCURVE",
"453 550 OFFCURVE",
"453 468 CURVE SMOOTH",
"453 393 OFFCURVE",
"400 364 OFFCURVE",
"328 364 CURVE SMOOTH",
"204 364 LINE"
);
}
);
width = 640;
}
);
note = Rcommaaccent;
rightKerningGroup = R;
unicode = 0156;
},
{
glyphname = Rdotbelow;
lastChange = "2015-11-30 01:13:22 +0000";
layers = (
{
layerId = "6C2100B3-2BA9-4AA0-8DCB-13254C7332A5";
name = SemiBold;
paths = (
{
closed = 1;
nodes = (
"204 0 LINE",
"204 237 LINE",
"323 237 LINE",
"446 0 LINE",
"602 0 LINE",
"469 256 LINE",
"557 289 OFFCURVE",
"607 364 OFFCURVE",
"607 468 CURVE SMOOTH",
"607 619 OFFCURVE",
"512 699 OFFCURVE",
"355 699 CURVE SMOOTH",
"52 699 LINE",
"52 0 LINE"
);
},
{
closed = 1;
nodes = (
"354 -190 OFFCURVE",
"386 -158 OFFCURVE",
"386 -118 CURVE SMOOTH",
"386 -78 OFFCURVE",
"354 -46 OFFCURVE",
"315 -46 CURVE SMOOTH",
"276 -46 OFFCURVE",
"242 -78 OFFCURVE",
"242 -118 CURVE SMOOTH",
"242 -158 OFFCURVE",
"276 -190 OFFCURVE",
"315 -190 CURVE SMOOTH"
);
},
{
closed = 1;
nodes = (
"204 572 LINE",
"328 572 LINE SMOOTH",
"399 572 OFFCURVE",
"453 550 OFFCURVE",
"453 468 CURVE SMOOTH",
"453 393 OFFCURVE",
"400 364 OFFCURVE",
"328 364 CURVE SMOOTH",
"204 364 LINE"
);
}
);
width = 640;
}
);
note = Rdotbelow;
rightKerningGroup = R;
unicode = 1E5A;
},
{
glyphname = Rdotbelowmacron;
lastChange = "2015-11-30 01:13:21 +0000";
layers = (
{
layerId = "6C2100B3-2BA9-4AA0-8DCB-13254C7332A5";
name = SemiBold;
paths = (
{
closed = 1;
nodes = (
"204 0 LINE",
"204 237 LINE",
"323 237 LINE",
"446 0 LINE",
"602 0 LINE",
"469 256 LINE",
"557 289 OFFCURVE",
"607 364 OFFCURVE",
"607 468 CURVE SMOOTH",
"607 619 OFFCURVE",
"512 699 OFFCURVE",
"355 699 CURVE SMOOTH",
"52 699 LINE",
"52 0 LINE"
);
},
{
closed = 1;
nodes = (
"335 -190 OFFCURVE",
"367 -158 OFFCURVE",
"367 -118 CURVE SMOOTH",
"367 -78 OFFCURVE",
"335 -46 OFFCURVE",
"296 -46 CURVE SMOOTH",
"257 -46 OFFCURVE",
"223 -78 OFFCURVE",
"223 -118 CURVE SMOOTH",
"223 -158 OFFCURVE",
"257 -190 OFFCURVE",
"296 -190 CURVE SMOOTH"
);
},
{
closed = 1;
nodes = (
"204 572 LINE",
"328 572 LINE SMOOTH",
"399 572 OFFCURVE",
"453 550 OFFCURVE",
"453 468 CURVE SMOOTH",
"453 393 OFFCURVE",
"400 364 OFFCURVE",
"328 364 CURVE SMOOTH",
"204 364 LINE"
);
},
{
closed = 1;
nodes = (
"462 752 LINE",
"462 850 LINE",
"128 850 LINE",
"128 752 LINE"
);
}
);
width = 640;
}
);
note = Rdotbelowmacron;
rightKerningGroup = R;
unicode = 1E5C;
},
{
glyphname = Rlinebelow;
lastChange = "2015-11-30 01:13:21 +0000";
layers = (
{
layerId = "6C2100B3-2BA9-4AA0-8DCB-13254C7332A5";
name = SemiBold;
paths = (
{
closed = 1;
nodes = (
"204 0 LINE",
"204 237 LINE",
"323 237 LINE",
"446 0 LINE",
"602 0 LINE",
"469 256 LINE",
"557 289 OFFCURVE",
"607 364 OFFCURVE",
"607 468 CURVE SMOOTH",
"607 619 OFFCURVE",
"512 699 OFFCURVE",
"355 699 CURVE SMOOTH",
"52 699 LINE",
"52 0 LINE"
);
},
{
closed = 1;
nodes = (
"480 -162 LINE",
"480 -64 LINE",
"146 -64 LINE",
"146 -162 LINE"
);
},
{
closed = 1;
nodes = (
"204 572 LINE",
"328 572 LINE SMOOTH",
"399 572 OFFCURVE",
"453 550 OFFCURVE",
"453 468 CURVE SMOOTH",
"453 393 OFFCURVE",
"400 364 OFFCURVE",
"328 364 CURVE SMOOTH",
"204 364 LINE"
);
}
);
width = 640;
}
);
note = Rlinebelow;
rightKerningGroup = R;
unicode = 1E5E;
},
{
glyphname = S;
lastChange = "2015-11-30 01:13:19 +0000";
layers = (
{
layerId = "6C2100B3-2BA9-4AA0-8DCB-13254C7332A5";
name = SemiBold;
paths = (
{
closed = 1;
nodes = (
"448 -15 OFFCURVE",
"535 62 OFFCURVE",
"535 186 CURVE SMOOTH",
"535 298 OFFCURVE",
"480 345 OFFCURVE",
"346 401 CURVE SMOOTH",
"249 440 OFFCURVE",
"201 458 OFFCURVE",
"201 512 CURVE SMOOTH",
"201 560 OFFCURVE",
"247 587 OFFCURVE",
"321 587 CURVE SMOOTH",
"380 587 OFFCURVE",
"439 572 OFFCURVE",
"497 543 CURVE",
"497 673 LINE",
"437 701 OFFCURVE",
"376 714 OFFCURVE",
"293 714 CURVE SMOOTH",
"140 714 OFFCURVE",
"37 633 OFFCURVE",
"37 514 CURVE SMOOTH",
"37 415 OFFCURVE",
"94 355 OFFCURVE",
"223 302 CURVE SMOOTH",
"324 261 OFFCURVE",
"369 241 OFFCURVE",
"369 187 CURVE SMOOTH",
"369 140 OFFCURVE",
"329 111 OFFCURVE",
"251 111 CURVE SMOOTH",
"183 111 OFFCURVE",
"104 128 OFFCURVE",
"32 163 CURVE",
"32 29 LINE",
"86 2 OFFCURVE",
"178 -15 OFFCURVE",
"262 -15 CURVE SMOOTH"
);
}
);
width = 568;
}
);
leftKerningGroup = S;
note = S;
rightKerningGroup = S;
unicode = 0053;
},
{
glyphname = Sacute;
lastChange = "2015-11-30 01:13:21 +0000";
layers = (
{
layerId = "6C2100B3-2BA9-4AA0-8DCB-13254C7332A5";
name = SemiBold;
paths = (
{
closed = 1;
nodes = (
"448 -15 OFFCURVE",
"535 62 OFFCURVE",
"535 186 CURVE SMOOTH",
"535 298 OFFCURVE",
"480 345 OFFCURVE",
"346 401 CURVE SMOOTH",
"249 440 OFFCURVE",
"201 458 OFFCURVE",
"201 512 CURVE SMOOTH",
"201 560 OFFCURVE",
"247 587 OFFCURVE",
"321 587 CURVE SMOOTH",
"380 587 OFFCURVE",
"439 572 OFFCURVE",
"497 543 CURVE",
"497 673 LINE",
"437 701 OFFCURVE",
"376 714 OFFCURVE",
"293 714 CURVE SMOOTH",
"140 714 OFFCURVE",
"37 633 OFFCURVE",
"37 514 CURVE SMOOTH",
"37 415 OFFCURVE",
"94 355 OFFCURVE",
"223 302 CURVE SMOOTH",
"324 261 OFFCURVE",
"369 241 OFFCURVE",
"369 187 CURVE SMOOTH",
"369 140 OFFCURVE",
"329 111 OFFCURVE",
"251 111 CURVE SMOOTH",
"183 111 OFFCURVE",
"104 128 OFFCURVE",
"32 163 CURVE",
"32 29 LINE",
"86 2 OFFCURVE",
"178 -15 OFFCURVE",
"262 -15 CURVE SMOOTH"
);
},
{
closed = 1;
nodes = (
"351 742 LINE",
"440 918 LINE",
"281 918 LINE",
"212 742 LINE"
);
}
);
width = 568;
}
);
leftKerningGroup = S;
note = Sacute;
rightKerningGroup = S;
unicode = 015A;
},
{
glyphname = Scaron;
lastChange = "2015-11-30 01:13:22 +0000";
layers = (
{
layerId = "6C2100B3-2BA9-4AA0-8DCB-13254C7332A5";
name = SemiBold;
paths = (
{
closed = 1;
nodes = (
"448 -15 OFFCURVE",
"535 62 OFFCURVE",
"535 186 CURVE SMOOTH",
"535 298 OFFCURVE",
"480 345 OFFCURVE",
"346 401 CURVE SMOOTH",
"249 440 OFFCURVE",
"201 458 OFFCURVE",
"201 512 CURVE SMOOTH",
"201 560 OFFCURVE",
"247 587 OFFCURVE",
"321 587 CURVE SMOOTH",
"380 587 OFFCURVE",
"439 572 OFFCURVE",
"497 543 CURVE",
"497 673 LINE",
"437 701 OFFCURVE",
"376 714 OFFCURVE",
"293 714 CURVE SMOOTH",
"140 714 OFFCURVE",
"37 633 OFFCURVE",
"37 514 CURVE SMOOTH",
"37 415 OFFCURVE",
"94 355 OFFCURVE",
"223 302 CURVE SMOOTH",
"324 261 OFFCURVE",
"369 241 OFFCURVE",
"369 187 CURVE SMOOTH",
"369 140 OFFCURVE",
"329 111 OFFCURVE",
"251 111 CURVE SMOOTH",
"183 111 OFFCURVE",
"104 128 OFFCURVE",
"32 163 CURVE",
"32 29 LINE",
"86 2 OFFCURVE",
"178 -15 OFFCURVE",
"262 -15 CURVE SMOOTH"
);
},
{
closed = 1;
nodes = (
"360 742 LINE",
"511 918 LINE",
"361 918 LINE",
"293 826 LINE",
"225 918 LINE",
"74 918 LINE",
"225 742 LINE"
);
}
);
width = 568;
}
);
leftKerningGroup = S;
note = Scaron;
rightKerningGroup = S;
unicode = 0160;
},
{
glyphname = Scedilla;
lastChange = "2015-11-30 01:13:21 +0000";
layers = (
{
layerId = "6C2100B3-2BA9-4AA0-8DCB-13254C7332A5";
name = SemiBold;
paths = (
{
closed = 1;
nodes = (
"448 -15 OFFCURVE",
"535 62 OFFCURVE",
"535 186 CURVE SMOOTH",
"535 298 OFFCURVE",
"480 345 OFFCURVE",
"346 401 CURVE SMOOTH",
"249 440 OFFCURVE",
"201 458 OFFCURVE",
"201 512 CURVE SMOOTH",
"201 560 OFFCURVE",
"247 587 OFFCURVE",
"321 587 CURVE SMOOTH",
"380 587 OFFCURVE",
"439 572 OFFCURVE",
"497 543 CURVE",
"497 673 LINE",
"437 701 OFFCURVE",
"376 714 OFFCURVE",
"293 714 CURVE SMOOTH",
"140 714 OFFCURVE",
"37 633 OFFCURVE",
"37 514 CURVE SMOOTH",
"37 415 OFFCURVE",
"94 355 OFFCURVE",
"223 302 CURVE SMOOTH",
"324 261 OFFCURVE",
"369 241 OFFCURVE",
"369 187 CURVE SMOOTH",
"369 140 OFFCURVE",
"329 111 OFFCURVE",
"251 111 CURVE SMOOTH",
"183 111 OFFCURVE",
"104 128 OFFCURVE",
"32 163 CURVE",
"32 29 LINE",
"86 2 OFFCURVE",
"178 -15 OFFCURVE",
"262 -15 CURVE SMOOTH"
);
},
{
closed = 1;
nodes = (
"349 -248 OFFCURVE",
"409 -214 OFFCURVE",
"409 -146 CURVE SMOOTH",
"409 -89 OFFCURVE",
"376 -57 OFFCURVE",
"320 -49 CURVE",
"339 0 LINE",
"205 0 LINE",
"171 -87 LINE",
"245 -87 OFFCURVE",
"270 -107 OFFCURVE",
"270 -134 CURVE SMOOTH",
"270 -158 OFFCURVE",
"251 -171 OFFCURVE",
"215 -171 CURVE SMOOTH",
"194 -171 OFFCURVE",
"170 -166 OFFCURVE",
"156 -158 CURVE",
"155 -235 LINE",
"175 -243 OFFCURVE",
"216 -248 OFFCURVE",
"257 -248 CURVE SMOOTH"
);
}
);
width = 568;
}
);
leftKerningGroup = S;
note = Scedilla;
rightKerningGroup = S;
unicode = 015E;
},
{
glyphname = Scircumflex;
lastChange = "2015-11-30 01:13:22 +0000";
layers = (
{
layerId = "6C2100B3-2BA9-4AA0-8DCB-13254C7332A5";
name = SemiBold;
paths = (
{
closed = 1;
nodes = (
"448 -15 OFFCURVE",
"535 62 OFFCURVE",
"535 186 CURVE SMOOTH",
"535 298 OFFCURVE",
"480 345 OFFCURVE",
"346 401 CURVE SMOOTH",
"249 440 OFFCURVE",
"201 458 OFFCURVE",
"201 512 CURVE SMOOTH",
"201 560 OFFCURVE",
"247 587 OFFCURVE",
"321 587 CURVE SMOOTH",
"380 587 OFFCURVE",
"439 572 OFFCURVE",
"497 543 CURVE",
"497 673 LINE",
"437 701 OFFCURVE",
"376 714 OFFCURVE",
"293 714 CURVE SMOOTH",
"140 714 OFFCURVE",
"37 633 OFFCURVE",
"37 514 CURVE SMOOTH",
"37 415 OFFCURVE",
"94 355 OFFCURVE",
"223 302 CURVE SMOOTH",
"324 261 OFFCURVE",
"369 241 OFFCURVE",
"369 187 CURVE SMOOTH",
"369 140 OFFCURVE",
"329 111 OFFCURVE",
"251 111 CURVE SMOOTH",
"183 111 OFFCURVE",
"104 128 OFFCURVE",
"32 163 CURVE",
"32 29 LINE",
"86 2 OFFCURVE",
"178 -15 OFFCURVE",
"262 -15 CURVE SMOOTH"
);
},
{
closed = 1;
nodes = (
"216 742 LINE",
"284 834 LINE",
"352 742 LINE",
"502 742 LINE",
"351 918 LINE",
"216 918 LINE",
"65 742 LINE"
);
}
);
width = 568;
}
);
leftKerningGroup = S;
note = Scircumflex;
rightKerningGroup = S;
unicode = 015C;
},
{
glyphname = Scommaaccent;
lastChange = "2015-11-30 01:13:22 +0000";
layers = (
{
layerId = "6C2100B3-2BA9-4AA0-8DCB-13254C7332A5";
name = SemiBold;
paths = (
{
closed = 1;
nodes = (
"448 -15 OFFCURVE",
"535 62 OFFCURVE",
"535 186 CURVE SMOOTH",
"535 298 OFFCURVE",
"480 345 OFFCURVE",
"346 401 CURVE SMOOTH",
"249 440 OFFCURVE",
"201 458 OFFCURVE",
"201 512 CURVE SMOOTH",
"201 560 OFFCURVE",
"247 587 OFFCURVE",
"321 587 CURVE SMOOTH",
"380 587 OFFCURVE",
"439 572 OFFCURVE",
"497 543 CURVE",
"497 673 LINE",
"437 701 OFFCURVE",
"376 714 OFFCURVE",
"293 714 CURVE SMOOTH",
"140 714 OFFCURVE",
"37 633 OFFCURVE",
"37 514 CURVE SMOOTH",
"37 415 OFFCURVE",
"94 355 OFFCURVE",
"223 302 CURVE SMOOTH",
"324 261 OFFCURVE",
"369 241 OFFCURVE",
"369 187 CURVE SMOOTH",
"369 140 OFFCURVE",
"329 111 OFFCURVE",
"251 111 CURVE SMOOTH",
"183 111 OFFCURVE",
"104 128 OFFCURVE",
"32 163 CURVE",
"32 29 LINE",
"86 2 OFFCURVE",
"178 -15 OFFCURVE",
"262 -15 CURVE SMOOTH"
);
},
{
closed = 1;
nodes = (
"258 -259 LINE",
"359 -53 LINE",
"203 -53 LINE",
"120 -259 LINE"
);
}
);
width = 568;
}
);
leftKerningGroup = S;
note = Scommaaccent;
rightKerningGroup = S;
unicode = 0218;
},
{
glyphname = Sdotaccent;
lastChange = "2015-11-30 01:13:21 +0000";
layers = (
{
layerId = "6C2100B3-2BA9-4AA0-8DCB-13254C7332A5";
name = SemiBold;
paths = (
{
closed = 1;
nodes = (
"448 -15 OFFCURVE",
"535 62 OFFCURVE",
"535 186 CURVE SMOOTH",
"535 298 OFFCURVE",
"480 345 OFFCURVE",
"346 401 CURVE SMOOTH",
"249 440 OFFCURVE",
"201 458 OFFCURVE",
"201 512 CURVE SMOOTH",
"201 560 OFFCURVE",
"247 587 OFFCURVE",
"321 587 CURVE SMOOTH",
"380 587 OFFCURVE",
"439 572 OFFCURVE",
"497 543 CURVE",
"497 673 LINE",
"437 701 OFFCURVE",
"376 714 OFFCURVE",
"293 714 CURVE SMOOTH",
"140 714 OFFCURVE",
"37 633 OFFCURVE",
"37 514 CURVE SMOOTH",
"37 415 OFFCURVE",
"94 355 OFFCURVE",
"223 302 CURVE SMOOTH",
"324 261 OFFCURVE",
"369 241 OFFCURVE",
"369 187 CURVE SMOOTH",
"369 140 OFFCURVE",
"329 111 OFFCURVE",
"251 111 CURVE SMOOTH",
"183 111 OFFCURVE",
"104 128 OFFCURVE",
"32 163 CURVE",
"32 29 LINE",
"86 2 OFFCURVE",
"178 -15 OFFCURVE",
"262 -15 CURVE SMOOTH"
);
},
{
closed = 1;
nodes = (
"334 752 OFFCURVE",
"366 783 OFFCURVE",
"366 823 CURVE SMOOTH",
"366 863 OFFCURVE",
"334 895 OFFCURVE",
"295 895 CURVE SMOOTH",
"256 895 OFFCURVE",
"222 863 OFFCURVE",
"222 823 CURVE SMOOTH",
"222 783 OFFCURVE",
"256 752 OFFCURVE",
"295 752 CURVE SMOOTH"
);
}
);
width = 568;
}
);
leftKerningGroup = S;
note = Sdotaccent;
rightKerningGroup = S;
unicode = 1E60;
},
{
glyphname = Sdotbelow;
lastChange = "2015-11-30 01:13:22 +0000";
layers = (
{
layerId = "6C2100B3-2BA9-4AA0-8DCB-13254C7332A5";
name = SemiBold;
paths = (
{
closed = 1;
nodes = (
"448 -15 OFFCURVE",
"535 62 OFFCURVE",
"535 186 CURVE SMOOTH",
"535 298 OFFCURVE",
"480 345 OFFCURVE",
"346 401 CURVE SMOOTH",
"249 440 OFFCURVE",
"201 458 OFFCURVE",
"201 512 CURVE SMOOTH",
"201 560 OFFCURVE",
"247 587 OFFCURVE",
"321 587 CURVE SMOOTH",
"380 587 OFFCURVE",
"439 572 OFFCURVE",
"497 543 CURVE",
"497 673 LINE",
"437 701 OFFCURVE",
"376 714 OFFCURVE",
"293 714 CURVE SMOOTH",
"140 714 OFFCURVE",
"37 633 OFFCURVE",
"37 514 CURVE SMOOTH",
"37 415 OFFCURVE",
"94 355 OFFCURVE",
"223 302 CURVE SMOOTH",
"324 261 OFFCURVE",
"369 241 OFFCURVE",
"369 187 CURVE SMOOTH",
"369 140 OFFCURVE",
"329 111 OFFCURVE",
"251 111 CURVE SMOOTH",
"183 111 OFFCURVE",
"104 128 OFFCURVE",
"32 163 CURVE",
"32 29 LINE",
"86 2 OFFCURVE",
"178 -15 OFFCURVE",
"262 -15 CURVE SMOOTH"
);
},
{
closed = 1;
nodes = (
"316 -190 OFFCURVE",
"348 -158 OFFCURVE",
"348 -118 CURVE SMOOTH",
"348 -78 OFFCURVE",
"316 -46 OFFCURVE",
"277 -46 CURVE SMOOTH",
"238 -46 OFFCURVE",
"204 -78 OFFCURVE",
"204 -118 CURVE SMOOTH",
"204 -158 OFFCURVE",
"238 -190 OFFCURVE",
"277 -190 CURVE SMOOTH"
);
}
);
width = 568;
}
);
leftKerningGroup = S;
note = Sdotbelow;
rightKerningGroup = S;
unicode = 1E62;
},
{
glyphname = Germandbls;
lastChange = "2015-11-30 01:13:19 +0000";
layers = (
{
layerId = "6C2100B3-2BA9-4AA0-8DCB-13254C7332A5";
name = SemiBold;
paths = (
{
closed = 1;
nodes = (
"531 -15 OFFCURVE",
"612 69 OFFCURVE",
"612 197 CURVE SMOOTH",
"612 300 OFFCURVE",
"569 366 OFFCURVE",
"464 388 CURVE",
"567 497 LINE",
"559 612 OFFCURVE",
"476 714 OFFCURVE",
"306 714 CURVE SMOOTH",
"132 714 OFFCURVE",
"47 616 OFFCURVE",
"47 456 CURVE SMOOTH",
"47 0 LINE",
"198 0 LINE",
"198 467 LINE SMOOTH",
"198 544 OFFCURVE",
"239 584 OFFCURVE",
"306 584 CURVE SMOOTH",
"362 584 OFFCURVE",
"395 552 OFFCURVE",
"403 514 CURVE",
"282 385 LINE",
"282 305 LINE",
"332 305 LINE SMOOTH",
"408 305 OFFCURVE",
"459 280 OFFCURVE",
"459 208 CURVE SMOOTH",
"459 145 OFFCURVE",
"415 114 OFFCURVE",
"343 114 CURVE SMOOTH",
"308 114 OFFCURVE",
"277 120 OFFCURVE",
"252 135 CURVE",
"252 3 LINE",
"284 -10 OFFCURVE",
"333 -15 OFFCURVE",
"380 -15 CURVE SMOOTH"
);
}
);
width = 645;
}
);
note = uni1E9E;
unicode = 1E9E;
},
{
glyphname = Schwa;
lastChange = "2015-11-30 01:13:21 +0000";
layers = (
{
layerId = "6C2100B3-2BA9-4AA0-8DCB-13254C7332A5";
name = SemiBold;
paths = (
{
closed = 1;
nodes = (
"657 -15 OFFCURVE",
"791 130 OFFCURVE",
"791 351 CURVE SMOOTH",
"791 582 OFFCURVE",
"635 714 OFFCURVE",
"374 714 CURVE SMOOTH",
"266 714 OFFCURVE",
"160 693 OFFCURVE",
"95 666 CURVE",
"95 542 LINE",
"162 569 OFFCURVE",
"261 586 OFFCURVE",
"349 586 CURVE SMOOTH",
"502 586 OFFCURVE",
"599 516 OFFCURVE",
"615 405 CURVE",
"32 405 LINE",
"32 337 LINE SMOOTH",
"32 139 OFFCURVE",
"157 -15 OFFCURVE",
"409 -15 CURVE SMOOTH"
);
},
{
closed = 1;
nodes = (
"264 110 OFFCURVE",
"199 187 OFFCURVE",
"192 291 CURVE",
"616 291 LINE",
"608 187 OFFCURVE",
"544 110 OFFCURVE",
"405 110 CURVE SMOOTH"
);
}
);
width = 823;
}
);
note = uni018F;
unicode = 018F;
},
{
glyphname = T;
lastChange = "2015-11-30 01:13:19 +0000";
layers = (
{
layerId = "6C2100B3-2BA9-4AA0-8DCB-13254C7332A5";
name = SemiBold;
paths = (
{
closed = 1;
nodes = (
"371 0 LINE",
"371 572 LINE",
"575 572 LINE",
"575 699 LINE",
"15 699 LINE",
"15 572 LINE",
"219 572 LINE",
"219 0 LINE"
);
}
);
width = 590;
}
);
leftKerningGroup = T;
note = T;
rightKerningGroup = T;
unicode = 0054;
},
{
glyphname = Tbar;
lastChange = "2015-11-30 01:13:19 +0000";
layers = (
{
layerId = "6C2100B3-2BA9-4AA0-8DCB-13254C7332A5";
name = SemiBold;
paths = (
{
closed = 1;
nodes = (
"374 0 LINE",
"374 266 LINE",
"488 266 LINE",
"488 393 LINE",
"374 393 LINE",
"374 565 LINE",
"575 565 LINE",
"575 699 LINE",
"15 699 LINE",
"15 565 LINE",
"215 565 LINE",
"215 393 LINE",
"104 393 LINE",
"104 266 LINE",
"215 266 LINE",
"215 0 LINE"
);
}
);
width = 590;
}
);
leftKerningGroup = T;
note = Tbar;
rightKerningGroup = T;
unicode = 0166;
},
{
glyphname = Tcaron;
lastChange = "2015-11-30 01:13:21 +0000";
layers = (
{
layerId = "6C2100B3-2BA9-4AA0-8DCB-13254C7332A5";
name = SemiBold;
paths = (
{
closed = 1;
nodes = (
"371 0 LINE",
"371 572 LINE",
"575 572 LINE",
"575 699 LINE",
"15 699 LINE",
"15 572 LINE",
"219 572 LINE",
"219 0 LINE"
);
},
{
closed = 1;
nodes = (
"363 742 LINE",
"514 918 LINE",
"364 918 LINE",
"296 826 LINE",
"228 918 LINE",
"77 918 LINE",
"228 742 LINE"
);
}
);
width = 590;
}
);
leftKerningGroup = T;
note = Tcaron;
rightKerningGroup = T;
unicode = 0164;
},
{
glyphname = Tcedilla;
lastChange = "2015-11-30 01:13:22 +0000";
layers = (
{
layerId = "6C2100B3-2BA9-4AA0-8DCB-13254C7332A5";
name = SemiBold;
paths = (
{
closed = 1;
nodes = (
"371 0 LINE",
"371 572 LINE",
"575 572 LINE",
"575 699 LINE",
"15 699 LINE",
"15 572 LINE",
"219 572 LINE",
"219 0 LINE"
);
},
{
closed = 1;
nodes = (
"378 -248 OFFCURVE",
"438 -214 OFFCURVE",
"438 -146 CURVE SMOOTH",
"438 -89 OFFCURVE",
"405 -57 OFFCURVE",
"349 -49 CURVE",
"368 0 LINE",
"234 0 LINE",
"200 -87 LINE",
"274 -87 OFFCURVE",
"299 -107 OFFCURVE",
"299 -134 CURVE SMOOTH",
"299 -158 OFFCURVE",
"280 -171 OFFCURVE",
"244 -171 CURVE SMOOTH",
"223 -171 OFFCURVE",
"199 -166 OFFCURVE",
"185 -158 CURVE",
"184 -235 LINE",
"204 -243 OFFCURVE",
"245 -248 OFFCURVE",
"286 -248 CURVE SMOOTH"
);
}
);
width = 590;
}
);
leftKerningGroup = T;
note = Tcedilla;
rightKerningGroup = T;
unicode = 0162;
},
{
glyphname = Tcommaaccent;
lastChange = "2015-11-30 01:13:21 +0000";
layers = (
{
layerId = "6C2100B3-2BA9-4AA0-8DCB-13254C7332A5";
name = SemiBold;
paths = (
{
closed = 1;
nodes = (
"371 0 LINE",
"371 572 LINE",
"575 572 LINE",
"575 699 LINE",
"15 699 LINE",
"15 572 LINE",
"219 572 LINE",
"219 0 LINE"
);
},
{
closed = 1;
nodes = (
"268 -260 LINE",
"369 -53 LINE",
"213 -53 LINE",
"130 -260 LINE"
);
}
);
width = 590;
}
);
leftKerningGroup = T;
note = Tcommaaccent;
rightKerningGroup = T;
unicode = 021A;
},
{
glyphname = Tdotbelow;
lastChange = "2015-11-30 01:13:21 +0000";
layers = (
{
layerId = "6C2100B3-2BA9-4AA0-8DCB-13254C7332A5";
name = SemiBold;
paths = (
{
closed = 1;
nodes = (
"371 0 LINE",
"371 572 LINE",
"575 572 LINE",
"575 699 LINE",
"15 699 LINE",
"15 572 LINE",
"219 572 LINE",
"219 0 LINE"
);
},
{
closed = 1;
nodes = (
"335 -190 OFFCURVE",
"367 -158 OFFCURVE",
"367 -118 CURVE SMOOTH",
"367 -78 OFFCURVE",
"335 -46 OFFCURVE",
"296 -46 CURVE SMOOTH",
"257 -46 OFFCURVE",
"223 -78 OFFCURVE",
"223 -118 CURVE SMOOTH",
"223 -158 OFFCURVE",
"257 -190 OFFCURVE",
"296 -190 CURVE SMOOTH"
);
}
);
width = 590;
}
);
leftKerningGroup = T;
note = Tdotbelow;
rightKerningGroup = T;
unicode = 1E6C;
},
{
glyphname = Tlinebelow;
lastChange = "2015-11-30 01:13:22 +0000";
layers = (
{
layerId = "6C2100B3-2BA9-4AA0-8DCB-13254C7332A5";
name = SemiBold;
paths = (
{
closed = 1;
nodes = (
"371 0 LINE",
"371 572 LINE",
"575 572 LINE",
"575 699 LINE",
"15 699 LINE",
"15 572 LINE",
"219 572 LINE",
"219 0 LINE"
);
},
{
closed = 1;
nodes = (
"462 -162 LINE",
"462 -64 LINE",
"128 -64 LINE",
"128 -162 LINE"
);
}
);
width = 590;
}
);
leftKerningGroup = T;
note = Tlinebelow;
rightKerningGroup = T;
unicode = 1E6E;
},
{
glyphname = U;
lastChange = "2015-11-30 01:13:19 +0000";
layers = (
{
layerId = "6C2100B3-2BA9-4AA0-8DCB-13254C7332A5";
name = SemiBold;
paths = (
{
closed = 1;
nodes = (
"567 -15 OFFCURVE",
"663 109 OFFCURVE",
"663 282 CURVE SMOOTH",
"663 699 LINE",
"511 699 LINE",
"511 280 LINE SMOOTH",
"511 176 OFFCURVE",
"449 124 OFFCURVE",
"356 124 CURVE SMOOTH",
"262 124 OFFCURVE",
"199 176 OFFCURVE",
"199 280 CURVE SMOOTH",
"199 699 LINE",
"47 699 LINE",
"47 282 LINE SMOOTH",
"47 109 OFFCURVE",
"144 -15 OFFCURVE",
"356 -15 CURVE SMOOTH"
);
}
);
width = 711;
}
);
leftKerningGroup = U;
note = U;
rightKerningGroup = U;
unicode = 0055;
},
{
glyphname = Uacute;
lastChange = "2015-11-30 01:13:22 +0000";
layers = (
{
layerId = "6C2100B3-2BA9-4AA0-8DCB-13254C7332A5";
name = SemiBold;
paths = (
{
closed = 1;
nodes = (
"567 -15 OFFCURVE",
"663 109 OFFCURVE",
"663 282 CURVE SMOOTH",
"663 699 LINE",
"511 699 LINE",
"511 280 LINE SMOOTH",
"511 176 OFFCURVE",
"449 124 OFFCURVE",
"356 124 CURVE SMOOTH",
"262 124 OFFCURVE",
"199 176 OFFCURVE",
"199 280 CURVE SMOOTH",
"199 699 LINE",
"47 699 LINE",
"47 282 LINE SMOOTH",
"47 109 OFFCURVE",
"144 -15 OFFCURVE",
"356 -15 CURVE SMOOTH"
);
},
{
closed = 1;
nodes = (
"424 742 LINE",
"513 918 LINE",
"354 918 LINE",
"285 742 LINE"
);
}
);
width = 711;
}
);
leftKerningGroup = U;
note = Uacute;
rightKerningGroup = U;
unicode = 00DA;
},
{
glyphname = Ubreve;
lastChange = "2015-11-30 01:13:21 +0000";
layers = (
{
layerId = "6C2100B3-2BA9-4AA0-8DCB-13254C7332A5";
name = SemiBold;
paths = (
{
closed = 1;
nodes = (
"567 -15 OFFCURVE",
"663 109 OFFCURVE",
"663 282 CURVE SMOOTH",
"663 699 LINE",
"511 699 LINE",
"511 280 LINE SMOOTH",
"511 176 OFFCURVE",
"449 124 OFFCURVE",
"356 124 CURVE SMOOTH",
"262 124 OFFCURVE",
"199 176 OFFCURVE",
"199 280 CURVE SMOOTH",
"199 699 LINE",
"47 699 LINE",
"47 282 LINE SMOOTH",
"47 109 OFFCURVE",
"144 -15 OFFCURVE",
"356 -15 CURVE SMOOTH"
);
},
{
closed = 1;
nodes = (
"464 742 OFFCURVE",
"527 807 OFFCURVE",
"527 904 CURVE",
"414 904 LINE",
"414 862 OFFCURVE",
"392 840 OFFCURVE",
"355 840 CURVE SMOOTH",
"317 840 OFFCURVE",
"296 862 OFFCURVE",
"296 904 CURVE",
"183 904 LINE",
"183 807 OFFCURVE",
"246 742 OFFCURVE",
"355 742 CURVE SMOOTH"
);
}
);
width = 711;
}
);
leftKerningGroup = U;
note = Ubreve;
rightKerningGroup = U;
unicode = 016C;
},
{
glyphname = Ucaron;
lastChange = "2015-11-30 01:13:22 +0000";
layers = (
{
layerId = "6C2100B3-2BA9-4AA0-8DCB-13254C7332A5";
name = SemiBold;
paths = (
{
closed = 1;
nodes = (
"567 -15 OFFCURVE",
"663 109 OFFCURVE",
"663 282 CURVE SMOOTH",
"663 699 LINE",
"511 699 LINE",
"511 280 LINE SMOOTH",
"511 176 OFFCURVE",
"449 124 OFFCURVE",
"356 124 CURVE SMOOTH",
"262 124 OFFCURVE",
"199 176 OFFCURVE",
"199 280 CURVE SMOOTH",
"199 699 LINE",
"47 699 LINE",
"47 282 LINE SMOOTH",
"47 109 OFFCURVE",
"144 -15 OFFCURVE",
"356 -15 CURVE SMOOTH"
);
},
{
closed = 1;
nodes = (
"423 742 LINE",
"574 918 LINE",
"424 918 LINE",
"356 826 LINE",
"288 918 LINE",
"137 918 LINE",
"288 742 LINE"
);
}
);
width = 711;
}
);
leftKerningGroup = U;
note = Ucaron;
rightKerningGroup = U;
unicode = 01D3;
},
{
glyphname = Ucircumflex;
lastChange = "2015-11-30 01:13:22 +0000";
layers = (
{
layerId = "6C2100B3-2BA9-4AA0-8DCB-13254C7332A5";
name = SemiBold;
paths = (
{
closed = 1;
nodes = (
"567 -15 OFFCURVE",
"663 109 OFFCURVE",
"663 282 CURVE SMOOTH",
"663 699 LINE",
"511 699 LINE",
"511 280 LINE SMOOTH",
"511 176 OFFCURVE",
"449 124 OFFCURVE",
"356 124 CURVE SMOOTH",
"262 124 OFFCURVE",
"199 176 OFFCURVE",
"199 280 CURVE SMOOTH",
"199 699 LINE",
"47 699 LINE",
"47 282 LINE SMOOTH",
"47 109 OFFCURVE",
"144 -15 OFFCURVE",
"356 -15 CURVE SMOOTH"
);
},
{
closed = 1;
nodes = (
"288 742 LINE",
"356 834 LINE",
"424 742 LINE",
"574 742 LINE",
"423 918 LINE",
"288 918 LINE",
"137 742 LINE"
);
}
);
width = 711;
}
);
leftKerningGroup = U;
note = Ucircumflex;
rightKerningGroup = U;
unicode = 00DB;
},
{
glyphname = Udieresis;
lastChange = "2015-11-30 01:13:22 +0000";
layers = (
{
layerId = "6C2100B3-2BA9-4AA0-8DCB-13254C7332A5";
name = SemiBold;
paths = (
{
closed = 1;
nodes = (
"567 -15 OFFCURVE",
"663 109 OFFCURVE",
"663 282 CURVE SMOOTH",
"663 699 LINE",
"511 699 LINE",
"511 280 LINE SMOOTH",
"511 176 OFFCURVE",
"449 124 OFFCURVE",
"356 124 CURVE SMOOTH",
"262 124 OFFCURVE",
"199 176 OFFCURVE",
"199 280 CURVE SMOOTH",
"199 699 LINE",
"47 699 LINE",
"47 282 LINE SMOOTH",
"47 109 OFFCURVE",
"144 -15 OFFCURVE",
"356 -15 CURVE SMOOTH"
);
},
{
closed = 1;
nodes = (
"276 752 OFFCURVE",
"308 783 OFFCURVE",
"308 823 CURVE SMOOTH",
"308 863 OFFCURVE",
"276 895 OFFCURVE",
"237 895 CURVE SMOOTH",
"198 895 OFFCURVE",
"165 863 OFFCURVE",
"165 823 CURVE SMOOTH",
"165 783 OFFCURVE",
"198 752 OFFCURVE",
"237 752 CURVE SMOOTH"
);
},
{
closed = 1;
nodes = (
"512 752 OFFCURVE",
"545 783 OFFCURVE",
"545 823 CURVE SMOOTH",
"545 863 OFFCURVE",
"512 895 OFFCURVE",
"474 895 CURVE SMOOTH",
"435 895 OFFCURVE",
"401 863 OFFCURVE",
"401 823 CURVE SMOOTH",
"401 783 OFFCURVE",
"435 752 OFFCURVE",
"474 752 CURVE SMOOTH"
);
}
);
width = 711;
}
);
leftKerningGroup = U;
note = Udieresis;
rightKerningGroup = U;
unicode = 00DC;
},
{
glyphname = Udieresisacute;
lastChange = "2015-11-30 01:13:21 +0000";
layers = (
{
layerId = "6C2100B3-2BA9-4AA0-8DCB-13254C7332A5";
name = SemiBold;
paths = (
{
closed = 1;
nodes = (
"567 -15 OFFCURVE",
"663 109 OFFCURVE",
"663 282 CURVE SMOOTH",
"663 699 LINE",
"511 699 LINE",
"511 280 LINE SMOOTH",
"511 176 OFFCURVE",
"449 124 OFFCURVE",
"356 124 CURVE SMOOTH",
"262 124 OFFCURVE",
"199 176 OFFCURVE",
"199 280 CURVE SMOOTH",
"199 699 LINE",
"47 699 LINE",
"47 282 LINE SMOOTH",
"47 109 OFFCURVE",
"144 -15 OFFCURVE",
"356 -15 CURVE SMOOTH"
);
},
{
closed = 1;
nodes = (
"281 752 OFFCURVE",
"313 783 OFFCURVE",
"313 823 CURVE SMOOTH",
"313 863 OFFCURVE",
"281 895 OFFCURVE",
"242 895 CURVE SMOOTH",
"203 895 OFFCURVE",
"170 863 OFFCURVE",
"170 823 CURVE SMOOTH",
"170 783 OFFCURVE",
"203 752 OFFCURVE",
"242 752 CURVE SMOOTH"
);
},
{
closed = 1;
nodes = (
"517 752 OFFCURVE",
"550 783 OFFCURVE",
"550 823 CURVE SMOOTH",
"550 863 OFFCURVE",
"517 895 OFFCURVE",
"479 895 CURVE SMOOTH",
"440 895 OFFCURVE",
"406 863 OFFCURVE",
"406 823 CURVE SMOOTH",
"406 783 OFFCURVE",
"440 752 OFFCURVE",
"479 752 CURVE SMOOTH"
);
},
{
closed = 1;
nodes = (
"413 888 LINE",
"484 1005 LINE",
"350 1005 LINE",
"303 888 LINE"
);
}
);
width = 711;
}
);
leftKerningGroup = U;
note = Udieresisacute;
rightKerningGroup = U;
unicode = 01D7;
},
{
glyphname = Udieresiscaron;
lastChange = "2015-11-30 01:13:21 +0000";
layers = (
{
layerId = "6C2100B3-2BA9-4AA0-8DCB-13254C7332A5";
name = SemiBold;
paths = (
{
closed = 1;
nodes = (
"567 -15 OFFCURVE",
"663 109 OFFCURVE",
"663 282 CURVE SMOOTH",
"663 699 LINE",
"511 699 LINE",
"511 280 LINE SMOOTH",
"511 176 OFFCURVE",
"449 124 OFFCURVE",
"356 124 CURVE SMOOTH",
"262 124 OFFCURVE",
"199 176 OFFCURVE",
"199 280 CURVE SMOOTH",
"199 699 LINE",
"47 699 LINE",
"47 282 LINE SMOOTH",
"47 109 OFFCURVE",
"144 -15 OFFCURVE",
"356 -15 CURVE SMOOTH"
);
},
{
closed = 1;
nodes = (
"277 752 OFFCURVE",
"311 783 OFFCURVE",
"311 823 CURVE SMOOTH",
"311 863 OFFCURVE",
"277 895 OFFCURVE",
"238 895 CURVE SMOOTH",
"200 895 OFFCURVE",
"167 863 OFFCURVE",
"167 823 CURVE SMOOTH",
"167 783 OFFCURVE",
"200 752 OFFCURVE",
"238 752 CURVE SMOOTH"
);
},
{
closed = 1;
nodes = (
"514 752 OFFCURVE",
"547 783 OFFCURVE",
"547 823 CURVE SMOOTH",
"547 863 OFFCURVE",
"514 895 OFFCURVE",
"475 895 CURVE SMOOTH",
"436 895 OFFCURVE",
"404 863 OFFCURVE",
"404 823 CURVE SMOOTH",
"404 783 OFFCURVE",
"436 752 OFFCURVE",
"475 752 CURVE SMOOTH"
);
},
{
closed = 1;
nodes = (
"415 889 LINE",
"530 1014 LINE",
"397 1014 LINE",
"357 958 LINE",
"317 1014 LINE",
"184 1014 LINE",
"300 889 LINE"
);
}
);
width = 711;
}
);
leftKerningGroup = U;
note = Udieresiscaron;
rightKerningGroup = U;
unicode = 01D9;
},
{
glyphname = Udieresisgrave;
lastChange = "2015-11-30 01:13:22 +0000";
layers = (
{
layerId = "6C2100B3-2BA9-4AA0-8DCB-13254C7332A5";
name = SemiBold;
paths = (
{
closed = 1;
nodes = (
"567 -15 OFFCURVE",
"663 109 OFFCURVE",
"663 282 CURVE SMOOTH",
"663 699 LINE",
"511 699 LINE",
"511 280 LINE SMOOTH",
"511 176 OFFCURVE",
"449 124 OFFCURVE",
"356 124 CURVE SMOOTH",
"262 124 OFFCURVE",
"199 176 OFFCURVE",
"199 280 CURVE SMOOTH",
"199 699 LINE",
"47 699 LINE",
"47 282 LINE SMOOTH",
"47 109 OFFCURVE",
"144 -15 OFFCURVE",
"356 -15 CURVE SMOOTH"
);
},
{
closed = 1;
nodes = (
"281 752 OFFCURVE",
"315 783 OFFCURVE",
"315 823 CURVE SMOOTH",
"315 863 OFFCURVE",
"281 895 OFFCURVE",
"242 895 CURVE SMOOTH",
"204 895 OFFCURVE",
"171 863 OFFCURVE",
"171 823 CURVE SMOOTH",
"171 783 OFFCURVE",
"204 752 OFFCURVE",
"242 752 CURVE SMOOTH"
);
},
{
closed = 1;
nodes = (
"418 888 LINE",
"371 1005 LINE",
"237 1005 LINE",
"308 888 LINE"
);
},
{
closed = 1;
nodes = (
"518 752 OFFCURVE",
"551 783 OFFCURVE",
"551 823 CURVE SMOOTH",
"551 863 OFFCURVE",
"518 895 OFFCURVE",
"479 895 CURVE SMOOTH",
"440 895 OFFCURVE",
"408 863 OFFCURVE",
"408 823 CURVE SMOOTH",
"408 783 OFFCURVE",
"440 752 OFFCURVE",
"479 752 CURVE SMOOTH"
);
}
);
width = 711;
}
);
leftKerningGroup = U;
note = Udieresisgrave;
rightKerningGroup = U;
unicode = 01DB;
},
{
glyphname = Udieresismacron;
lastChange = "2015-11-30 01:13:22 +0000";
layers = (
{
layerId = "6C2100B3-2BA9-4AA0-8DCB-13254C7332A5";
name = SemiBold;
paths = (
{
closed = 1;
nodes = (
"567 -15 OFFCURVE",
"663 109 OFFCURVE",
"663 282 CURVE SMOOTH",
"663 699 LINE",
"511 699 LINE",
"511 280 LINE SMOOTH",
"511 176 OFFCURVE",
"449 124 OFFCURVE",
"356 124 CURVE SMOOTH",
"262 124 OFFCURVE",
"199 176 OFFCURVE",
"199 280 CURVE SMOOTH",
"199 699 LINE",
"47 699 LINE",
"47 282 LINE SMOOTH",
"47 109 OFFCURVE",
"144 -15 OFFCURVE",
"356 -15 CURVE SMOOTH"
);
},
{
closed = 1;
nodes = (
"276 752 OFFCURVE",
"308 783 OFFCURVE",
"308 823 CURVE SMOOTH",
"308 863 OFFCURVE",
"276 895 OFFCURVE",
"237 895 CURVE SMOOTH",
"198 895 OFFCURVE",
"165 863 OFFCURVE",
"165 823 CURVE SMOOTH",
"165 783 OFFCURVE",
"198 752 OFFCURVE",
"237 752 CURVE SMOOTH"
);
},
{
closed = 1;
nodes = (
"512 752 OFFCURVE",
"545 783 OFFCURVE",
"545 823 CURVE SMOOTH",
"545 863 OFFCURVE",
"512 895 OFFCURVE",
"474 895 CURVE SMOOTH",
"435 895 OFFCURVE",
"401 863 OFFCURVE",
"401 823 CURVE SMOOTH",
"401 783 OFFCURVE",
"435 752 OFFCURVE",
"474 752 CURVE SMOOTH"
);
},
{
closed = 1;
nodes = (
"522 934 LINE",
"522 1032 LINE",
"188 1032 LINE",
"188 934 LINE"
);
}
);
width = 711;
}
);
leftKerningGroup = U;
note = Udieresismacron;
rightKerningGroup = U;
unicode = 01D5;
},
{
glyphname = Udotbelow;
lastChange = "2015-11-30 01:13:22 +0000";
layers = (
{
layerId = "6C2100B3-2BA9-4AA0-8DCB-13254C7332A5";
name = SemiBold;
paths = (
{
closed = 1;
nodes = (
"567 -15 OFFCURVE",
"663 109 OFFCURVE",
"663 282 CURVE SMOOTH",
"663 699 LINE",
"511 699 LINE",
"511 280 LINE SMOOTH",
"511 176 OFFCURVE",
"449 124 OFFCURVE",
"356 124 CURVE SMOOTH",
"262 124 OFFCURVE",
"199 176 OFFCURVE",
"199 280 CURVE SMOOTH",
"199 699 LINE",
"47 699 LINE",
"47 282 LINE SMOOTH",
"47 109 OFFCURVE",
"144 -15 OFFCURVE",
"356 -15 CURVE SMOOTH"
);
},
{
closed = 1;
nodes = (
"395 -190 OFFCURVE",
"427 -158 OFFCURVE",
"427 -118 CURVE SMOOTH",
"427 -78 OFFCURVE",
"395 -46 OFFCURVE",
"356 -46 CURVE SMOOTH",
"317 -46 OFFCURVE",
"283 -78 OFFCURVE",
"283 -118 CURVE SMOOTH",
"283 -158 OFFCURVE",
"317 -190 OFFCURVE",
"356 -190 CURVE SMOOTH"
);
}
);
width = 711;
}
);
leftKerningGroup = U;
note = Udotbelow;
rightKerningGroup = U;
unicode = 1EE4;
},
{
glyphname = Ugrave;
lastChange = "2015-11-30 01:13:21 +0000";
layers = (
{
layerId = "6C2100B3-2BA9-4AA0-8DCB-13254C7332A5";
name = SemiBold;
paths = (
{
closed = 1;
nodes = (
"567 -15 OFFCURVE",
"663 109 OFFCURVE",
"663 282 CURVE SMOOTH",
"663 699 LINE",
"511 699 LINE",
"511 280 LINE SMOOTH",
"511 176 OFFCURVE",
"449 124 OFFCURVE",
"356 124 CURVE SMOOTH",
"262 124 OFFCURVE",
"199 176 OFFCURVE",
"199 280 CURVE SMOOTH",
"199 699 LINE",
"47 699 LINE",
"47 282 LINE SMOOTH",
"47 109 OFFCURVE",
"144 -15 OFFCURVE",
"356 -15 CURVE SMOOTH"
);
},
{
closed = 1;
nodes = (
"437 742 LINE",
"368 918 LINE",
"209 918 LINE",
"297 742 LINE"
);
}
);
width = 711;
}
);
leftKerningGroup = U;
note = Ugrave;
rightKerningGroup = U;
unicode = 00D9;
},
{
glyphname = Uhookabove;
lastChange = "2015-11-30 01:13:21 +0000";
layers = (
{
layerId = "6C2100B3-2BA9-4AA0-8DCB-13254C7332A5";
name = SemiBold;
paths = (
{
closed = 1;
nodes = (
"567 -15 OFFCURVE",
"663 109 OFFCURVE",
"663 282 CURVE SMOOTH",
"663 699 LINE",
"511 699 LINE",
"511 280 LINE SMOOTH",
"511 176 OFFCURVE",
"449 124 OFFCURVE",
"356 124 CURVE SMOOTH",
"262 124 OFFCURVE",
"199 176 OFFCURVE",
"199 280 CURVE SMOOTH",
"199 699 LINE",
"47 699 LINE",
"47 282 LINE SMOOTH",
"47 109 OFFCURVE",
"144 -15 OFFCURVE",
"356 -15 CURVE SMOOTH"
);
},
{
closed = 1;
nodes = (
"418 742 LINE",
"418 771 LINE",
"475 783 OFFCURVE",
"507 821 OFFCURVE",
"507 869 CURVE SMOOTH",
"507 930 OFFCURVE",
"458 972 OFFCURVE",
"358 972 CURVE SMOOTH",
"320 972 OFFCURVE",
"275 965 OFFCURVE",
"249 957 CURVE",
"249 882 LINE",
"262 888 OFFCURVE",
"295 893 OFFCURVE",
"311 893 CURVE SMOOTH",
"354 893 OFFCURVE",
"371 882 OFFCURVE",
"371 858 CURVE SMOOTH",
"371 824 OFFCURVE",
"338 814 OFFCURVE",
"286 814 CURVE",
"286 742 LINE"
);
}
);
width = 711;
}
);
leftKerningGroup = U;
note = Uhookabove;
rightKerningGroup = U;
unicode = 1EE6;
},
{
glyphname = Uhorn;
lastChange = "2015-11-30 01:13:19 +0000";
layers = (
{
layerId = "6C2100B3-2BA9-4AA0-8DCB-13254C7332A5";
name = SemiBold;
paths = (
{
closed = 1;
nodes = (
"567 -15 OFFCURVE",
"664 109 OFFCURVE",
"664 282 CURVE SMOOTH",
"664 516 LINE",
"817 517 OFFCURVE",
"877 598 OFFCURVE",
"877 703 CURVE SMOOTH",
"877 747 LINE",
"744 747 LINE",
"744 712 LINE SMOOTH",
"744 652 OFFCURVE",
"729 628 OFFCURVE",
"664 628 CURVE",
"664 699 LINE",
"504 699 LINE",
"504 283 LINE SMOOTH",
"504 179 OFFCURVE",
"449 130 OFFCURVE",
"356 130 CURVE SMOOTH",
"262 130 OFFCURVE",
"206 179 OFFCURVE",
"206 283 CURVE SMOOTH",
"206 699 LINE",
"47 699 LINE",
"47 282 LINE SMOOTH",
"47 109 OFFCURVE",
"144 -15 OFFCURVE",
"356 -15 CURVE SMOOTH"
);
}
);
width = 884;
}
);
leftKerningGroup = U;
note = Uhorn;
rightKerningGroup = U;
unicode = 01AF;
},
{
glyphname = Uhornacute;
lastChange = "2015-11-30 01:13:22 +0000";
layers = (
{
layerId = "6C2100B3-2BA9-4AA0-8DCB-13254C7332A5";
name = SemiBold;
paths = (
{
closed = 1;
nodes = (
"567 -15 OFFCURVE",
"664 109 OFFCURVE",
"664 282 CURVE SMOOTH",
"664 516 LINE",
"817 517 OFFCURVE",
"877 598 OFFCURVE",
"877 703 CURVE SMOOTH",
"877 747 LINE",
"744 747 LINE",
"744 712 LINE SMOOTH",
"744 652 OFFCURVE",
"729 628 OFFCURVE",
"664 628 CURVE",
"664 699 LINE",
"504 699 LINE",
"504 283 LINE SMOOTH",
"504 179 OFFCURVE",
"449 130 OFFCURVE",
"356 130 CURVE SMOOTH",
"262 130 OFFCURVE",
"206 179 OFFCURVE",
"206 283 CURVE SMOOTH",
"206 699 LINE",
"47 699 LINE",
"47 282 LINE SMOOTH",
"47 109 OFFCURVE",
"144 -15 OFFCURVE",
"356 -15 CURVE SMOOTH"
);
},
{
closed = 1;
nodes = (
"421 742 LINE",
"510 918 LINE",
"351 918 LINE",
"282 742 LINE"
);
}
);
width = 884;
}
);
leftKerningGroup = U;
note = Uhornacute;
rightKerningGroup = U;
unicode = 1EE8;
},
{
glyphname = Uhorndotbelow;
lastChange = "2015-11-30 01:13:22 +0000";
layers = (
{
layerId = "6C2100B3-2BA9-4AA0-8DCB-13254C7332A5";
name = SemiBold;
paths = (
{
closed = 1;
nodes = (
"567 -15 OFFCURVE",
"664 109 OFFCURVE",
"664 282 CURVE SMOOTH",
"664 516 LINE",
"817 517 OFFCURVE",
"877 598 OFFCURVE",
"877 703 CURVE SMOOTH",
"877 747 LINE",
"744 747 LINE",
"744 712 LINE SMOOTH",
"744 652 OFFCURVE",
"729 628 OFFCURVE",
"664 628 CURVE",
"664 699 LINE",
"504 699 LINE",
"504 283 LINE SMOOTH",
"504 179 OFFCURVE",
"449 130 OFFCURVE",
"356 130 CURVE SMOOTH",
"262 130 OFFCURVE",
"206 179 OFFCURVE",
"206 283 CURVE SMOOTH",
"206 699 LINE",
"47 699 LINE",
"47 282 LINE SMOOTH",
"47 109 OFFCURVE",
"144 -15 OFFCURVE",
"356 -15 CURVE SMOOTH"
);
},
{
closed = 1;
nodes = (
"399 -190 OFFCURVE",
"431 -158 OFFCURVE",
"431 -118 CURVE SMOOTH",
"431 -78 OFFCURVE",
"399 -46 OFFCURVE",
"360 -46 CURVE SMOOTH",
"321 -46 OFFCURVE",
"287 -78 OFFCURVE",
"287 -118 CURVE SMOOTH",
"287 -158 OFFCURVE",
"321 -190 OFFCURVE",
"360 -190 CURVE SMOOTH"
);
}
);
width = 884;
}
);
leftKerningGroup = U;
note = Uhorndotbelow;
rightKerningGroup = U;
unicode = 1EF0;
},
{
glyphname = Uhorngrave;
lastChange = "2015-11-30 01:13:21 +0000";
layers = (
{
layerId = "6C2100B3-2BA9-4AA0-8DCB-13254C7332A5";
name = SemiBold;
paths = (
{
closed = 1;
nodes = (
"567 -15 OFFCURVE",
"664 109 OFFCURVE",
"664 282 CURVE SMOOTH",
"664 516 LINE",
"817 517 OFFCURVE",
"877 598 OFFCURVE",
"877 703 CURVE SMOOTH",
"877 747 LINE",
"744 747 LINE",
"744 712 LINE SMOOTH",
"744 652 OFFCURVE",
"729 628 OFFCURVE",
"664 628 CURVE",
"664 699 LINE",
"504 699 LINE",
"504 283 LINE SMOOTH",
"504 179 OFFCURVE",
"449 130 OFFCURVE",
"356 130 CURVE SMOOTH",
"262 130 OFFCURVE",
"206 179 OFFCURVE",
"206 283 CURVE SMOOTH",
"206 699 LINE",
"47 699 LINE",
"47 282 LINE SMOOTH",
"47 109 OFFCURVE",
"144 -15 OFFCURVE",
"356 -15 CURVE SMOOTH"
);
},
{
closed = 1;
nodes = (
"435 742 LINE",
"366 918 LINE",
"207 918 LINE",
"295 742 LINE"
);
}
);
width = 884;
}
);
leftKerningGroup = U;
note = Uhorngrave;
rightKerningGroup = U;
unicode = 1EEA;
},
{
glyphname = Uhornhookabove;
lastChange = "2015-11-30 01:13:22 +0000";
layers = (
{
layerId = "6C2100B3-2BA9-4AA0-8DCB-13254C7332A5";
name = SemiBold;
paths = (
{
closed = 1;
nodes = (
"567 -15 OFFCURVE",
"664 109 OFFCURVE",
"664 282 CURVE SMOOTH",
"664 516 LINE",
"817 517 OFFCURVE",
"877 598 OFFCURVE",
"877 703 CURVE SMOOTH",
"877 747 LINE",
"744 747 LINE",
"744 712 LINE SMOOTH",
"744 652 OFFCURVE",
"729 628 OFFCURVE",
"664 628 CURVE",
"664 699 LINE",
"504 699 LINE",
"504 283 LINE SMOOTH",
"504 179 OFFCURVE",
"449 130 OFFCURVE",
"356 130 CURVE SMOOTH",
"262 130 OFFCURVE",
"206 179 OFFCURVE",
"206 283 CURVE SMOOTH",
"206 699 LINE",
"47 699 LINE",
"47 282 LINE SMOOTH",
"47 109 OFFCURVE",
"144 -15 OFFCURVE",
"356 -15 CURVE SMOOTH"
);
},
{
closed = 1;
nodes = (
"418 742 LINE",
"418 771 LINE",
"475 783 OFFCURVE",
"507 821 OFFCURVE",
"507 869 CURVE SMOOTH",
"507 930 OFFCURVE",
"458 972 OFFCURVE",
"358 972 CURVE SMOOTH",
"320 972 OFFCURVE",
"275 965 OFFCURVE",
"249 957 CURVE",
"249 882 LINE",
"262 888 OFFCURVE",
"295 893 OFFCURVE",
"311 893 CURVE SMOOTH",
"354 893 OFFCURVE",
"371 882 OFFCURVE",
"371 858 CURVE SMOOTH",
"371 824 OFFCURVE",
"338 814 OFFCURVE",
"286 814 CURVE",
"286 742 LINE"
);
}
);
width = 884;
}
);
leftKerningGroup = U;
note = Uhornhookabove;
rightKerningGroup = U;
unicode = 1EEC;
},
{
glyphname = Uhorntilde;
lastChange = "2015-11-30 01:13:21 +0000";
layers = (
{
layerId = "6C2100B3-2BA9-4AA0-8DCB-13254C7332A5";
name = SemiBold;
paths = (
{
closed = 1;
nodes = (
"567 -15 OFFCURVE",
"664 109 OFFCURVE",
"664 282 CURVE SMOOTH",
"664 516 LINE",
"817 517 OFFCURVE",
"877 598 OFFCURVE",
"877 703 CURVE SMOOTH",
"877 747 LINE",
"744 747 LINE",
"744 712 LINE SMOOTH",
"744 652 OFFCURVE",
"729 628 OFFCURVE",
"664 628 CURVE",
"664 699 LINE",
"504 699 LINE",
"504 283 LINE SMOOTH",
"504 179 OFFCURVE",
"449 130 OFFCURVE",
"356 130 CURVE SMOOTH",
"262 130 OFFCURVE",
"206 179 OFFCURVE",
"206 283 CURVE SMOOTH",
"206 699 LINE",
"47 699 LINE",
"47 282 LINE SMOOTH",
"47 109 OFFCURVE",
"144 -15 OFFCURVE",
"356 -15 CURVE SMOOTH"
);
},
{
closed = 1;
nodes = (
"202 780 OFFCURVE",
"236 793 OFFCURVE",
"274 793 CURVE SMOOTH",
"338 793 OFFCURVE",
"394 743 OFFCURVE",
"467 743 CURVE SMOOTH",
"510 743 OFFCURVE",
"545 754 OFFCURVE",
"569 785 CURVE",
"569 900 LINE",
"540 863 OFFCURVE",
"506 850 OFFCURVE",
"467 850 CURVE SMOOTH",
"402 850 OFFCURVE",
"342 900 OFFCURVE",
"274 900 CURVE SMOOTH",
"232 900 OFFCURVE",
"195 888 OFFCURVE",
"171 857 CURVE",
"171 742 LINE"
);
}
);
width = 884;
}
);
leftKerningGroup = U;
note = Uhorntilde;
rightKerningGroup = U;
unicode = 1EEE;
},
{
glyphname = Uhungarumlaut;
lastChange = "2015-11-30 01:13:21 +0000";
layers = (
{
layerId = "6C2100B3-2BA9-4AA0-8DCB-13254C7332A5";
name = SemiBold;
paths = (
{
closed = 1;
nodes = (
"567 -15 OFFCURVE",
"663 109 OFFCURVE",
"663 282 CURVE SMOOTH",
"663 699 LINE",
"511 699 LINE",
"511 280 LINE SMOOTH",
"511 176 OFFCURVE",
"449 124 OFFCURVE",
"356 124 CURVE SMOOTH",
"262 124 OFFCURVE",
"199 176 OFFCURVE",
"199 280 CURVE SMOOTH",
"199 699 LINE",
"47 699 LINE",
"47 282 LINE SMOOTH",
"47 109 OFFCURVE",
"144 -15 OFFCURVE",
"356 -15 CURVE SMOOTH"
);
},
{
closed = 1;
nodes = (
"299 742 LINE",
"388 918 LINE",
"241 918 LINE",
"172 742 LINE"
);
},
{
closed = 1;
nodes = (
"537 742 LINE",
"625 918 LINE",
"479 918 LINE",
"410 742 LINE"
);
}
);
width = 711;
}
);
leftKerningGroup = U;
note = Uhungarumlaut;
rightKerningGroup = U;
unicode = 0170;
},
{
glyphname = Umacron;
lastChange = "2015-11-30 01:13:21 +0000";
layers = (
{
layerId = "6C2100B3-2BA9-4AA0-8DCB-13254C7332A5";
name = SemiBold;
paths = (
{
closed = 1;
nodes = (
"567 -15 OFFCURVE",
"663 109 OFFCURVE",
"663 282 CURVE SMOOTH",
"663 699 LINE",
"511 699 LINE",
"511 280 LINE SMOOTH",
"511 176 OFFCURVE",
"449 124 OFFCURVE",
"356 124 CURVE SMOOTH",
"262 124 OFFCURVE",
"199 176 OFFCURVE",
"199 280 CURVE SMOOTH",
"199 699 LINE",
"47 699 LINE",
"47 282 LINE SMOOTH",
"47 109 OFFCURVE",
"144 -15 OFFCURVE",
"356 -15 CURVE SMOOTH"
);
},
{
closed = 1;
nodes = (
"522 752 LINE",
"522 850 LINE",
"188 850 LINE",
"188 752 LINE"
);
}
);
width = 711;
}
);
leftKerningGroup = U;
note = Umacron;
rightKerningGroup = U;
unicode = 016A;
},
{
glyphname = Uogonek;
lastChange = "2015-11-30 01:13:22 +0000";
layers = (
{
layerId = "6C2100B3-2BA9-4AA0-8DCB-13254C7332A5";
name = SemiBold;
paths = (
{
closed = 1;
nodes = (
"567 -15 OFFCURVE",
"663 109 OFFCURVE",
"663 282 CURVE SMOOTH",
"663 699 LINE",
"511 699 LINE",
"511 280 LINE SMOOTH",
"511 176 OFFCURVE",
"449 124 OFFCURVE",
"356 124 CURVE SMOOTH",
"262 124 OFFCURVE",
"199 176 OFFCURVE",
"199 280 CURVE SMOOTH",
"199 699 LINE",
"47 699 LINE",
"47 282 LINE SMOOTH",
"47 109 OFFCURVE",
"144 -15 OFFCURVE",
"356 -15 CURVE SMOOTH"
);
},
{
closed = 1;
nodes = (
"392 -215 OFFCURVE",
"428 -209 OFFCURVE",
"451 -201 CURVE",
"451 -117 LINE",
"437 -124 OFFCURVE",
"420 -128 OFFCURVE",
"403 -128 CURVE SMOOTH",
"381 -128 OFFCURVE",
"366 -115 OFFCURVE",
"366 -92 CURVE SMOOTH",
"366 -58 OFFCURVE",
"392 -30 OFFCURVE",
"445 0 CURVE",
"307 0 LINE",
"265 -26 OFFCURVE",
"235 -67 OFFCURVE",
"235 -120 CURVE SMOOTH",
"235 -186 OFFCURVE",
"288 -215 OFFCURVE",
"356 -215 CURVE SMOOTH"
);
}
);
width = 711;
}
);
leftKerningGroup = U;
note = Uogonek;
rightKerningGroup = U;
unicode = 0172;
},
{
glyphname = Uring;
lastChange = "2015-11-30 01:13:21 +0000";
layers = (
{
layerId = "6C2100B3-2BA9-4AA0-8DCB-13254C7332A5";
name = SemiBold;
paths = (
{
closed = 1;
nodes = (
"567 -15 OFFCURVE",
"663 109 OFFCURVE",
"663 282 CURVE SMOOTH",
"663 699 LINE",
"511 699 LINE",
"511 280 LINE SMOOTH",
"511 176 OFFCURVE",
"449 124 OFFCURVE",
"356 124 CURVE SMOOTH",
"262 124 OFFCURVE",
"199 176 OFFCURVE",
"199 280 CURVE SMOOTH",
"199 699 LINE",
"47 699 LINE",
"47 282 LINE SMOOTH",
"47 109 OFFCURVE",
"144 -15 OFFCURVE",
"356 -15 CURVE SMOOTH"
);
},
{
closed = 1;
nodes = (
"428 742 OFFCURVE",
"488 800 OFFCURVE",
"488 874 CURVE SMOOTH",
"488 947 OFFCURVE",
"428 1006 OFFCURVE",
"355 1006 CURVE SMOOTH",
"281 1006 OFFCURVE",
"222 947 OFFCURVE",
"222 874 CURVE SMOOTH",
"222 800 OFFCURVE",
"281 742 OFFCURVE",
"355 742 CURVE SMOOTH"
);
},
{
closed = 1;
nodes = (
"328 825 OFFCURVE",
"306 847 OFFCURVE",
"306 874 CURVE SMOOTH",
"306 901 OFFCURVE",
"328 922 OFFCURVE",
"355 922 CURVE SMOOTH",
"382 922 OFFCURVE",
"403 901 OFFCURVE",
"403 874 CURVE SMOOTH",
"403 847 OFFCURVE",
"382 825 OFFCURVE",
"355 825 CURVE SMOOTH"
);
}
);
width = 711;
}
);
leftKerningGroup = U;
note = Uring;
rightKerningGroup = U;
unicode = 016E;
},
{
glyphname = Utilde;
lastChange = "2015-11-30 01:13:22 +0000";
layers = (
{
layerId = "6C2100B3-2BA9-4AA0-8DCB-13254C7332A5";
name = SemiBold;
paths = (
{
closed = 1;
nodes = (
"567 -15 OFFCURVE",
"663 109 OFFCURVE",
"663 282 CURVE SMOOTH",
"663 699 LINE",
"511 699 LINE",
"511 280 LINE SMOOTH",
"511 176 OFFCURVE",
"449 124 OFFCURVE",
"356 124 CURVE SMOOTH",
"262 124 OFFCURVE",
"199 176 OFFCURVE",
"199 280 CURVE SMOOTH",
"199 699 LINE",
"47 699 LINE",
"47 282 LINE SMOOTH",
"47 109 OFFCURVE",
"144 -15 OFFCURVE",
"356 -15 CURVE SMOOTH"
);
},
{
closed = 1;
nodes = (
"189 780 OFFCURVE",
"223 793 OFFCURVE",
"261 793 CURVE SMOOTH",
"325 793 OFFCURVE",
"381 743 OFFCURVE",
"454 743 CURVE SMOOTH",
"497 743 OFFCURVE",
"532 754 OFFCURVE",
"556 785 CURVE",
"556 900 LINE",
"527 863 OFFCURVE",
"493 850 OFFCURVE",
"454 850 CURVE SMOOTH",
"389 850 OFFCURVE",
"329 900 OFFCURVE",
"261 900 CURVE SMOOTH",
"219 900 OFFCURVE",
"182 888 OFFCURVE",
"158 857 CURVE",
"158 742 LINE"
);
}
);
width = 711;
}
);
leftKerningGroup = U;
note = Utilde;
rightKerningGroup = U;
unicode = 0168;
},
{
glyphname = V;
lastChange = "2015-11-30 01:13:19 +0000";
layers = (
{
layerId = "6C2100B3-2BA9-4AA0-8DCB-13254C7332A5";
name = SemiBold;
paths = (
{
closed = 1;
nodes = (
"461 0 LINE",
"740 699 LINE",
"579 699 LINE",
"386 202 LINE",
"194 699 LINE",
"32 699 LINE",
"312 0 LINE"
);
}
);
width = 772;
}
);
note = V;
unicode = 0056;
},
{
glyphname = W;
lastChange = "2015-11-30 01:13:19 +0000";
layers = (
{
layerId = "6C2100B3-2BA9-4AA0-8DCB-13254C7332A5";
name = SemiBold;
paths = (
{
closed = 1;
nodes = (
"372 0 LINE",
"496 443 LINE",
"621 0 LINE",
"764 0 LINE",
"960 699 LINE",
"801 699 LINE",
"676 247 LINE",
"557 699 LINE",
"440 699 LINE",
"317 247 LINE",
"192 699 LINE",
"32 699 LINE",
"228 0 LINE"
);
}
);
width = 993;
}
);
leftKerningGroup = W;
note = W;
rightKerningGroup = W;
unicode = 0057;
},
{
glyphname = Wacute;
lastChange = "2015-11-30 01:13:22 +0000";
layers = (
{
layerId = "6C2100B3-2BA9-4AA0-8DCB-13254C7332A5";
name = SemiBold;
paths = (
{
closed = 1;
nodes = (
"375 0 LINE",
"499 443 LINE",
"624 0 LINE",
"767 0 LINE",
"963 699 LINE",
"804 699 LINE",
"679 247 LINE",
"560 699 LINE",
"443 699 LINE",
"320 247 LINE",
"195 699 LINE",
"35 699 LINE",
"231 0 LINE"
);
},
{
closed = 1;
nodes = (
"575 742 LINE",
"664 918 LINE",
"505 918 LINE",
"436 742 LINE"
);
}
);
width = 999;
}
);
leftKerningGroup = W;
note = Wacute;
rightKerningGroup = W;
unicode = 1E82;
},
{
glyphname = Wcircumflex;
lastChange = "2015-11-30 01:13:21 +0000";
layers = (
{
layerId = "6C2100B3-2BA9-4AA0-8DCB-13254C7332A5";
name = SemiBold;
paths = (
{
closed = 1;
nodes = (
"375 0 LINE",
"499 443 LINE",
"624 0 LINE",
"767 0 LINE",
"963 699 LINE",
"804 699 LINE",
"679 247 LINE",
"560 699 LINE",
"443 699 LINE",
"320 247 LINE",
"195 699 LINE",
"35 699 LINE",
"231 0 LINE"
);
},
{
closed = 1;
nodes = (
"432 742 LINE",
"500 834 LINE",
"568 742 LINE",
"718 742 LINE",
"567 918 LINE",
"432 918 LINE",
"281 742 LINE"
);
}
);
width = 999;
}
);
leftKerningGroup = W;
note = Wcircumflex;
rightKerningGroup = W;
unicode = 0174;
},
{
glyphname = Wdieresis;
lastChange = "2015-11-30 01:13:21 +0000";
layers = (
{
layerId = "6C2100B3-2BA9-4AA0-8DCB-13254C7332A5";
name = SemiBold;
paths = (
{
closed = 1;
nodes = (
"375 0 LINE",
"499 443 LINE",
"624 0 LINE",
"767 0 LINE",
"963 699 LINE",
"804 699 LINE",
"679 247 LINE",
"560 699 LINE",
"443 699 LINE",
"320 247 LINE",
"195 699 LINE",
"35 699 LINE",
"231 0 LINE"
);
},
{
closed = 1;
nodes = (
"420 752 OFFCURVE",
"452 783 OFFCURVE",
"452 823 CURVE SMOOTH",
"452 863 OFFCURVE",
"420 895 OFFCURVE",
"381 895 CURVE SMOOTH",
"342 895 OFFCURVE",
"309 863 OFFCURVE",
"309 823 CURVE SMOOTH",
"309 783 OFFCURVE",
"342 752 OFFCURVE",
"381 752 CURVE SMOOTH"
);
},
{
closed = 1;
nodes = (
"656 752 OFFCURVE",
"689 783 OFFCURVE",
"689 823 CURVE SMOOTH",
"689 863 OFFCURVE",
"656 895 OFFCURVE",
"618 895 CURVE SMOOTH",
"579 895 OFFCURVE",
"545 863 OFFCURVE",
"545 823 CURVE SMOOTH",
"545 783 OFFCURVE",
"579 752 OFFCURVE",
"618 752 CURVE SMOOTH"
);
}
);
width = 999;
}
);
leftKerningGroup = W;
note = Wdieresis;
rightKerningGroup = W;
unicode = 1E84;
},
{
glyphname = Wgrave;
lastChange = "2015-11-30 01:13:21 +0000";
layers = (
{
layerId = "6C2100B3-2BA9-4AA0-8DCB-13254C7332A5";
name = SemiBold;
paths = (
{
closed = 1;
nodes = (
"375 0 LINE",
"499 443 LINE",
"624 0 LINE",
"767 0 LINE",
"963 699 LINE",
"804 699 LINE",
"679 247 LINE",
"560 699 LINE",
"443 699 LINE",
"320 247 LINE",
"195 699 LINE",
"35 699 LINE",
"231 0 LINE"
);
},
{
closed = 1;
nodes = (
"568 742 LINE",
"499 918 LINE",
"340 918 LINE",
"428 742 LINE"
);
}
);
width = 999;
}
);
leftKerningGroup = W;
note = Wgrave;
rightKerningGroup = W;
unicode = 1E80;
},
{
glyphname = X;
lastChange = "2015-11-30 01:13:19 +0000";
layers = (
{
layerId = "6C2100B3-2BA9-4AA0-8DCB-13254C7332A5";
name = SemiBold;
paths = (
{
closed = 1;
nodes = (
"206 0 LINE",
"375 232 LINE",
"544 0 LINE",
"718 0 LINE",
"462 352 LINE",
"715 699 LINE",
"541 699 LINE",
"375 471 LINE",
"210 699 LINE",
"36 699 LINE",
"288 352 LINE",
"32 0 LINE"
);
}
);
width = 750;
}
);
note = X;
unicode = 0058;
},
{
glyphname = Y;
lastChange = "2015-11-30 01:13:19 +0000";
layers = (
{
layerId = "6C2100B3-2BA9-4AA0-8DCB-13254C7332A5";
name = SemiBold;
paths = (
{
closed = 1;
nodes = (
"437 0 LINE",
"437 266 LINE",
"699 699 LINE",
"538 699 LINE",
"363 408 LINE",
"194 699 LINE",
"32 699 LINE",
"288 266 LINE",
"288 0 LINE"
);
}
);
width = 732;
}
);
leftKerningGroup = Y;
note = Y;
rightKerningGroup = Y;
unicode = 0059;
},
{
glyphname = Yacute;
lastChange = "2015-11-30 01:13:22 +0000";
layers = (
{
layerId = "6C2100B3-2BA9-4AA0-8DCB-13254C7332A5";
name = SemiBold;
paths = (
{
closed = 1;
nodes = (
"440 0 LINE",
"440 266 LINE",
"702 699 LINE",
"541 699 LINE",
"366 408 LINE",
"197 699 LINE",
"35 699 LINE",
"291 266 LINE",
"291 0 LINE"
);
},
{
closed = 1;
nodes = (
"427 742 LINE",
"516 918 LINE",
"357 918 LINE",
"288 742 LINE"
);
}
);
width = 738;
}
);
leftKerningGroup = Y;
note = Yacute;
rightKerningGroup = Y;
unicode = 00DD;
},
{
glyphname = Ycircumflex;
lastChange = "2015-11-30 01:13:21 +0000";
layers = (
{
layerId = "6C2100B3-2BA9-4AA0-8DCB-13254C7332A5";
name = SemiBold;
paths = (
{
closed = 1;
nodes = (
"440 0 LINE",
"440 266 LINE",
"702 699 LINE",
"541 699 LINE",
"366 408 LINE",
"197 699 LINE",
"35 699 LINE",
"291 266 LINE",
"291 0 LINE"
);
},
{
closed = 1;
nodes = (
"299 742 LINE",
"367 834 LINE",
"435 742 LINE",
"585 742 LINE",
"434 918 LINE",
"299 918 LINE",
"148 742 LINE"
);
}
);
width = 738;
}
);
leftKerningGroup = Y;
note = Ycircumflex;
rightKerningGroup = Y;
unicode = 0176;
},
{
glyphname = Ydieresis;
lastChange = "2015-11-30 01:13:21 +0000";
layers = (
{
layerId = "6C2100B3-2BA9-4AA0-8DCB-13254C7332A5";
name = SemiBold;
paths = (
{
closed = 1;
nodes = (
"440 0 LINE",
"440 266 LINE",
"702 699 LINE",
"541 699 LINE",
"366 408 LINE",
"197 699 LINE",
"35 699 LINE",
"291 266 LINE",
"291 0 LINE"
);
},
{
closed = 1;
nodes = (
"287 752 OFFCURVE",
"319 783 OFFCURVE",
"319 823 CURVE SMOOTH",
"319 863 OFFCURVE",
"287 895 OFFCURVE",
"248 895 CURVE SMOOTH",
"209 895 OFFCURVE",
"176 863 OFFCURVE",
"176 823 CURVE SMOOTH",
"176 783 OFFCURVE",
"209 752 OFFCURVE",
"248 752 CURVE SMOOTH"
);
},
{
closed = 1;
nodes = (
"523 752 OFFCURVE",
"556 783 OFFCURVE",
"556 823 CURVE SMOOTH",
"556 863 OFFCURVE",
"523 895 OFFCURVE",
"485 895 CURVE SMOOTH",
"446 895 OFFCURVE",
"412 863 OFFCURVE",
"412 823 CURVE SMOOTH",
"412 783 OFFCURVE",
"446 752 OFFCURVE",
"485 752 CURVE SMOOTH"
);
}
);
width = 738;
}
);
leftKerningGroup = Y;
note = Ydieresis;
rightKerningGroup = Y;
unicode = 0178;
},
{
glyphname = Ydotaccent;
lastChange = "2015-11-30 01:13:22 +0000";
layers = (
{
layerId = "6C2100B3-2BA9-4AA0-8DCB-13254C7332A5";
name = SemiBold;
paths = (
{
closed = 1;
nodes = (
"440 0 LINE",
"440 266 LINE",
"702 699 LINE",
"541 699 LINE",
"366 408 LINE",
"197 699 LINE",
"35 699 LINE",
"291 266 LINE",
"291 0 LINE"
);
},
{
closed = 1;
nodes = (
"406 752 OFFCURVE",
"438 783 OFFCURVE",
"438 823 CURVE SMOOTH",
"438 863 OFFCURVE",
"406 895 OFFCURVE",
"367 895 CURVE SMOOTH",
"328 895 OFFCURVE",
"294 863 OFFCURVE",
"294 823 CURVE SMOOTH",
"294 783 OFFCURVE",
"328 752 OFFCURVE",
"367 752 CURVE SMOOTH"
);
}
);
width = 738;
}
);
leftKerningGroup = Y;
note = Ydotaccent;
rightKerningGroup = Y;
unicode = 1E8E;
},
{
glyphname = Ydotbelow;
lastChange = "2015-11-30 01:13:22 +0000";
layers = (
{
layerId = "6C2100B3-2BA9-4AA0-8DCB-13254C7332A5";
name = SemiBold;
paths = (
{
closed = 1;
nodes = (
"440 0 LINE",
"440 266 LINE",
"702 699 LINE",
"541 699 LINE",
"366 408 LINE",
"197 699 LINE",
"35 699 LINE",
"291 266 LINE",
"291 0 LINE"
);
},
{
closed = 1;
nodes = (
"407 -190 OFFCURVE",
"439 -158 OFFCURVE",
"439 -118 CURVE SMOOTH",
"439 -78 OFFCURVE",
"407 -46 OFFCURVE",
"368 -46 CURVE SMOOTH",
"329 -46 OFFCURVE",
"295 -78 OFFCURVE",
"295 -118 CURVE SMOOTH",
"295 -158 OFFCURVE",
"329 -190 OFFCURVE",
"368 -190 CURVE SMOOTH"
);
}
);
width = 738;
}
);
leftKerningGroup = Y;
note = Ydotbelow;
rightKerningGroup = Y;
unicode = 1EF4;
},
{
glyphname = Ygrave;
lastChange = "2015-11-30 01:13:21 +0000";
layers = (
{
layerId = "6C2100B3-2BA9-4AA0-8DCB-13254C7332A5";
name = SemiBold;
paths = (
{
closed = 1;
nodes = (
"440 0 LINE",
"440 266 LINE",
"702 699 LINE",
"541 699 LINE",
"366 408 LINE",
"197 699 LINE",
"35 699 LINE",
"291 266 LINE",
"291 0 LINE"
);
},
{
closed = 1;
nodes = (
"449 742 LINE",
"380 918 LINE",
"221 918 LINE",
"309 742 LINE"
);
}
);
width = 738;
}
);
leftKerningGroup = Y;
note = Ygrave;
rightKerningGroup = Y;
unicode = 1EF2;
},
{
glyphname = Yhookabove;
lastChange = "2015-11-30 01:13:21 +0000";
layers = (
{
layerId = "6C2100B3-2BA9-4AA0-8DCB-13254C7332A5";
name = SemiBold;
paths = (
{
closed = 1;
nodes = (
"440 0 LINE",
"440 266 LINE",
"702 699 LINE",
"541 699 LINE",
"366 408 LINE",
"197 699 LINE",
"35 699 LINE",
"291 266 LINE",
"291 0 LINE"
);
},
{
closed = 1;
nodes = (
"435 742 LINE",
"435 771 LINE",
"492 783 OFFCURVE",
"524 821 OFFCURVE",
"524 869 CURVE SMOOTH",
"524 930 OFFCURVE",
"475 972 OFFCURVE",
"375 972 CURVE SMOOTH",
"337 972 OFFCURVE",
"292 965 OFFCURVE",
"266 957 CURVE",
"266 882 LINE",
"279 888 OFFCURVE",
"312 893 OFFCURVE",
"328 893 CURVE SMOOTH",
"371 893 OFFCURVE",
"388 882 OFFCURVE",
"388 858 CURVE SMOOTH",
"388 824 OFFCURVE",
"355 814 OFFCURVE",
"303 814 CURVE",
"303 742 LINE"
);
}
);
width = 738;
}
);
leftKerningGroup = Y;
note = Yhookabove;
rightKerningGroup = Y;
unicode = 1EF6;
},
{
glyphname = Ytilde;
lastChange = "2015-11-30 01:13:21 +0000";
layers = (
{
layerId = "6C2100B3-2BA9-4AA0-8DCB-13254C7332A5";
name = SemiBold;
paths = (
{
closed = 1;
nodes = (
"440 0 LINE",
"440 266 LINE",
"702 699 LINE",
"541 699 LINE",
"366 408 LINE",
"197 699 LINE",
"35 699 LINE",
"291 266 LINE",
"291 0 LINE"
);
},
{
closed = 1;
nodes = (
"198 780 OFFCURVE",
"232 793 OFFCURVE",
"270 793 CURVE SMOOTH",
"334 793 OFFCURVE",
"390 743 OFFCURVE",
"463 743 CURVE SMOOTH",
"506 743 OFFCURVE",
"541 754 OFFCURVE",
"565 785 CURVE",
"565 900 LINE",
"536 863 OFFCURVE",
"502 850 OFFCURVE",
"463 850 CURVE SMOOTH",
"398 850 OFFCURVE",
"338 900 OFFCURVE",
"270 900 CURVE SMOOTH",
"228 900 OFFCURVE",
"191 888 OFFCURVE",
"167 857 CURVE",
"167 742 LINE"
);
}
);
width = 738;
}
);
leftKerningGroup = Y;
note = Ytilde;
rightKerningGroup = Y;
unicode = 1EF8;
},
{
glyphname = Z;
lastChange = "2015-11-30 01:13:19 +0000";
layers = (
{
layerId = "6C2100B3-2BA9-4AA0-8DCB-13254C7332A5";
name = SemiBold;
paths = (
{
closed = 1;
nodes = (
"582 0 LINE",
"582 127 LINE",
"222 127 LINE",
"562 597 LINE",
"562 699 LINE",
"41 699 LINE",
"41 572 LINE",
"374 572 LINE",
"32 101 LINE",
"32 0 LINE"
);
}
);
width = 615;
}
);
leftKerningGroup = Z;
note = Z;
rightKerningGroup = Z;
unicode = 005A;
},
{
glyphname = Zacute;
lastChange = "2015-11-30 01:13:21 +0000";
layers = (
{
layerId = "6C2100B3-2BA9-4AA0-8DCB-13254C7332A5";
name = SemiBold;
paths = (
{
closed = 1;
nodes = (
"582 0 LINE",
"582 127 LINE",
"222 127 LINE",
"562 597 LINE",
"562 699 LINE",
"41 699 LINE",
"41 572 LINE",
"374 572 LINE",
"32 101 LINE",
"32 0 LINE"
);
},
{
closed = 1;
nodes = (
"358 742 LINE",
"447 918 LINE",
"288 918 LINE",
"219 742 LINE"
);
}
);
width = 615;
}
);
leftKerningGroup = Z;
note = Zacute;
rightKerningGroup = Z;
unicode = 0179;
},
{
glyphname = Zcaron;
lastChange = "2015-11-30 01:13:22 +0000";
layers = (
{
layerId = "6C2100B3-2BA9-4AA0-8DCB-13254C7332A5";
name = SemiBold;
paths = (
{
closed = 1;
nodes = (
"582 0 LINE",
"582 127 LINE",
"222 127 LINE",
"562 597 LINE",
"562 699 LINE",
"41 699 LINE",
"41 572 LINE",
"374 572 LINE",
"32 101 LINE",
"32 0 LINE"
);
},
{
closed = 1;
nodes = (
"376 742 LINE",
"527 918 LINE",
"377 918 LINE",
"309 826 LINE",
"241 918 LINE",
"90 918 LINE",
"241 742 LINE"
);
}
);
width = 615;
}
);
leftKerningGroup = Z;
note = Zcaron;
rightKerningGroup = Z;
unicode = 017D;
},
{
glyphname = Zdotaccent;
lastChange = "2015-11-30 01:13:22 +0000";
layers = (
{
layerId = "6C2100B3-2BA9-4AA0-8DCB-13254C7332A5";
name = SemiBold;
paths = (
{
closed = 1;
nodes = (
"582 0 LINE",
"582 127 LINE",
"222 127 LINE",
"562 597 LINE",
"562 699 LINE",
"41 699 LINE",
"41 572 LINE",
"374 572 LINE",
"32 101 LINE",
"32 0 LINE"
);
},
{
closed = 1;
nodes = (
"342 752 OFFCURVE",
"374 783 OFFCURVE",
"374 823 CURVE SMOOTH",
"374 863 OFFCURVE",
"342 895 OFFCURVE",
"303 895 CURVE SMOOTH",
"264 895 OFFCURVE",
"230 863 OFFCURVE",
"230 823 CURVE SMOOTH",
"230 783 OFFCURVE",
"264 752 OFFCURVE",
"303 752 CURVE SMOOTH"
);
}
);
width = 615;
}
);
leftKerningGroup = Z;
note = Zdotaccent;
rightKerningGroup = Z;
unicode = 017B;
},
{
glyphname = Zdotbelow;
lastChange = "2015-11-30 01:13:22 +0000";
layers = (
{
layerId = "6C2100B3-2BA9-4AA0-8DCB-13254C7332A5";
name = SemiBold;
paths = (
{
closed = 1;
nodes = (
"582 0 LINE",
"582 127 LINE",
"222 127 LINE",
"562 597 LINE",
"562 699 LINE",
"41 699 LINE",
"41 572 LINE",
"374 572 LINE",
"32 101 LINE",
"32 0 LINE"
);
},
{
closed = 1;
nodes = (
"354 -190 OFFCURVE",
"386 -158 OFFCURVE",
"386 -118 CURVE SMOOTH",
"386 -78 OFFCURVE",
"354 -46 OFFCURVE",
"315 -46 CURVE SMOOTH",
"276 -46 OFFCURVE",
"242 -78 OFFCURVE",
"242 -118 CURVE SMOOTH",
"242 -158 OFFCURVE",
"276 -190 OFFCURVE",
"315 -190 CURVE SMOOTH"
);
}
);
width = 615;
}
);
leftKerningGroup = Z;
note = Zdotbelow;
rightKerningGroup = Z;
unicode = 1E92;
},
{
glyphname = a;
lastChange = "2015-11-30 01:13:22 +0000";
layers = (
{
layerId = "6C2100B3-2BA9-4AA0-8DCB-13254C7332A5";
name = SemiBold;
paths = (
{
closed = 1;
nodes = (
"308 -15 OFFCURVE",
"359 9 OFFCURVE",
"395 44 CURVE",
"395 0 LINE",
"537 0 LINE",
"537 292 LINE SMOOTH",
"537 415 OFFCURVE",
"457 495 OFFCURVE",
"279 495 CURVE SMOOTH",
"209 495 OFFCURVE",
"135 480 OFFCURVE",
"94 462 CURVE",
"94 352 LINE",
"139 372 OFFCURVE",
"197 385 OFFCURVE",
"256 385 CURVE SMOOTH",
"344 385 OFFCURVE",
"386 358 OFFCURVE",
"386 298 CURVE SMOOTH",
"386 286 LINE",
"347 307 OFFCURVE",
"293 320 OFFCURVE",
"235 320 CURVE SMOOTH",
"105 320 OFFCURVE",
"32 258 OFFCURVE",
"32 151 CURVE SMOOTH",
"32 46 OFFCURVE",
"116 -15 OFFCURVE",
"231 -15 CURVE SMOOTH"
);
},
{
closed = 1;
nodes = (
"217 85 OFFCURVE",
"187 108 OFFCURVE",
"187 151 CURVE SMOOTH",
"187 197 OFFCURVE",
"218 220 OFFCURVE",
"274 220 CURVE SMOOTH",
"316 220 OFFCURVE",
"353 208 OFFCURVE",
"386 186 CURVE",
"386 138 LINE",
"364 105 OFFCURVE",
"321 85 OFFCURVE",
"272 85 CURVE SMOOTH"
);
}
);
width = 585;
}
);
leftKerningGroup = a;
note = a;
rightKerningGroup = a;
unicode = 0061;
},
{
glyphname = aacute;
lastChange = "2015-11-30 01:13:21 +0000";
layers = (
{
layerId = "6C2100B3-2BA9-4AA0-8DCB-13254C7332A5";
name = SemiBold;
paths = (
{
closed = 1;
nodes = (
"308 -15 OFFCURVE",
"359 9 OFFCURVE",
"395 44 CURVE",
"395 0 LINE",
"537 0 LINE",
"537 292 LINE SMOOTH",
"537 415 OFFCURVE",
"457 495 OFFCURVE",
"279 495 CURVE SMOOTH",
"209 495 OFFCURVE",
"135 480 OFFCURVE",
"94 462 CURVE",
"94 352 LINE",
"139 372 OFFCURVE",
"197 385 OFFCURVE",
"256 385 CURVE SMOOTH",
"344 385 OFFCURVE",
"386 358 OFFCURVE",
"386 298 CURVE SMOOTH",
"386 286 LINE",
"347 307 OFFCURVE",
"293 320 OFFCURVE",
"235 320 CURVE SMOOTH",
"105 320 OFFCURVE",
"32 258 OFFCURVE",
"32 151 CURVE SMOOTH",
"32 46 OFFCURVE",
"116 -15 OFFCURVE",
"231 -15 CURVE SMOOTH"
);
},
{
closed = 1;
nodes = (
"217 85 OFFCURVE",
"187 108 OFFCURVE",
"187 151 CURVE SMOOTH",
"187 197 OFFCURVE",
"218 220 OFFCURVE",
"274 220 CURVE SMOOTH",
"316 220 OFFCURVE",
"353 208 OFFCURVE",
"386 186 CURVE",
"386 138 LINE",
"364 105 OFFCURVE",
"321 85 OFFCURVE",
"272 85 CURVE SMOOTH"
);
},
{
closed = 1;
nodes = (
"365 535 LINE",
"454 711 LINE",
"295 711 LINE",
"226 535 LINE"
);
}
);
width = 585;
}
);
leftKerningGroup = a;
note = aacute;
rightKerningGroup = a;
unicode = 00E1;
},
{
glyphname = abreve;
lastChange = "2015-11-30 01:13:22 +0000";
layers = (
{
layerId = "6C2100B3-2BA9-4AA0-8DCB-13254C7332A5";
name = SemiBold;
paths = (
{
closed = 1;
nodes = (
"308 -15 OFFCURVE",
"359 9 OFFCURVE",
"395 44 CURVE",
"395 0 LINE",
"537 0 LINE",
"537 292 LINE SMOOTH",
"537 415 OFFCURVE",
"457 495 OFFCURVE",
"279 495 CURVE SMOOTH",
"209 495 OFFCURVE",
"135 480 OFFCURVE",
"94 462 CURVE",
"94 352 LINE",
"139 372 OFFCURVE",
"197 385 OFFCURVE",
"256 385 CURVE SMOOTH",
"344 385 OFFCURVE",
"386 358 OFFCURVE",
"386 298 CURVE SMOOTH",
"386 286 LINE",
"347 307 OFFCURVE",
"293 320 OFFCURVE",
"235 320 CURVE SMOOTH",
"105 320 OFFCURVE",
"32 258 OFFCURVE",
"32 151 CURVE SMOOTH",
"32 46 OFFCURVE",
"116 -15 OFFCURVE",
"231 -15 CURVE SMOOTH"
);
},
{
closed = 1;
nodes = (
"217 85 OFFCURVE",
"187 108 OFFCURVE",
"187 151 CURVE SMOOTH",
"187 197 OFFCURVE",
"218 220 OFFCURVE",
"274 220 CURVE SMOOTH",
"316 220 OFFCURVE",
"353 208 OFFCURVE",
"386 186 CURVE",
"386 138 LINE",
"364 105 OFFCURVE",
"321 85 OFFCURVE",
"272 85 CURVE SMOOTH"
);
},
{
closed = 1;
nodes = (
"424 535 OFFCURVE",
"487 600 OFFCURVE",
"487 697 CURVE",
"374 697 LINE",
"374 655 OFFCURVE",
"352 633 OFFCURVE",
"315 633 CURVE SMOOTH",
"277 633 OFFCURVE",
"256 655 OFFCURVE",
"256 697 CURVE",
"143 697 LINE",
"143 600 OFFCURVE",
"206 535 OFFCURVE",
"315 535 CURVE SMOOTH"
);
}
);
width = 585;
}
);
leftKerningGroup = a;
note = abreve;
rightKerningGroup = a;
unicode = 0103;
},
{
glyphname = abreveacute;
lastChange = "2015-11-30 01:13:21 +0000";
layers = (
{
layerId = "6C2100B3-2BA9-4AA0-8DCB-13254C7332A5";
name = SemiBold;
paths = (
{
closed = 1;
nodes = (
"308 -15 OFFCURVE",
"359 9 OFFCURVE",
"395 44 CURVE",
"395 0 LINE",
"537 0 LINE",
"537 292 LINE SMOOTH",
"537 415 OFFCURVE",
"457 495 OFFCURVE",
"279 495 CURVE SMOOTH",
"209 495 OFFCURVE",
"135 480 OFFCURVE",
"94 462 CURVE",
"94 352 LINE",
"139 372 OFFCURVE",
"197 385 OFFCURVE",
"256 385 CURVE SMOOTH",
"344 385 OFFCURVE",
"386 358 OFFCURVE",
"386 298 CURVE SMOOTH",
"386 286 LINE",
"347 307 OFFCURVE",
"293 320 OFFCURVE",
"235 320 CURVE SMOOTH",
"105 320 OFFCURVE",
"32 258 OFFCURVE",
"32 151 CURVE SMOOTH",
"32 46 OFFCURVE",
"116 -15 OFFCURVE",
"231 -15 CURVE SMOOTH"
);
},
{
closed = 1;
nodes = (
"217 85 OFFCURVE",
"187 108 OFFCURVE",
"187 151 CURVE SMOOTH",
"187 197 OFFCURVE",
"218 220 OFFCURVE",
"274 220 CURVE SMOOTH",
"316 220 OFFCURVE",
"353 208 OFFCURVE",
"386 186 CURVE",
"386 138 LINE",
"364 105 OFFCURVE",
"321 85 OFFCURVE",
"272 85 CURVE SMOOTH"
);
},
{
closed = 1;
nodes = (
"410 535 OFFCURVE",
"473 592 OFFCURVE",
"473 683 CURVE",
"369 683 LINE",
"369 643 OFFCURVE",
"348 624 OFFCURVE",
"309 624 CURVE SMOOTH",
"269 624 OFFCURVE",
"248 643 OFFCURVE",
"248 683 CURVE",
"144 683 LINE",
"144 592 OFFCURVE",
"208 535 OFFCURVE",
"309 535 CURVE SMOOTH"
);
},
{
closed = 1;
nodes = (
"361 696 LINE",
"430 823 LINE",
"307 823 LINE",
"256 696 LINE"
);
}
);
width = 585;
}
);
leftKerningGroup = a;
note = abreveacute;
rightKerningGroup = a;
unicode = 1EAF;
},
{
glyphname = abrevedotbelow;
lastChange = "2015-11-30 01:13:22 +0000";
layers = (
{
layerId = "6C2100B3-2BA9-4AA0-8DCB-13254C7332A5";
name = SemiBold;
paths = (
{
closed = 1;
nodes = (
"308 -15 OFFCURVE",
"359 9 OFFCURVE",
"395 44 CURVE",
"395 0 LINE",
"537 0 LINE",
"537 292 LINE SMOOTH",
"537 415 OFFCURVE",
"457 495 OFFCURVE",
"279 495 CURVE SMOOTH",
"209 495 OFFCURVE",
"135 480 OFFCURVE",
"94 462 CURVE",
"94 352 LINE",
"139 372 OFFCURVE",
"197 385 OFFCURVE",
"256 385 CURVE SMOOTH",
"344 385 OFFCURVE",
"386 358 OFFCURVE",
"386 298 CURVE SMOOTH",
"386 286 LINE",
"347 307 OFFCURVE",
"293 320 OFFCURVE",
"235 320 CURVE SMOOTH",
"105 320 OFFCURVE",
"32 258 OFFCURVE",
"32 151 CURVE SMOOTH",
"32 46 OFFCURVE",
"116 -15 OFFCURVE",
"231 -15 CURVE SMOOTH"
);
},
{
closed = 1;
nodes = (
"339 -190 OFFCURVE",
"371 -158 OFFCURVE",
"371 -118 CURVE SMOOTH",
"371 -78 OFFCURVE",
"339 -46 OFFCURVE",
"300 -46 CURVE SMOOTH",
"261 -46 OFFCURVE",
"227 -78 OFFCURVE",
"227 -118 CURVE SMOOTH",
"227 -158 OFFCURVE",
"261 -190 OFFCURVE",
"300 -190 CURVE SMOOTH"
);
},
{
closed = 1;
nodes = (
"217 85 OFFCURVE",
"187 108 OFFCURVE",
"187 151 CURVE SMOOTH",
"187 197 OFFCURVE",
"218 220 OFFCURVE",
"274 220 CURVE SMOOTH",
"316 220 OFFCURVE",
"353 208 OFFCURVE",
"386 186 CURVE",
"386 138 LINE",
"364 105 OFFCURVE",
"321 85 OFFCURVE",
"272 85 CURVE SMOOTH"
);
},
{
closed = 1;
nodes = (
"413 535 OFFCURVE",
"476 600 OFFCURVE",
"476 697 CURVE",
"363 697 LINE",
"363 655 OFFCURVE",
"341 633 OFFCURVE",
"304 633 CURVE SMOOTH",
"266 633 OFFCURVE",
"245 655 OFFCURVE",
"245 697 CURVE",
"132 697 LINE",
"132 600 OFFCURVE",
"195 535 OFFCURVE",
"304 535 CURVE SMOOTH"
);
}
);
width = 585;
}
);
leftKerningGroup = a;
note = abrevedotbelow;
rightKerningGroup = a;
unicode = 1EB7;
},
{
glyphname = abrevegrave;
lastChange = "2015-11-30 01:13:22 +0000";
layers = (
{
layerId = "6C2100B3-2BA9-4AA0-8DCB-13254C7332A5";
name = SemiBold;
paths = (
{
closed = 1;
nodes = (
"308 -15 OFFCURVE",
"359 9 OFFCURVE",
"395 44 CURVE",
"395 0 LINE",
"537 0 LINE",
"537 292 LINE SMOOTH",
"537 415 OFFCURVE",
"457 495 OFFCURVE",
"279 495 CURVE SMOOTH",
"209 495 OFFCURVE",
"135 480 OFFCURVE",
"94 462 CURVE",
"94 352 LINE",
"139 372 OFFCURVE",
"197 385 OFFCURVE",
"256 385 CURVE SMOOTH",
"344 385 OFFCURVE",
"386 358 OFFCURVE",
"386 298 CURVE SMOOTH",
"386 286 LINE",
"347 307 OFFCURVE",
"293 320 OFFCURVE",
"235 320 CURVE SMOOTH",
"105 320 OFFCURVE",
"32 258 OFFCURVE",
"32 151 CURVE SMOOTH",
"32 46 OFFCURVE",
"116 -15 OFFCURVE",
"231 -15 CURVE SMOOTH"
);
},
{
closed = 1;
nodes = (
"217 85 OFFCURVE",
"187 108 OFFCURVE",
"187 151 CURVE SMOOTH",
"187 197 OFFCURVE",
"218 220 OFFCURVE",
"274 220 CURVE SMOOTH",
"316 220 OFFCURVE",
"353 208 OFFCURVE",
"386 186 CURVE",
"386 138 LINE",
"364 105 OFFCURVE",
"321 85 OFFCURVE",
"272 85 CURVE SMOOTH"
);
},
{
closed = 1;
nodes = (
"408 535 OFFCURVE",
"471 592 OFFCURVE",
"471 683 CURVE",
"368 683 LINE",
"368 643 OFFCURVE",
"346 624 OFFCURVE",
"307 624 CURVE SMOOTH",
"267 624 OFFCURVE",
"246 643 OFFCURVE",
"246 683 CURVE",
"142 683 LINE",
"142 592 OFFCURVE",
"206 535 OFFCURVE",
"307 535 CURVE SMOOTH"
);
},
{
closed = 1;
nodes = (
"359 696 LINE",
"308 823 LINE",
"186 823 LINE",
"254 696 LINE"
);
}
);
width = 585;
}
);
leftKerningGroup = a;
note = abrevegrave;
rightKerningGroup = a;
unicode = 1EB1;
},
{
glyphname = abrevehookabove;
lastChange = "2015-11-30 01:13:22 +0000";
layers = (
{
layerId = "6C2100B3-2BA9-4AA0-8DCB-13254C7332A5";
name = SemiBold;
paths = (
{
closed = 1;
nodes = (
"308 -15 OFFCURVE",
"359 9 OFFCURVE",
"395 44 CURVE",
"395 0 LINE",
"537 0 LINE",
"537 292 LINE SMOOTH",
"537 415 OFFCURVE",
"457 495 OFFCURVE",
"279 495 CURVE SMOOTH",
"209 495 OFFCURVE",
"135 480 OFFCURVE",
"94 462 CURVE",
"94 352 LINE",
"139 372 OFFCURVE",
"197 385 OFFCURVE",
"256 385 CURVE SMOOTH",
"344 385 OFFCURVE",
"386 358 OFFCURVE",
"386 298 CURVE SMOOTH",
"386 286 LINE",
"347 307 OFFCURVE",
"293 320 OFFCURVE",
"235 320 CURVE SMOOTH",
"105 320 OFFCURVE",
"32 258 OFFCURVE",
"32 151 CURVE SMOOTH",
"32 46 OFFCURVE",
"116 -15 OFFCURVE",
"231 -15 CURVE SMOOTH"
);
},
{
closed = 1;
nodes = (
"217 85 OFFCURVE",
"187 108 OFFCURVE",
"187 151 CURVE SMOOTH",
"187 197 OFFCURVE",
"218 220 OFFCURVE",
"274 220 CURVE SMOOTH",
"316 220 OFFCURVE",
"353 208 OFFCURVE",
"386 186 CURVE",
"386 138 LINE",
"364 105 OFFCURVE",
"321 85 OFFCURVE",
"272 85 CURVE SMOOTH"
);
},
{
closed = 1;
nodes = (
"408 535 OFFCURVE",
"472 592 OFFCURVE",
"472 683 CURVE",
"369 683 LINE",
"369 643 OFFCURVE",
"347 623 OFFCURVE",
"307 623 CURVE SMOOTH",
"268 623 OFFCURVE",
"246 643 OFFCURVE",
"246 683 CURVE",
"143 683 LINE",
"143 592 OFFCURVE",
"206 535 OFFCURVE",
"307 535 CURVE SMOOTH"
);
},
{
closed = 1;
nodes = (
"357 685 LINE",
"357 706 LINE",
"397 714 OFFCURVE",
"419 738 OFFCURVE",
"419 773 CURVE SMOOTH",
"419 816 OFFCURVE",
"383 845 OFFCURVE",
"316 845 CURVE SMOOTH",
"291 845 OFFCURVE",
"257 840 OFFCURVE",
"238 833 CURVE",
"238 779 LINE",
"246 784 OFFCURVE",
"263 787 OFFCURVE",
"276 787 CURVE SMOOTH",
"304 787 OFFCURVE",
"317 781 OFFCURVE",
"317 762 CURVE SMOOTH",
"317 740 OFFCURVE",
"298 734 OFFCURVE",
"263 734 CURVE",
"263 685 LINE"
);
}
);
width = 585;
}
);
leftKerningGroup = a;
note = abrevehookabove;
rightKerningGroup = a;
unicode = 1EB3;
},
{
glyphname = abrevetilde;
lastChange = "2015-11-30 01:13:21 +0000";
layers = (
{
layerId = "6C2100B3-2BA9-4AA0-8DCB-13254C7332A5";
name = SemiBold;
paths = (
{
closed = 1;
nodes = (
"308 -15 OFFCURVE",
"359 9 OFFCURVE",
"395 44 CURVE",
"395 0 LINE",
"537 0 LINE",
"537 292 LINE SMOOTH",
"537 415 OFFCURVE",
"457 495 OFFCURVE",
"279 495 CURVE SMOOTH",
"209 495 OFFCURVE",
"135 480 OFFCURVE",
"94 462 CURVE",
"94 352 LINE",
"139 372 OFFCURVE",
"197 385 OFFCURVE",
"256 385 CURVE SMOOTH",
"344 385 OFFCURVE",
"386 358 OFFCURVE",
"386 298 CURVE SMOOTH",
"386 286 LINE",
"347 307 OFFCURVE",
"293 320 OFFCURVE",
"235 320 CURVE SMOOTH",
"105 320 OFFCURVE",
"32 258 OFFCURVE",
"32 151 CURVE SMOOTH",
"32 46 OFFCURVE",
"116 -15 OFFCURVE",
"231 -15 CURVE SMOOTH"
);
},
{
closed = 1;
nodes = (
"217 85 OFFCURVE",
"187 108 OFFCURVE",
"187 151 CURVE SMOOTH",
"187 197 OFFCURVE",
"218 220 OFFCURVE",
"274 220 CURVE SMOOTH",
"316 220 OFFCURVE",
"353 208 OFFCURVE",
"386 186 CURVE",
"386 138 LINE",
"364 105 OFFCURVE",
"321 85 OFFCURVE",
"272 85 CURVE SMOOTH"
);
},
{
closed = 1;
nodes = (
"422 535 OFFCURVE",
"485 592 OFFCURVE",
"485 683 CURVE",
"382 683 LINE",
"382 643 OFFCURVE",
"360 624 OFFCURVE",
"321 624 CURVE SMOOTH",
"281 624 OFFCURVE",
"260 643 OFFCURVE",
"260 683 CURVE",
"156 683 LINE",
"156 592 OFFCURVE",
"220 535 OFFCURVE",
"321 535 CURVE SMOOTH"
);
},
{
closed = 1;
nodes = (
"435 716 OFFCURVE",
"462 726 OFFCURVE",
"480 750 CURVE",
"480 846 LINE",
"457 816 OFFCURVE",
"431 804 OFFCURVE",
"400 804 CURVE SMOOTH",
"350 804 OFFCURVE",
"294 847 OFFCURVE",
"243 847 CURVE SMOOTH",
"207 847 OFFCURVE",
"180 837 OFFCURVE",
"162 812 CURVE",
"162 717 LINE",
"186 747 OFFCURVE",
"211 759 OFFCURVE",
"243 759 CURVE SMOOTH",
"291 759 OFFCURVE",
"344 716 OFFCURVE",
"400 716 CURVE SMOOTH"
);
}
);
width = 585;
}
);
leftKerningGroup = a;
note = abrevetilde;
rightKerningGroup = a;
unicode = 1EB5;
},
{
glyphname = acaron;
lastChange = "2015-11-30 01:13:22 +0000";
layers = (
{
layerId = "6C2100B3-2BA9-4AA0-8DCB-13254C7332A5";
name = SemiBold;
paths = (
{
closed = 1;
nodes = (
"308 -15 OFFCURVE",
"359 9 OFFCURVE",
"395 44 CURVE",
"395 0 LINE",
"537 0 LINE",
"537 292 LINE SMOOTH",
"537 415 OFFCURVE",
"457 495 OFFCURVE",
"279 495 CURVE SMOOTH",
"209 495 OFFCURVE",
"135 480 OFFCURVE",
"94 462 CURVE",
"94 352 LINE",
"139 372 OFFCURVE",
"197 385 OFFCURVE",
"256 385 CURVE SMOOTH",
"344 385 OFFCURVE",
"386 358 OFFCURVE",
"386 298 CURVE SMOOTH",
"386 286 LINE",
"347 307 OFFCURVE",
"293 320 OFFCURVE",
"235 320 CURVE SMOOTH",
"105 320 OFFCURVE",
"32 258 OFFCURVE",
"32 151 CURVE SMOOTH",
"32 46 OFFCURVE",
"116 -15 OFFCURVE",
"231 -15 CURVE SMOOTH"
);
},
{
closed = 1;
nodes = (
"217 85 OFFCURVE",
"187 108 OFFCURVE",
"187 151 CURVE SMOOTH",
"187 197 OFFCURVE",
"218 220 OFFCURVE",
"274 220 CURVE SMOOTH",
"316 220 OFFCURVE",
"353 208 OFFCURVE",
"386 186 CURVE",
"386 138 LINE",
"364 105 OFFCURVE",
"321 85 OFFCURVE",
"272 85 CURVE SMOOTH"
);
},
{
closed = 1;
nodes = (
"389 535 LINE",
"540 711 LINE",
"390 711 LINE",
"322 619 LINE",
"254 711 LINE",
"103 711 LINE",
"254 535 LINE"
);
}
);
width = 592;
}
);
leftKerningGroup = a;
note = acaron;
rightKerningGroup = a;
unicode = 01CE;
},
{
glyphname = acircumflex;
lastChange = "2015-11-30 01:13:21 +0000";
layers = (
{
layerId = "6C2100B3-2BA9-4AA0-8DCB-13254C7332A5";
name = SemiBold;
paths = (
{
closed = 1;
nodes = (
"308 -15 OFFCURVE",
"359 9 OFFCURVE",
"395 44 CURVE",
"395 0 LINE",
"537 0 LINE",
"537 292 LINE SMOOTH",
"537 415 OFFCURVE",
"457 495 OFFCURVE",
"279 495 CURVE SMOOTH",
"209 495 OFFCURVE",
"135 480 OFFCURVE",
"94 462 CURVE",
"94 352 LINE",
"139 372 OFFCURVE",
"197 385 OFFCURVE",
"256 385 CURVE SMOOTH",
"344 385 OFFCURVE",
"386 358 OFFCURVE",
"386 298 CURVE SMOOTH",
"386 286 LINE",
"347 307 OFFCURVE",
"293 320 OFFCURVE",
"235 320 CURVE SMOOTH",
"105 320 OFFCURVE",
"32 258 OFFCURVE",
"32 151 CURVE SMOOTH",
"32 46 OFFCURVE",
"116 -15 OFFCURVE",
"231 -15 CURVE SMOOTH"
);
},
{
closed = 1;
nodes = (
"217 85 OFFCURVE",
"187 108 OFFCURVE",
"187 151 CURVE SMOOTH",
"187 197 OFFCURVE",
"218 220 OFFCURVE",
"274 220 CURVE SMOOTH",
"316 220 OFFCURVE",
"353 208 OFFCURVE",
"386 186 CURVE",
"386 138 LINE",
"364 105 OFFCURVE",
"321 85 OFFCURVE",
"272 85 CURVE SMOOTH"
);
},
{
closed = 1;
nodes = (
"240 535 LINE",
"308 627 LINE",
"376 535 LINE",
"526 535 LINE",
"375 711 LINE",
"240 711 LINE",
"89 535 LINE"
);
}
);
width = 585;
}
);
leftKerningGroup = a;
note = acircumflex;
rightKerningGroup = a;
unicode = 00E2;
},
{
glyphname = acircumflexacute;
lastChange = "2015-11-30 01:13:22 +0000";
layers = (
{
layerId = "6C2100B3-2BA9-4AA0-8DCB-13254C7332A5";
name = SemiBold;
paths = (
{
closed = 1;
nodes = (
"308 -15 OFFCURVE",
"359 9 OFFCURVE",
"395 44 CURVE",
"395 0 LINE",
"537 0 LINE",
"537 292 LINE SMOOTH",
"537 415 OFFCURVE",
"457 495 OFFCURVE",
"279 495 CURVE SMOOTH",
"209 495 OFFCURVE",
"135 480 OFFCURVE",
"94 462 CURVE",
"94 352 LINE",
"139 372 OFFCURVE",
"197 385 OFFCURVE",
"256 385 CURVE SMOOTH",
"344 385 OFFCURVE",
"386 358 OFFCURVE",
"386 298 CURVE SMOOTH",
"386 286 LINE",
"347 307 OFFCURVE",
"293 320 OFFCURVE",
"235 320 CURVE SMOOTH",
"105 320 OFFCURVE",
"32 258 OFFCURVE",
"32 151 CURVE SMOOTH",
"32 46 OFFCURVE",
"116 -15 OFFCURVE",
"231 -15 CURVE SMOOTH"
);
},
{
closed = 1;
nodes = (
"217 85 OFFCURVE",
"187 108 OFFCURVE",
"187 151 CURVE SMOOTH",
"187 197 OFFCURVE",
"218 220 OFFCURVE",
"274 220 CURVE SMOOTH",
"316 220 OFFCURVE",
"353 208 OFFCURVE",
"386 186 CURVE",
"386 138 LINE",
"364 105 OFFCURVE",
"321 85 OFFCURVE",
"272 85 CURVE SMOOTH"
);
},
{
closed = 1;
nodes = (
"248 535 LINE",
"313 611 LINE",
"378 535 LINE",
"516 535 LINE",
"371 690 LINE",
"256 690 LINE",
"110 535 LINE"
);
},
{
closed = 1;
nodes = (
"566 643 LINE",
"645 776 LINE",
"506 776 LINE",
"446 643 LINE"
);
}
);
width = 578;
}
);
leftKerningGroup = a;
note = acircumflexacute;
rightKerningGroup = a;
unicode = 1EA5;
},
{
glyphname = acircumflexdotbelow;
lastChange = "2015-11-30 01:13:22 +0000";
layers = (
{
layerId = "6C2100B3-2BA9-4AA0-8DCB-13254C7332A5";
name = SemiBold;
paths = (
{
closed = 1;
nodes = (
"308 -15 OFFCURVE",
"359 9 OFFCURVE",
"395 44 CURVE",
"395 0 LINE",
"537 0 LINE",
"537 292 LINE SMOOTH",
"537 415 OFFCURVE",
"457 495 OFFCURVE",
"279 495 CURVE SMOOTH",
"209 495 OFFCURVE",
"135 480 OFFCURVE",
"94 462 CURVE",
"94 352 LINE",
"139 372 OFFCURVE",
"197 385 OFFCURVE",
"256 385 CURVE SMOOTH",
"344 385 OFFCURVE",
"386 358 OFFCURVE",
"386 298 CURVE SMOOTH",
"386 286 LINE",
"347 307 OFFCURVE",
"293 320 OFFCURVE",
"235 320 CURVE SMOOTH",
"105 320 OFFCURVE",
"32 258 OFFCURVE",
"32 151 CURVE SMOOTH",
"32 46 OFFCURVE",
"116 -15 OFFCURVE",
"231 -15 CURVE SMOOTH"
);
},
{
closed = 1;
nodes = (
"336 -190 OFFCURVE",
"368 -158 OFFCURVE",
"368 -118 CURVE SMOOTH",
"368 -78 OFFCURVE",
"336 -46 OFFCURVE",
"297 -46 CURVE SMOOTH",
"258 -46 OFFCURVE",
"224 -78 OFFCURVE",
"224 -118 CURVE SMOOTH",
"224 -158 OFFCURVE",
"258 -190 OFFCURVE",
"297 -190 CURVE SMOOTH"
);
},
{
closed = 1;
nodes = (
"217 85 OFFCURVE",
"187 108 OFFCURVE",
"187 151 CURVE SMOOTH",
"187 197 OFFCURVE",
"218 220 OFFCURVE",
"274 220 CURVE SMOOTH",
"316 220 OFFCURVE",
"353 208 OFFCURVE",
"386 186 CURVE",
"386 138 LINE",
"364 105 OFFCURVE",
"321 85 OFFCURVE",
"272 85 CURVE SMOOTH"
);
},
{
closed = 1;
nodes = (
"231 535 LINE",
"299 627 LINE",
"367 535 LINE",
"517 535 LINE",
"366 711 LINE",
"231 711 LINE",
"80 535 LINE"
);
}
);
width = 585;
}
);
leftKerningGroup = a;
note = acircumflexdotbelow;
rightKerningGroup = a;
unicode = 1EAD;
},
{
glyphname = acircumflexgrave;
lastChange = "2015-11-30 01:13:21 +0000";
layers = (
{
layerId = "6C2100B3-2BA9-4AA0-8DCB-13254C7332A5";
name = SemiBold;
paths = (
{
closed = 1;
nodes = (
"286 -15 OFFCURVE",
"337 9 OFFCURVE",
"373 44 CURVE",
"373 0 LINE",
"515 0 LINE",
"515 292 LINE SMOOTH",
"515 415 OFFCURVE",
"435 495 OFFCURVE",
"257 495 CURVE SMOOTH",
"187 495 OFFCURVE",
"113 480 OFFCURVE",
"72 462 CURVE",
"72 352 LINE",
"117 372 OFFCURVE",
"175 385 OFFCURVE",
"234 385 CURVE SMOOTH",
"322 385 OFFCURVE",
"364 358 OFFCURVE",
"364 298 CURVE SMOOTH",
"364 286 LINE",
"325 307 OFFCURVE",
"271 320 OFFCURVE",
"213 320 CURVE SMOOTH",
"83 320 OFFCURVE",
"10 258 OFFCURVE",
"10 151 CURVE SMOOTH",
"10 46 OFFCURVE",
"94 -15 OFFCURVE",
"209 -15 CURVE SMOOTH"
);
},
{
closed = 1;
nodes = (
"195 85 OFFCURVE",
"165 108 OFFCURVE",
"165 151 CURVE SMOOTH",
"165 197 OFFCURVE",
"196 220 OFFCURVE",
"252 220 CURVE SMOOTH",
"294 220 OFFCURVE",
"331 208 OFFCURVE",
"364 186 CURVE",
"364 138 LINE",
"342 105 OFFCURVE",
"299 85 OFFCURVE",
"250 85 CURVE SMOOTH"
);
},
{
closed = 1;
nodes = (
"154 643 LINE",
"94 776 LINE",
"-46 776 LINE",
"33 643 LINE"
);
},
{
closed = 1;
nodes = (
"221 535 LINE",
"286 611 LINE",
"351 535 LINE",
"489 535 LINE",
"344 690 LINE",
"229 690 LINE",
"84 535 LINE"
);
}
);
width = 563;
}
);
leftKerningGroup = a;
note = acircumflexgrave;
rightKerningGroup = a;
unicode = 1EA7;
},
{
glyphname = acircumflexhookabove;
lastChange = "2015-11-30 01:13:21 +0000";
layers = (
{
layerId = "6C2100B3-2BA9-4AA0-8DCB-13254C7332A5";
name = SemiBold;
paths = (
{
closed = 1;
nodes = (
"308 -15 OFFCURVE",
"359 9 OFFCURVE",
"395 44 CURVE",
"395 0 LINE",
"537 0 LINE",
"537 292 LINE SMOOTH",
"537 415 OFFCURVE",
"457 495 OFFCURVE",
"279 495 CURVE SMOOTH",
"209 495 OFFCURVE",
"135 480 OFFCURVE",
"94 462 CURVE",
"94 352 LINE",
"139 372 OFFCURVE",
"197 385 OFFCURVE",
"256 385 CURVE SMOOTH",
"344 385 OFFCURVE",
"386 358 OFFCURVE",
"386 298 CURVE SMOOTH",
"386 286 LINE",
"347 307 OFFCURVE",
"293 320 OFFCURVE",
"235 320 CURVE SMOOTH",
"105 320 OFFCURVE",
"32 258 OFFCURVE",
"32 151 CURVE SMOOTH",
"32 46 OFFCURVE",
"116 -15 OFFCURVE",
"231 -15 CURVE SMOOTH"
);
},
{
closed = 1;
nodes = (
"217 85 OFFCURVE",
"187 108 OFFCURVE",
"187 151 CURVE SMOOTH",
"187 197 OFFCURVE",
"218 220 OFFCURVE",
"274 220 CURVE SMOOTH",
"316 220 OFFCURVE",
"353 208 OFFCURVE",
"386 186 CURVE",
"386 138 LINE",
"364 105 OFFCURVE",
"321 85 OFFCURVE",
"272 85 CURVE SMOOTH"
);
},
{
closed = 1;
nodes = (
"237 535 LINE",
"302 611 LINE",
"367 535 LINE",
"505 535 LINE",
"360 690 LINE",
"245 690 LINE",
"99 535 LINE"
);
},
{
closed = 1;
nodes = (
"530 632 LINE",
"530 656 LINE",
"569 664 OFFCURVE",
"592 688 OFFCURVE",
"592 721 CURVE SMOOTH",
"592 764 OFFCURVE",
"555 793 OFFCURVE",
"490 793 CURVE SMOOTH",
"464 793 OFFCURVE",
"430 788 OFFCURVE",
"411 782 CURVE",
"411 728 LINE",
"420 732 OFFCURVE",
"437 735 OFFCURVE",
"450 735 CURVE SMOOTH",
"477 735 OFFCURVE",
"491 729 OFFCURVE",
"491 711 CURVE SMOOTH",
"491 689 OFFCURVE",
"472 682 OFFCURVE",
"436 682 CURVE",
"436 632 LINE"
);
}
);
width = 592;
}
);
leftKerningGroup = a;
note = acircumflexhookabove;
rightKerningGroup = a;
unicode = 1EA9;
},
{
glyphname = acircumflextilde;
lastChange = "2015-11-30 01:13:21 +0000";
layers = (
{
layerId = "6C2100B3-2BA9-4AA0-8DCB-13254C7332A5";
name = SemiBold;
paths = (
{
closed = 1;
nodes = (
"308 -15 OFFCURVE",
"359 9 OFFCURVE",
"395 44 CURVE",
"395 0 LINE",
"537 0 LINE",
"537 292 LINE SMOOTH",
"537 415 OFFCURVE",
"457 495 OFFCURVE",
"279 495 CURVE SMOOTH",
"209 495 OFFCURVE",
"135 480 OFFCURVE",
"94 462 CURVE",
"94 352 LINE",
"139 372 OFFCURVE",
"197 385 OFFCURVE",
"256 385 CURVE SMOOTH",
"344 385 OFFCURVE",
"386 358 OFFCURVE",
"386 298 CURVE SMOOTH",
"386 286 LINE",
"347 307 OFFCURVE",
"293 320 OFFCURVE",
"235 320 CURVE SMOOTH",
"105 320 OFFCURVE",
"32 258 OFFCURVE",
"32 151 CURVE SMOOTH",
"32 46 OFFCURVE",
"116 -15 OFFCURVE",
"231 -15 CURVE SMOOTH"
);
},
{
closed = 1;
nodes = (
"217 85 OFFCURVE",
"187 108 OFFCURVE",
"187 151 CURVE SMOOTH",
"187 197 OFFCURVE",
"218 220 OFFCURVE",
"274 220 CURVE SMOOTH",
"316 220 OFFCURVE",
"353 208 OFFCURVE",
"386 186 CURVE",
"386 138 LINE",
"364 105 OFFCURVE",
"321 85 OFFCURVE",
"272 85 CURVE SMOOTH"
);
},
{
closed = 1;
nodes = (
"242 535 LINE",
"307 611 LINE",
"372 535 LINE",
"510 535 LINE",
"365 690 LINE",
"250 690 LINE",
"104 535 LINE"
);
},
{
closed = 1;
nodes = (
"426 701 OFFCURVE",
"453 711 OFFCURVE",
"471 735 CURVE",
"471 831 LINE",
"449 801 OFFCURVE",
"422 789 OFFCURVE",
"391 789 CURVE SMOOTH",
"342 789 OFFCURVE",
"285 832 OFFCURVE",
"234 832 CURVE SMOOTH",
"199 832 OFFCURVE",
"172 822 OFFCURVE",
"154 797 CURVE",
"154 702 LINE",
"177 732 OFFCURVE",
"203 744 OFFCURVE",
"234 744 CURVE SMOOTH",
"282 744 OFFCURVE",
"336 701 OFFCURVE",
"391 701 CURVE SMOOTH"
);
}
);
width = 585;
}
);
leftKerningGroup = a;
note = acircumflextilde;
rightKerningGroup = a;
unicode = 1EAB;
},
{
glyphname = adieresis;
lastChange = "2015-11-30 01:13:22 +0000";
layers = (
{
layerId = "6C2100B3-2BA9-4AA0-8DCB-13254C7332A5";
name = SemiBold;
paths = (
{
closed = 1;
nodes = (
"308 -15 OFFCURVE",
"359 9 OFFCURVE",
"395 44 CURVE",
"395 0 LINE",
"537 0 LINE",
"537 292 LINE SMOOTH",
"537 415 OFFCURVE",
"457 495 OFFCURVE",
"279 495 CURVE SMOOTH",
"209 495 OFFCURVE",
"135 480 OFFCURVE",
"94 462 CURVE",
"94 352 LINE",
"139 372 OFFCURVE",
"197 385 OFFCURVE",
"256 385 CURVE SMOOTH",
"344 385 OFFCURVE",
"386 358 OFFCURVE",
"386 298 CURVE SMOOTH",
"386 286 LINE",
"347 307 OFFCURVE",
"293 320 OFFCURVE",
"235 320 CURVE SMOOTH",
"105 320 OFFCURVE",
"32 258 OFFCURVE",
"32 151 CURVE SMOOTH",
"32 46 OFFCURVE",
"116 -15 OFFCURVE",
"231 -15 CURVE SMOOTH"
);
},
{
closed = 1;
nodes = (
"217 85 OFFCURVE",
"187 108 OFFCURVE",
"187 151 CURVE SMOOTH",
"187 197 OFFCURVE",
"218 220 OFFCURVE",
"274 220 CURVE SMOOTH",
"316 220 OFFCURVE",
"353 208 OFFCURVE",
"386 186 CURVE",
"386 138 LINE",
"364 105 OFFCURVE",
"321 85 OFFCURVE",
"272 85 CURVE SMOOTH"
);
},
{
closed = 1;
nodes = (
"222 545 OFFCURVE",
"254 576 OFFCURVE",
"254 616 CURVE SMOOTH",
"254 656 OFFCURVE",
"222 688 OFFCURVE",
"183 688 CURVE SMOOTH",
"144 688 OFFCURVE",
"111 656 OFFCURVE",
"111 616 CURVE SMOOTH",
"111 576 OFFCURVE",
"144 545 OFFCURVE",
"183 545 CURVE SMOOTH"
);
},
{
closed = 1;
nodes = (
"458 545 OFFCURVE",
"491 576 OFFCURVE",
"491 616 CURVE SMOOTH",
"491 656 OFFCURVE",
"458 688 OFFCURVE",
"420 688 CURVE SMOOTH",
"381 688 OFFCURVE",
"347 656 OFFCURVE",
"347 616 CURVE SMOOTH",
"347 576 OFFCURVE",
"381 545 OFFCURVE",
"420 545 CURVE SMOOTH"
);
}
);
width = 585;
}
);
leftKerningGroup = a;
note = adieresis;
rightKerningGroup = a;
unicode = 00E4;
},
{
glyphname = adotbelow;
lastChange = "2015-11-30 01:13:21 +0000";
layers = (
{
layerId = "6C2100B3-2BA9-4AA0-8DCB-13254C7332A5";
name = SemiBold;
paths = (
{
closed = 1;
nodes = (
"308 -15 OFFCURVE",
"359 9 OFFCURVE",
"395 44 CURVE",
"395 0 LINE",
"537 0 LINE",
"537 292 LINE SMOOTH",
"537 415 OFFCURVE",
"457 495 OFFCURVE",
"279 495 CURVE SMOOTH",
"209 495 OFFCURVE",
"135 480 OFFCURVE",
"94 462 CURVE",
"94 352 LINE",
"139 372 OFFCURVE",
"197 385 OFFCURVE",
"256 385 CURVE SMOOTH",
"344 385 OFFCURVE",
"386 358 OFFCURVE",
"386 298 CURVE SMOOTH",
"386 286 LINE",
"347 307 OFFCURVE",
"293 320 OFFCURVE",
"235 320 CURVE SMOOTH",
"105 320 OFFCURVE",
"32 258 OFFCURVE",
"32 151 CURVE SMOOTH",
"32 46 OFFCURVE",
"116 -15 OFFCURVE",
"231 -15 CURVE SMOOTH"
);
},
{
closed = 1;
nodes = (
"339 -190 OFFCURVE",
"371 -158 OFFCURVE",
"371 -118 CURVE SMOOTH",
"371 -78 OFFCURVE",
"339 -46 OFFCURVE",
"300 -46 CURVE SMOOTH",
"261 -46 OFFCURVE",
"227 -78 OFFCURVE",
"227 -118 CURVE SMOOTH",
"227 -158 OFFCURVE",
"261 -190 OFFCURVE",
"300 -190 CURVE SMOOTH"
);
},
{
closed = 1;
nodes = (
"217 85 OFFCURVE",
"187 108 OFFCURVE",
"187 151 CURVE SMOOTH",
"187 197 OFFCURVE",
"218 220 OFFCURVE",
"274 220 CURVE SMOOTH",
"316 220 OFFCURVE",
"353 208 OFFCURVE",
"386 186 CURVE",
"386 138 LINE",
"364 105 OFFCURVE",
"321 85 OFFCURVE",
"272 85 CURVE SMOOTH"
);
}
);
width = 585;
}
);
leftKerningGroup = a;
note = adotbelow;
rightKerningGroup = a;
unicode = 1EA1;
},
{
glyphname = agrave;
lastChange = "2015-11-30 01:13:22 +0000";
layers = (
{
layerId = "6C2100B3-2BA9-4AA0-8DCB-13254C7332A5";
name = SemiBold;
paths = (
{
closed = 1;
nodes = (
"308 -15 OFFCURVE",
"359 9 OFFCURVE",
"395 44 CURVE",
"395 0 LINE",
"537 0 LINE",
"537 292 LINE SMOOTH",
"537 415 OFFCURVE",
"457 495 OFFCURVE",
"279 495 CURVE SMOOTH",
"209 495 OFFCURVE",
"135 480 OFFCURVE",
"94 462 CURVE",
"94 352 LINE",
"139 372 OFFCURVE",
"197 385 OFFCURVE",
"256 385 CURVE SMOOTH",
"344 385 OFFCURVE",
"386 358 OFFCURVE",
"386 298 CURVE SMOOTH",
"386 286 LINE",
"347 307 OFFCURVE",
"293 320 OFFCURVE",
"235 320 CURVE SMOOTH",
"105 320 OFFCURVE",
"32 258 OFFCURVE",
"32 151 CURVE SMOOTH",
"32 46 OFFCURVE",
"116 -15 OFFCURVE",
"231 -15 CURVE SMOOTH"
);
},
{
closed = 1;
nodes = (
"217 85 OFFCURVE",
"187 108 OFFCURVE",
"187 151 CURVE SMOOTH",
"187 197 OFFCURVE",
"218 220 OFFCURVE",
"274 220 CURVE SMOOTH",
"316 220 OFFCURVE",
"353 208 OFFCURVE",
"386 186 CURVE",
"386 138 LINE",
"364 105 OFFCURVE",
"321 85 OFFCURVE",
"272 85 CURVE SMOOTH"
);
},
{
closed = 1;
nodes = (
"401 535 LINE",
"332 711 LINE",
"173 711 LINE",
"261 535 LINE"
);
}
);
width = 585;
}
);
leftKerningGroup = a;
note = agrave;
rightKerningGroup = a;
unicode = 00E0;
},
